<svg width="140" height="140" viewBox="0 0 140 140" fill="none" xmlns="http://www.w3.org/2000/svg">
<g clip-path="url(#clip0_88_28)">
<circle cx="70" cy="70" r="70" fill="#FCEDDA"/>
<path d="M69.3148 100.051C68.9948 100.051 68.5948 99.4115 68.1148 98.1315C67.6348 96.9315 67.3148 96.0515 67.1548 95.4915C66.5948 94.1315 66.0748 92.7315 65.5948 91.2915C65.1148 89.7715 64.6348 88.3715 64.1548 87.0915C62.3948 82.1315 60.4748 77.2915 58.3948 72.5715C56.3948 67.7715 54.4348 62.9315 52.5148 58.0515C51.9548 56.6115 51.0748 55.3315 49.8748 54.2115C48.7548 53.0115 47.5948 52.2515 46.3948 51.9315C45.7548 51.6915 45.2348 51.4515 44.8348 51.2115C44.4348 50.9715 44.2348 50.5715 44.2348 50.0115C44.2348 49.5315 44.5148 49.2515 45.0748 49.1715C45.7148 49.0115 46.2348 48.9315 46.6348 48.9315C48.2348 48.9315 49.3948 48.9715 50.1148 49.0515C50.8348 49.1315 51.5548 49.2515 52.2748 49.4115C52.9948 49.4915 54.0348 49.5315 55.3948 49.5315C56.8348 49.5315 57.9148 49.4915 58.6348 49.4115C59.3548 49.2515 60.1148 49.1315 60.9148 49.0515C61.7148 48.9715 62.8748 48.9315 64.3948 48.9315C64.7948 48.9315 65.2748 49.0115 65.8348 49.1715C66.4748 49.2515 66.7948 49.5315 66.7948 50.0115C66.7948 50.5715 66.5148 51.0115 65.9548 51.3315C65.3948 51.6515 64.7548 51.9315 64.0348 52.1715C63.2348 52.4915 62.6348 53.1315 62.2348 54.0915C61.8348 54.9715 61.6348 55.9715 61.6348 57.0915C61.6348 57.6515 61.6748 58.2115 61.7548 58.7715C61.8348 59.3315 61.9548 59.8515 62.1148 60.3315L71.5948 85.5315C71.6748 85.6115 71.7148 85.6515 71.7148 85.6515C71.7948 85.6515 71.8748 85.6115 71.9548 85.5315L81.0748 62.1315C81.3948 61.3315 81.6348 60.4915 81.7948 59.6115C81.9548 58.6515 82.0348 57.8515 82.0348 57.2115C82.0348 55.6115 81.7948 54.4915 81.3148 53.8515C80.8348 53.1315 80.0348 52.5715 78.9148 52.1715C77.8748 51.7715 77.1548 51.4515 76.7548 51.2115C76.3548 50.9715 76.1548 50.5715 76.1548 50.0115C76.1548 49.5315 76.3948 49.2515 76.8748 49.1715C77.4348 49.0115 77.9948 48.9315 78.5548 48.9315C79.4348 48.9315 80.5948 49.0515 82.0348 49.2915C83.4748 49.4515 85.2348 49.5315 87.3148 49.5315C89.3948 49.5315 90.7948 49.4515 91.5148 49.2915C92.3148 49.0515 93.2748 48.9315 94.3948 48.9315C95.0348 48.9315 95.5948 49.0115 96.0748 49.1715C96.5548 49.2515 96.7948 49.5315 96.7948 50.0115C96.7948 50.8915 95.8748 51.6115 94.0348 52.1715C92.8348 52.4915 91.5148 53.4115 90.0748 54.9315C88.6348 56.4515 87.4748 58.2115 86.5948 60.2115L77.2348 82.7715C77.0748 83.0915 76.7548 83.8915 76.2748 85.1715C75.7948 86.3715 75.2748 87.7315 74.7148 89.2515C74.1548 90.6915 73.6748 91.9715 73.2748 93.0915C72.8748 94.1315 72.6748 94.6515 72.6748 94.6515C72.6748 94.6515 72.5148 95.0515 72.1948 95.8515C71.8748 96.5715 71.5148 97.3315 71.1148 98.1315C70.7148 99.0115 70.3548 99.6515 70.0348 100.051H69.3148Z" fill="#EE4E34"/>
</g>
<defs>
<clipPath id="clip0_88_28">
<rect width="140" height="140" fill="white"/>
</clipPath>
</defs>
</svg>
