<svg width="140" height="140" viewBox="0 0 140 140" fill="none" xmlns="http://www.w3.org/2000/svg">
<rect width="140" height="140" rx="70" fill="#FED7AA"/>
<g filter="url(#filter0_d_124_4)">
<path d="M65.14 96.3C57.7733 96.3 52.53 93.7867 49.41 88.76C46.29 83.7333 44.73 77.1467 44.73 69C44.73 60.7667 46.29 54.1367 49.41 49.11C52.6167 43.9967 57.86 41.44 65.14 41.44C69.3 41.44 72.5933 42.1767 75.02 43.65C77.4467 45.0367 79.2667 46.5967 80.48 48.33C81.6933 50.0633 82.43 51.3633 82.69 52.23H82.95V41.57H96.6V95H85.16L82.95 86.29H82.69C82.43 87.07 81.65 88.2833 80.35 89.93C79.1367 91.49 77.2733 92.9633 74.76 94.35C72.3333 95.65 69.1267 96.3 65.14 96.3ZM70.6 85.12C75.4533 85.12 78.7033 83.6033 80.35 80.57C82.0833 77.45 82.95 73.6367 82.95 69.13C82.95 64.3633 82.0833 60.5067 80.35 57.56C78.6167 54.6133 75.3667 53.14 70.6 53.14C67.22 53.14 64.5767 53.8767 62.67 55.35C60.85 56.8233 59.55 58.7733 58.77 61.2C58.0767 63.54 57.73 66.1833 57.73 69.13C57.73 72.0767 58.0767 74.7633 58.77 77.19C59.55 79.6167 60.85 81.5667 62.67 83.04C64.5767 84.4267 67.22 85.12 70.6 85.12Z" fill="#FFF7ED"/>
<path d="M49.41 88.76L50.2596 88.2326L49.41 88.76ZM49.41 49.11L48.5628 48.5787L48.5604 48.5826L49.41 49.11ZM75.02 43.65L74.501 44.5048L74.5124 44.5117L74.5239 44.5182L75.02 43.65ZM80.48 48.33L81.2992 47.7565L81.2992 47.7565L80.48 48.33ZM82.69 52.23L81.7322 52.5173L81.946 53.23H82.69V52.23ZM82.95 52.23V53.23H83.95V52.23H82.95ZM82.95 41.57V40.57H81.95V41.57H82.95ZM96.6 41.57H97.6V40.57H96.6V41.57ZM96.6 95V96H97.6V95H96.6ZM85.16 95L84.1907 95.2459L84.382 96H85.16V95ZM82.95 86.29L83.9193 86.0441L83.728 85.29H82.95V86.29ZM82.69 86.29V85.29H81.9692L81.7413 85.9738L82.69 86.29ZM80.35 89.93L79.5651 89.3103L79.5606 89.3161L80.35 89.93ZM74.76 94.35L75.2323 95.2315L75.2431 95.2256L74.76 94.35ZM80.35 80.57L79.4758 80.0843L79.4711 80.0929L80.35 80.57ZM62.67 55.35L62.0586 54.5587L62.0496 54.5656L62.0408 54.5728L62.67 55.35ZM58.77 61.2L57.818 60.894L57.8145 60.9049L57.8112 60.9159L58.77 61.2ZM58.77 77.19L57.8085 77.4647L57.813 77.4804L57.818 77.496L58.77 77.19ZM62.67 83.04L62.0408 83.8172L62.0609 83.8335L62.0818 83.8487L62.67 83.04ZM65.14 95.3C58.0217 95.3 53.1511 92.8911 50.2596 88.2326L48.5604 89.2874C51.9089 94.6822 57.525 97.3 65.14 97.3V95.3ZM50.2596 88.2326C47.2683 83.4133 45.73 77.0279 45.73 69H43.73C43.73 77.2654 45.3117 84.0534 48.5604 89.2874L50.2596 88.2326ZM45.73 69C45.73 60.8831 47.2692 54.4552 50.2596 49.6374L48.5604 48.5826C45.3108 53.8181 43.73 60.6503 43.73 69H45.73ZM50.2572 49.6413C53.2411 44.8831 58.1219 42.44 65.14 42.44V40.44C57.5981 40.44 51.9922 43.1102 48.5628 48.5787L50.2572 49.6413ZM65.14 42.44C69.1969 42.44 72.2873 43.1608 74.501 44.5048L75.539 42.7952C72.8993 41.1926 69.4031 40.44 65.14 40.44V42.44ZM74.5239 44.5182C76.8617 45.8541 78.5547 47.3233 79.6608 48.9035L81.2992 47.7565C79.9787 45.87 78.0316 44.2192 75.5161 42.7818L74.5239 44.5182ZM79.6608 48.9035C80.8728 50.635 81.5228 51.8195 81.7322 52.5173L83.6478 51.9426C83.3372 50.9072 82.5139 49.4917 81.2992 47.7565L79.6608 48.9035ZM82.69 53.23H82.95V51.23H82.69V53.23ZM83.95 52.23V41.57H81.95V52.23H83.95ZM82.95 42.57H96.6V40.57H82.95V42.57ZM95.6 41.57V95H97.6V41.57H95.6ZM96.6 94H85.16V96H96.6V94ZM86.1293 94.7541L83.9193 86.0441L81.9807 86.5359L84.1907 95.2459L86.1293 94.7541ZM82.95 85.29H82.69V87.29H82.95V85.29ZM81.7413 85.9738C81.5435 86.5674 80.8713 87.6559 79.5651 89.3104L81.1349 90.5496C82.4287 88.9108 83.3165 87.5726 83.6387 86.6062L81.7413 85.9738ZM79.5606 89.3161C78.4594 90.732 76.7208 92.1261 74.2769 93.4744L75.2431 95.2256C77.8258 93.8006 79.814 92.248 81.1394 90.5439L79.5606 89.3161ZM74.2878 93.4685C72.0569 94.6636 69.0308 95.3 65.14 95.3V97.3C69.2226 97.3 72.6098 96.6364 75.2322 95.2315L74.2878 93.4685ZM70.6 86.12C75.6519 86.12 79.3395 84.5275 81.2289 81.0471L79.4711 80.0929C78.0672 82.6792 75.2548 84.12 70.6 84.12V86.12ZM81.2242 81.0556C83.059 77.753 83.95 73.7628 83.95 69.13H81.95C81.95 73.5105 81.1077 77.147 79.4758 80.0844L81.2242 81.0556ZM83.95 69.13C83.95 64.252 83.0645 60.2023 81.2119 57.053L79.4881 58.067C81.1022 60.811 81.95 64.4746 81.95 69.13H83.95ZM81.2119 57.053C79.2319 53.6869 75.5652 52.14 70.6 52.14V54.14C75.1682 54.14 78.0014 55.5397 79.4881 58.067L81.2119 57.053ZM70.6 52.14C67.0859 52.14 64.1987 52.905 62.0586 54.5587L63.2814 56.1413C64.9547 54.8483 67.3541 54.14 70.6 54.14V52.14ZM62.0408 54.5728C60.0563 56.1793 58.652 58.2993 57.818 60.894L59.722 61.506C60.448 59.2474 61.6437 57.4674 63.2992 56.1272L62.0408 54.5728ZM57.8112 60.9159C57.0856 63.3649 56.73 66.1064 56.73 69.13H58.73C58.73 66.2603 59.0678 63.7151 59.7288 61.4841L57.8112 60.9159ZM56.73 69.13C56.73 72.1544 57.0858 74.9352 57.8085 77.4647L59.7315 76.9153C59.0676 74.5914 58.73 71.9989 58.73 69.13H56.73ZM57.818 77.496C58.652 80.0907 60.0563 82.2107 62.0408 83.8172L63.2992 82.2628C61.6437 80.9226 60.448 79.1426 59.722 76.884L57.818 77.496ZM62.0818 83.8487C64.2192 85.4032 67.097 86.12 70.6 86.12V84.12C67.343 84.12 64.9342 83.4502 63.2582 82.2313L62.0818 83.8487Z" fill="black"/>
</g>
<defs>
<filter id="filter0_d_124_4" x="40.73" y="41.44" width="59.87" height="62.86" filterUnits="userSpaceOnUse" color-interpolation-filters="sRGB">
<feFlood flood-opacity="0" result="BackgroundImageFix"/>
<feColorMatrix in="SourceAlpha" type="matrix" values="0 0 0 0 0 0 0 0 0 0 0 0 0 0 0 0 0 0 127 0" result="hardAlpha"/>
<feOffset dy="4"/>
<feGaussianBlur stdDeviation="2"/>
<feComposite in2="hardAlpha" operator="out"/>
<feColorMatrix type="matrix" values="0 0 0 0 0 0 0 0 0 0 0 0 0 0 0 0 0 0 0.25 0"/>
<feBlend mode="normal" in2="BackgroundImageFix" result="effect1_dropShadow_124_4"/>
<feBlend mode="normal" in="SourceGraphic" in2="effect1_dropShadow_124_4" result="shape"/>
</filter>
</defs>
</svg>
