<svg width="17" height="46" viewBox="0 0 17 46" fill="none" xmlns="http://www.w3.org/2000/svg">
<g id="arrow-img">
<path d="M2.30454 33.3374C2.79394 32.8439 3.27317 32.3592 3.75406 31.8762C4.23561 31.3927 4.71913 30.9109 5.20167 30.4282C5.70072 29.9289 6.19717 29.4268 6.69979 28.9311C7.18036 28.4571 7.63949 27.9585 8.19149 27.4736C8.43104 27.6952 8.62206 27.8606 8.80039 28.0387C10.4495 29.6843 12.0958 31.333 13.7452 32.9782C13.8889 33.1215 14.0498 33.2472 14.0779 33.2717C14.6689 32.7552 15.2092 32.2831 15.8206 31.7489C14.5407 30.4798 13.3006 29.2263 12.044 27.9879C10.7718 26.7338 9.52358 25.4553 8.23373 24.1561C5.68791 26.6948 3.16978 29.2057 0.667942 31.7005C1.22444 32.2571 1.73837 32.771 2.30454 33.3374ZM16.3556 31.7326C16.294 31.8401 16.263 31.9335 16.201 31.9963C15.5586 32.649 14.9112 33.2969 14.2408 33.9708C13.6327 33.5369 13.1907 32.9864 12.6879 32.5037C12.1955 32.0311 11.7204 31.5407 11.2376 31.0581C10.7383 30.5589 10.2396 30.0589 9.73936 29.5604C9.25929 29.0821 8.77749 28.6055 8.26897 28.1008C6.16614 29.974 4.26382 31.9778 2.28988 33.9145C2.15979 33.8498 2.04423 33.8141 1.95611 33.7439C1.80957 33.6273 1.67625 33.4927 1.54509 33.3582C1.04458 32.845 0.547183 32.3288 0.0123901 31.7762C0.847994 30.7503 1.84975 29.9378 2.73729 29.0158C3.61397 28.1054 4.50755 27.2112 5.40046 26.3163C6.30704 25.408 7.22162 24.5078 8.16304 23.5738C8.31441 23.6785 8.45986 23.7503 8.56861 23.8588C11.0685 26.352 13.5649 28.8488 16.059 31.3479C16.1704 31.4593 16.2536 31.5989 16.3556 31.7326Z" fill="#326B8E"/>
<path d="M8.25886 12.4775C5.76057 14.9757 3.23954 17.4966 0.71027 20.0257C1.20646 20.4979 1.75689 21.0217 2.31278 21.5506C4.25667 19.618 6.23868 17.6472 8.25171 15.6458C9.27985 16.6675 10.2523 17.6373 11.2286 18.6031C12.2158 19.58 13.1612 20.6011 14.2169 21.5524C14.7585 20.9637 15.3307 20.5154 15.7415 19.9571C13.1966 17.4132 10.6868 14.9045 8.25886 12.4775ZM16.2724 19.9967C15.5987 20.6721 14.9188 21.3538 14.2108 22.0638C13.6935 21.9157 13.3978 21.4359 13.018 21.0822C12.2884 20.4028 11.6033 19.6756 10.8978 18.9702C10.2421 18.3146 9.58258 17.663 8.92786 17.0064C8.69953 16.7776 8.4803 16.5398 8.216 16.2632C6.25493 18.2188 4.29633 20.172 2.35572 22.1072C1.84601 21.8371 0.564379 20.5948 0.127435 19.9939C2.84205 17.2795 5.54985 14.5719 8.2011 11.9208C10.8436 14.5649 13.5505 17.2732 16.2724 19.9967Z" fill="#326B8E"/>
<path d="M2.31783 45.1705C4.26948 43.2201 6.2239 41.2669 8.19753 39.2944C10.2059 41.3016 12.1619 43.2564 14.1323 45.2256C14.7101 44.6438 15.2703 44.1213 15.7523 43.5877C13.2218 41.0547 10.7485 38.5793 8.20492 36.0332C6.92873 37.2255 5.69714 38.5134 4.43278 39.767C3.16445 41.0246 1.89478 42.2811 0.610203 43.5535C1.19377 44.1062 1.73764 44.6211 2.31783 45.1705ZM16.3752 43.562C15.6105 44.3363 14.9049 45.0507 14.1449 45.8203C12.1619 43.8391 10.207 41.8856 8.19728 39.8778C6.21996 41.8545 4.25211 43.8218 2.33822 45.7351C1.57996 44.9643 0.85904 44.2314 0.106733 43.4666C0.214858 43.3498 0.365695 43.1755 0.528177 43.0129C2.88907 40.6497 5.2513 38.2878 7.614 35.9266C8.00154 35.5391 8.38617 35.5351 8.76788 35.9145C11.1473 38.2923 13.526 40.671 15.9039 43.0506C16.0507 43.1978 16.1861 43.3562 16.3752 43.562Z" fill="#326B8E"/>
<path d="M8.20307 0.599375C8.158 0.609846 8.10725 0.610575 8.0692 0.632991C8.00921 0.668216 7.95268 0.712928 7.90354 0.762315C5.49713 3.17563 3.09167 5.58967 0.687057 8.00483C0.672805 8.01912 0.669008 8.0467 0.66649 8.069C0.663897 8.09142 0.669009 8.11469 0.670467 8.13402C1.2061 8.66165 1.73975 9.18717 2.31086 9.74975C4.25643 7.79595 6.21182 5.83242 8.20036 3.83551C9.20165 4.83581 10.1804 5.81407 11.1598 6.79196C12.1487 7.77957 13.1382 8.76682 14.0464 9.67327C14.6484 9.11277 15.1946 8.60413 15.7382 8.0977C15.253 7.45271 8.64115 0.87698 8.20307 0.599375ZM8.16267 4.38074C6.17143 6.37568 4.21443 8.33624 2.32042 10.2336C1.58226 9.50651 0.849848 8.78505 0.165315 8.11075C2.82359 5.45334 5.50981 2.76796 8.23916 0.0394897C8.27992 0.0631314 8.41662 0.108828 8.50801 0.199844C11.0726 2.75688 13.6327 5.31836 16.1919 7.8807C16.2397 7.92848 16.2694 7.99448 16.3476 8.11222C15.6556 8.85819 14.9087 9.56231 14.1374 10.3502C12.1625 8.37714 10.2081 6.42457 8.16267 4.38074Z" fill="#326B8E"/>
</g>
</svg>
