<svg width="71" height="71" viewBox="0 0 71 71" fill="none" xmlns="http://www.w3.org/2000/svg">
<path d="M48.6768 67.2561C44.9103 67.0321 37.2808 67.1126 36.1031 67.3739V69.7599C38.775 70.1352 43.4777 69.2032 48.6768 67.2561ZM36.1031 66.1246C36.3686 66.1664 36.5162 66.2096 36.6637 66.2096C41.168 66.2139 45.6722 66.2257 50.1738 66.1981C50.6593 66.1951 51.2012 66.0599 51.6144 65.8118C53.1327 64.8959 54.627 63.9344 56.0918 62.9341C56.8268 62.4329 57.4787 61.8106 58.3533 61.0895H36.1031V66.1246ZM63.7133 54.9415H36.0145C36.1245 56.6823 35.8911 58.3416 36.1487 60.0011H59.4478C61.0574 58.4467 62.4927 56.8929 63.7133 54.9415ZM36.1111 53.8287C36.4169 53.8548 36.6155 53.8864 36.814 53.8867C45.6347 53.8894 54.4526 53.8733 63.2733 53.91C64.3276 53.9146 64.8668 53.4067 65.2881 52.589C65.6582 51.8706 66.0472 51.1597 66.3879 50.4268C66.6321 49.9021 66.8091 49.3462 67.0317 48.7595H36.1111V53.8287ZM36.0226 42.3133C36.0976 44.0801 35.9367 45.7402 36.1165 47.4174H67.5093C68.2953 46.1992 68.8158 43.6029 68.7889 42.3133H36.0226ZM69.8486 36.1053C58.973 36.1053 48.2637 36.1048 37.5517 36.1066C37.1412 36.1069 36.7335 36.1276 36.323 36.145C36.2801 36.1469 36.2372 36.1901 36.1969 36.2201C36.1567 36.2507 36.1218 36.2888 36.1218 36.2907V41.2453H69.0626C69.9076 39.6598 69.3093 37.8979 69.8486 36.1053ZM36.1165 1.28643C36.0789 1.68106 36.0414 1.87769 36.0414 2.07434C36.0494 12.9948 36.0628 23.9152 36.0762 34.8359C36.0762 34.8796 36.1084 34.9276 36.1379 34.9657C36.1701 35.0057 36.2131 35.0363 36.2533 35.0744H69.744C69.3201 25.9377 66.1679 18.0704 59.7054 11.5421C53.224 4.99255 45.3503 1.83235 36.1165 1.28643ZM15.7334 63.4698L15.728 63.465C16.2807 64.4551 17.3752 64.717 18.231 65.2924C18.9419 65.7713 19.7306 66.1449 20.5032 66.5221C21.2356 66.8784 22.0189 67.1188 22.762 67.4563C23.4971 67.7889 24.2697 68.179 25.0477 68.2342C25.9115 68.2957 26.5071 68.9446 27.336 68.9848C28.8759 69.0602 30.3352 70.0453 31.9422 69.38C32.0146 69.35 32.1622 69.3859 32.2158 69.4447C33.077 70.3635 34.0723 69.7666 35.0166 69.8254V1.40445C34.767 1.37601 34.574 1.33658 34.3781 1.3347C32.4385 1.31431 30.5284 1.6357 28.664 2.10195C27.2985 2.44345 25.8364 2.42277 24.5702 3.14925C24.2214 3.34858 23.8673 3.6834 23.5105 3.69306C22.0995 3.7306 21.0424 4.60274 19.8325 5.10789C19.5026 5.24497 19.1672 5.39814 18.8909 5.61652C18.6441 5.81127 18.4805 6.10613 18.2712 6.365C18.1639 6.21343 18.1049 6.13241 18.0486 6.05354C14.9769 7.95772 12.1064 10.109 9.81002 12.9314C8.58941 14.4284 7.43316 15.9763 6.25814 17.5086C6.13743 17.6672 5.95231 17.9636 6.01132 18.0446C6.4486 18.659 5.7404 18.6136 5.5821 18.8833C5.04556 19.8037 4.51711 20.7364 4.0798 21.7068C3.78739 22.3554 3.77934 23.1565 3.40913 23.7387C3.09793 24.2245 2.91552 24.6856 2.77061 25.228C2.56941 25.9854 2.47556 26.7924 2.22874 27.4984C1.67075 29.0938 1.31128 30.6935 1.28439 32.372C1.25761 33.9095 1.33273 35.4512 1.24955 36.9855C1.06177 40.5132 2.08121 43.8094 3.10598 47.103C3.44937 48.2058 3.94029 49.2647 4.39902 50.3286C4.61902 50.8424 4.89803 51.3344 5.19044 51.8138C5.45333 52.2473 5.82623 52.6215 6.04086 53.0736C6.28228 53.5747 6.37351 54.2 6.92613 54.4396C7.52436 54.6985 7.20782 55.2862 7.51097 55.6672C9.51224 58.1843 11.5269 60.6895 14.2177 62.522C14.7032 62.8541 15.001 63.5242 15.7334 63.4698ZM35.4297 0.291687C45.2618 0.610648 53.7632 3.96319 60.6389 11.0023C67.3778 17.9 70.8009 26.3277 70.7392 35.8961C70.6775 45.5859 67.0399 54.0152 60.0514 60.8332C53.1891 67.5314 44.9077 70.9043 35.3036 70.8673C25.5816 70.83 17.2545 67.3334 10.4056 60.448C3.50839 53.5143 0.0477087 45.0317 0.101384 35.322C0.149654 25.9484 3.62375 17.7635 10.1802 11.0315C17.0855 3.94282 25.6379 0.574971 35.4297 0.291687Z" fill="#8B5E3C"/>
<path d="M34.6732 19.9032C34.6115 19.9464 34.5498 20.0175 34.4854 20.0218C34.4398 20.025 34.3888 19.9376 34.3405 19.8906C34.3728 19.863 34.413 19.8074 34.4398 19.8131C34.5203 19.8302 34.5954 19.871 34.6732 19.9032Z" fill="#8B5E3C"/>
<path d="M29.4044 27.3305C29.4608 27.2835 29.5197 27.2028 29.568 27.2065C29.6324 27.2108 29.6914 27.2849 29.7504 27.3286C29.7183 27.36 29.678 27.4219 29.6512 27.4174C29.5707 27.4037 29.4929 27.364 29.4044 27.3305Z" fill="#8B5E3C"/>
<path d="M31.8671 27.3299C31.9261 27.2832 31.9825 27.2028 32.0361 27.2063C32.0978 27.2103 32.1568 27.2851 32.2158 27.3291C32.1837 27.3608 32.1434 27.423 32.1166 27.4182C32.0334 27.404 31.9556 27.3637 31.8671 27.3299Z" fill="#8B5E3C"/>
<path d="M34.4559 27.4214C34.4237 27.3654 34.3888 27.3093 34.3566 27.2535C34.4371 27.2406 34.5203 27.217 34.6008 27.2208C34.633 27.2224 34.6625 27.2844 34.6946 27.319C34.6142 27.353 34.5364 27.3874 34.4559 27.4214Z" fill="#8B5E3C"/>
<path d="M24.8277 14.9756C24.7687 15.0225 24.7124 15.103 24.6614 15.0998C24.597 15.0955 24.5407 15.0209 24.479 14.9769C24.5139 14.945 24.5514 14.8828 24.5782 14.8876C24.6614 14.9016 24.7365 14.9418 24.8277 14.9756Z" fill="#8B5E3C"/>
<path d="M26.0564 35.9062C25.992 35.9508 25.9276 36.0232 25.8606 36.0294C25.8149 36.0329 25.7613 35.9408 25.713 35.8915C25.7479 35.8631 25.7881 35.8051 25.8149 35.811C25.8981 35.8298 25.9759 35.8724 26.0564 35.9062Z" fill="#8B5E3C"/>
<path d="M29.7531 2.35922C29.6914 2.4067 29.6351 2.48747 29.5841 2.48399C29.5224 2.47996 29.4634 2.40511 29.4017 2.36085C29.4366 2.32919 29.4741 2.26667 29.501 2.27122C29.5841 2.28545 29.662 2.32542 29.7531 2.35922Z" fill="#8B5E3C"/>
<path d="M32.0682 2.26288C32.1139 2.31197 32.1595 2.36268 32.2051 2.41339C32.1273 2.44183 32.0468 2.4799 31.9663 2.49251C31.9395 2.49654 31.9019 2.43296 31.8698 2.40023C31.9341 2.35703 31.9959 2.31358 32.0682 2.26288Z" fill="#8B5E3C"/>
<path d="M34.4559 2.49546C34.421 2.43914 34.3888 2.38278 34.354 2.32645C34.4371 2.31384 34.5203 2.29023 34.6008 2.29374C34.633 2.29534 34.6651 2.35757 34.6946 2.39218C34.6142 2.42678 34.5364 2.46113 34.4559 2.49546Z" fill="#8B5E3C"/>
<path d="M29.5922 14.8879C29.6405 14.9351 29.6914 14.9821 29.7398 15.029C29.662 15.0574 29.5841 15.0958 29.501 15.1087C29.4768 15.1127 29.4393 15.0494 29.407 15.0172C29.4688 14.974 29.5304 14.9308 29.5922 14.8879Z" fill="#8B5E3C"/>
<path d="M29.7504 34.6725C29.6914 34.7197 29.6351 34.8004 29.5841 34.797C29.5224 34.7927 29.4634 34.7181 29.4044 34.6738C29.4366 34.6424 29.4768 34.5799 29.5037 34.5848C29.5841 34.5987 29.662 34.6387 29.7504 34.6725Z" fill="#8B5E3C"/>
<path d="M34.5149 14.8871C34.5632 14.9341 34.6142 14.9813 34.6651 15.0285C34.5846 15.0572 34.5069 15.0958 34.4237 15.1089C34.3996 15.1132 34.362 15.0497 34.3298 15.017C34.3915 14.9735 34.4532 14.9303 34.5149 14.8871Z" fill="#8B5E3C"/>
<path d="M33.2272 3.7263C33.1923 3.67023 33.1602 3.61443 33.128 3.55837C33.2084 3.54576 33.2916 3.5219 33.3721 3.52565C33.4043 3.52699 33.4338 3.58897 33.4633 3.62357C33.3855 3.6579 33.305 3.69222 33.2272 3.7263Z" fill="#8B5E3C"/>
<path d="M11.0736 16.1241C11.0172 16.1576 10.9609 16.1911 10.9046 16.2244C10.8912 16.142 10.867 16.0592 10.8724 15.9776C10.8724 15.9451 10.9368 15.9159 10.9717 15.8851C11.0065 15.9647 11.0414 16.0444 11.0736 16.1241Z" fill="#8B5E3C"/>
<path d="M26.9416 4.82246C26.9873 4.88068 27.0678 4.93701 27.0651 4.98744C27.0597 5.05076 26.9873 5.10871 26.9416 5.16906C26.9121 5.1358 26.8505 5.09716 26.8531 5.07006C26.8666 4.9885 26.9068 4.91125 26.9416 4.82246Z" fill="#8B5E3C"/>
<path d="M13.5416 16.1048C13.4934 16.1501 13.4397 16.1965 13.3887 16.2435C13.3619 16.163 13.3216 16.0841 13.3109 16.001C13.3055 15.9741 13.37 15.9371 13.4021 15.9047C13.4478 15.9677 13.4906 16.031 13.5416 16.1048Z" fill="#8B5E3C"/>
<path d="M20.7849 6.05403C20.8332 6.11358 20.9136 6.17047 20.911 6.22199C20.9056 6.28502 20.8305 6.34354 20.7876 6.40387C20.7553 6.37036 20.6937 6.33145 20.6964 6.30409C20.7124 6.22173 20.7527 6.14389 20.7849 6.05403Z" fill="#8B5E3C"/>
<path d="M25.8525 6.25633C25.8015 6.30031 25.7532 6.34568 25.7023 6.39128C25.6727 6.31215 25.6352 6.23463 25.6218 6.15334C25.6164 6.12732 25.6808 6.09054 25.713 6.05889C25.7559 6.12059 25.7988 6.18229 25.8525 6.25633Z" fill="#8B5E3C"/>
<path d="M28.3072 6.27298C28.2508 6.30598 28.1945 6.33873 28.1408 6.37145C28.1274 6.2907 28.1033 6.20913 28.106 6.12919C28.1087 6.09752 28.1704 6.06856 28.2052 6.03851C28.2374 6.11658 28.2723 6.19463 28.3072 6.27298Z" fill="#8B5E3C"/>
<path d="M18.459 16.1442C18.3973 16.1665 18.3356 16.1885 18.2739 16.2104C18.2712 16.1273 18.2605 16.0433 18.2712 15.9618C18.2739 15.939 18.3329 15.9226 18.3678 15.903C18.3973 15.9835 18.4295 16.0637 18.459 16.1442Z" fill="#8B5E3C"/>
<path d="M17.0935 7.28649C17.1391 7.34471 17.2196 7.40104 17.2169 7.45147C17.2115 7.51399 17.1391 7.57164 17.0935 7.63119C17.064 7.59792 17.0023 7.55985 17.0077 7.53275C17.0211 7.45146 17.0613 7.37502 17.0935 7.28649Z" fill="#8B5E3C"/>
<path d="M19.693 7.5038C19.634 7.53816 19.5777 7.5722 19.5214 7.60627C19.5079 7.52285 19.4838 7.43916 19.4865 7.35654C19.4892 7.32407 19.5509 7.29402 19.5858 7.26291C19.6233 7.34339 19.6582 7.42333 19.693 7.5038Z" fill="#8B5E3C"/>
<path d="M22.1531 7.50295C22.0968 7.53622 22.0404 7.56895 21.9841 7.60195C21.9733 7.52119 21.9492 7.43967 21.9519 7.35945C21.9546 7.32752 22.0163 7.29882 22.0511 7.26851C22.0833 7.34683 22.1182 7.42488 22.1531 7.50295Z" fill="#8B5E3C"/>
<path d="M26.9417 7.28492C26.9873 7.34421 27.0678 7.40135 27.0651 7.45285C27.0624 7.5159 26.9873 7.57411 26.9417 7.63447C26.9095 7.60093 26.8478 7.56203 26.8532 7.53495C26.8666 7.45259 26.9068 7.37478 26.9417 7.28492Z" fill="#8B5E3C"/>
<path d="M20.9217 16.1246C20.8654 16.1581 20.8091 16.1914 20.7527 16.2249C20.7393 16.1423 20.7152 16.0594 20.7179 15.9779C20.7205 15.9454 20.7822 15.9162 20.8171 15.8853C20.852 15.965 20.8869 16.0447 20.9217 16.1246Z" fill="#8B5E3C"/>
<path d="M8.17089 28.561C8.23259 28.5138 8.28895 28.4328 8.34259 28.436C8.40425 28.4398 8.46333 28.5157 8.52234 28.5605C8.49015 28.5927 8.4499 28.6557 8.42308 28.6509C8.33993 28.6364 8.26212 28.5956 8.17089 28.561Z" fill="#8B5E3C"/>
<path d="M18.3651 8.86121C18.3222 8.79843 18.2498 8.73754 18.2444 8.67209C18.2417 8.62595 18.3302 8.57364 18.3785 8.52401C18.4053 8.55806 18.4617 8.59831 18.4563 8.62487C18.4402 8.70643 18.3973 8.78288 18.3651 8.86121Z" fill="#8B5E3C"/>
<path d="M20.7661 8.52106C20.8225 8.56935 20.9163 8.62006 20.9137 8.65628C20.9002 8.73515 20.8385 8.80677 20.7956 8.88135C20.7661 8.8462 20.7098 8.81001 20.7125 8.77594C20.7151 8.69466 20.7447 8.61442 20.7661 8.52106Z" fill="#8B5E3C"/>
<path d="M32.2078 34.6531C32.1595 34.7078 32.1085 34.8039 32.0736 34.7988C31.9959 34.7875 31.9234 34.7247 31.851 34.6834C31.8858 34.6534 31.9207 34.597 31.9556 34.5984C32.0361 34.6011 32.1166 34.6311 32.2078 34.6531Z" fill="#8B5E3C"/>
<path d="M23.5964 21.1316C23.5374 21.1785 23.4783 21.2593 23.4274 21.2561C23.3657 21.252 23.3067 21.1766 23.2476 21.1324C23.2798 21.1005 23.32 21.038 23.3469 21.0425C23.4301 21.057 23.5079 21.0975 23.5964 21.1316Z" fill="#8B5E3C"/>
<path d="M33.4472 23.5921C33.3882 23.6396 33.3292 23.7209 33.2782 23.7174C33.2164 23.7131 33.1574 23.6383 33.0958 23.594C33.1306 23.5624 33.1682 23.4999 33.195 23.5044C33.2782 23.5184 33.356 23.5583 33.4472 23.5921Z" fill="#8B5E3C"/>
<path d="M34.6786 34.672C34.6168 34.7192 34.5605 34.8002 34.5096 34.797C34.4452 34.7926 34.3861 34.7178 34.3271 34.6733C34.3593 34.6416 34.3995 34.5788 34.4264 34.5837C34.5096 34.5979 34.5873 34.6379 34.6786 34.672Z" fill="#8B5E3C"/>
<path d="M33.0985 8.56076C33.1574 8.51354 33.2111 8.43252 33.2621 8.43573C33.3265 8.44004 33.3828 8.51434 33.4445 8.5586C33.4096 8.59027 33.3721 8.6525 33.3452 8.64794C33.2648 8.63426 33.187 8.59429 33.0985 8.56076Z" fill="#8B5E3C"/>
<path d="M30.9791 21.112C30.9308 21.167 30.8798 21.2631 30.8423 21.258C30.7645 21.247 30.692 21.1842 30.6196 21.1426C30.6545 21.1126 30.6894 21.0562 30.7243 21.0573C30.8047 21.06 30.8852 21.0901 30.9791 21.112Z" fill="#8B5E3C"/>
<path d="M33.4472 21.1305C33.3882 21.1785 33.3319 21.2606 33.2782 21.2571C33.2164 21.2528 33.1574 21.1775 33.0958 21.1327C33.128 21.1005 33.1682 21.0374 33.195 21.0422C33.2782 21.0562 33.3586 21.0965 33.4472 21.1305Z" fill="#8B5E3C"/>
<path d="M19.5535 9.74006C19.6018 9.79909 19.685 9.85625 19.6796 9.90694C19.6769 9.97186 19.6018 10.0319 19.5562 10.0939C19.524 10.0598 19.4623 10.021 19.465 9.99281C19.4784 9.90964 19.5187 9.831 19.5535 9.74006Z" fill="#8B5E3C"/>
<path d="M7.22657 17.1443C7.28025 17.1918 7.37413 17.2414 7.36876 17.2773C7.35802 17.3546 7.29633 17.4252 7.25611 17.4984C7.22657 17.4638 7.17025 17.4281 7.17293 17.3946C7.17562 17.3146 7.20513 17.236 7.22657 17.1443Z" fill="#8B5E3C"/>
<path d="M12.3156 17.3369C12.2647 17.3812 12.2111 17.4268 12.1601 17.4727C12.1306 17.3922 12.0903 17.313 12.0769 17.2296C12.0742 17.203 12.1386 17.1655 12.1708 17.133C12.2164 17.1958 12.2593 17.2586 12.3156 17.3369Z" fill="#8B5E3C"/>
<path d="M19.5965 17.4823C19.5536 17.4201 19.4784 17.3595 19.4758 17.2945C19.4703 17.2471 19.5589 17.1936 19.6072 17.1432C19.6367 17.1773 19.693 17.2175 19.6877 17.2446C19.6715 17.3264 19.6287 17.4034 19.5965 17.4823Z" fill="#8B5E3C"/>
<path d="M26.9229 17.143C26.9765 17.191 27.0704 17.2409 27.0651 17.2768C27.0544 17.3543 26.9926 17.4249 26.9524 17.4984C26.9229 17.4638 26.8666 17.4279 26.8666 17.3943C26.8692 17.3141 26.8988 17.235 26.9229 17.143Z" fill="#8B5E3C"/>
<path d="M33.2272 31.1139C33.1923 31.0578 33.1602 31.002 33.128 30.9462C33.2084 30.9336 33.2916 30.91 33.3721 30.9135C33.4043 30.9148 33.4338 30.9771 33.4633 31.0117C33.3855 31.046 33.305 31.0801 33.2272 31.1139Z" fill="#8B5E3C"/>
<path d="M34.6759 9.74624C34.6168 9.79292 34.5605 9.87284 34.5096 9.86963C34.4478 9.86534 34.3888 9.79158 34.3298 9.74758C34.362 9.71619 34.4022 9.6545 34.4291 9.65933C34.5096 9.673 34.5873 9.71298 34.6759 9.74624Z" fill="#8B5E3C"/>
<path d="M13.5336 11.1627C13.4853 11.2132 13.4397 11.2633 13.3914 11.3135C13.3619 11.2338 13.3243 11.1555 13.3109 11.0734C13.3055 11.0474 13.37 11.0101 13.4021 10.9779C13.445 11.0396 13.4906 11.101 13.5336 11.1627Z" fill="#8B5E3C"/>
<path d="M24.6051 29.8858C24.5729 29.8283 24.538 29.7715 24.5058 29.7143C24.5889 29.7012 24.6721 29.677 24.7526 29.6808C24.7875 29.6821 24.817 29.7454 24.8465 29.7809C24.766 29.816 24.6856 29.8509 24.6051 29.8858Z" fill="#8B5E3C"/>
<path d="M18.3222 10.9749C18.3705 11.0334 18.451 11.09 18.4483 11.1407C18.4429 11.2046 18.3705 11.2633 18.3249 11.3242C18.2927 11.2904 18.231 11.2521 18.2364 11.2244C18.2498 11.1423 18.29 11.0645 18.3222 10.9749Z" fill="#8B5E3C"/>
<path d="M20.8252 11.3215C20.7822 11.259 20.7125 11.1987 20.7071 11.1332C20.7044 11.0881 20.793 11.0361 20.8385 10.9873C20.8681 11.0211 20.9217 11.0608 20.9164 11.0873C20.9002 11.1681 20.86 11.2437 20.8252 11.3215Z" fill="#8B5E3C"/>
<path d="M23.5964 35.9024C23.5374 35.9499 23.4783 36.0312 23.4274 36.028C23.3657 36.0237 23.3067 35.9483 23.245 35.9035C23.2798 35.8716 23.3174 35.8086 23.3469 35.8134C23.4274 35.8279 23.5079 35.8684 23.5964 35.9024Z" fill="#8B5E3C"/>
<path d="M11.0709 18.6045C11.0119 18.6262 10.9502 18.6479 10.8885 18.6697C10.8858 18.5876 10.8777 18.5044 10.8858 18.4237C10.8885 18.4011 10.9475 18.3848 10.9797 18.3657C11.0119 18.4452 11.0414 18.5248 11.0709 18.6045Z" fill="#8B5E3C"/>
<path d="M13.5363 18.5849C13.48 18.6182 13.4236 18.6514 13.3673 18.6847C13.3539 18.6029 13.3297 18.5202 13.3351 18.439C13.3351 18.407 13.3968 18.3778 13.4317 18.3472C13.4665 18.4264 13.5014 18.5055 13.5363 18.5849Z" fill="#8B5E3C"/>
<path d="M12.3076 12.4319C12.2513 12.4662 12.1923 12.5 12.1359 12.5338C12.1225 12.4504 12.0984 12.3664 12.1011 12.2838C12.1037 12.2511 12.1654 12.2213 12.2003 12.1899C12.2379 12.2707 12.2728 12.3514 12.3076 12.4319Z" fill="#8B5E3C"/>
<path d="M19.5347 12.2194C19.5911 12.268 19.6877 12.3184 19.6823 12.3555C19.6715 12.4346 19.6072 12.5068 19.5669 12.5816C19.5347 12.5465 19.4784 12.5102 19.4811 12.4759C19.4838 12.3944 19.5133 12.3133 19.5347 12.2194Z" fill="#8B5E3C"/>
<path d="M20.9191 18.6051C20.8574 18.6268 20.7983 18.6488 20.7367 18.6705C20.7339 18.5881 20.7232 18.505 20.7339 18.424C20.7367 18.4014 20.7957 18.3853 20.8279 18.366C20.8574 18.4457 20.8895 18.5251 20.9191 18.6051Z" fill="#8B5E3C"/>
<path d="M23.5991 28.5167C23.5374 28.5645 23.4783 28.6463 23.4274 28.6428C23.363 28.6388 23.304 28.5626 23.245 28.5178C23.2771 28.4854 23.3174 28.422 23.3442 28.4269C23.4274 28.4414 23.5079 28.4821 23.5991 28.5167Z" fill="#8B5E3C"/>
<path d="M20.7661 53.1495C20.8198 53.1977 20.9163 53.2476 20.911 53.2841C20.9002 53.3625 20.8385 53.4335 20.7983 53.5076C20.7661 53.4725 20.7098 53.4368 20.7125 53.4027C20.7151 53.3222 20.7447 53.2423 20.7661 53.1495Z" fill="#8B5E3C"/>
<path d="M26.0591 28.5165C25.9974 28.565 25.9383 28.6485 25.8847 28.6452C25.8203 28.6418 25.7613 28.5629 25.6996 28.5167C25.7345 28.4838 25.7747 28.4185 25.8015 28.4234C25.8874 28.4387 25.9679 28.4808 26.0591 28.5165Z" fill="#8B5E3C"/>
<path d="M29.7504 29.7505C29.6887 29.7948 29.627 29.8678 29.5626 29.8723C29.5144 29.8755 29.4634 29.7862 29.4124 29.7385C29.4473 29.71 29.4875 29.6532 29.5144 29.6591C29.5948 29.6765 29.6726 29.7178 29.7504 29.7505Z" fill="#8B5E3C"/>
<path d="M30.7699 28.6541C30.735 28.5973 30.7001 28.5404 30.6652 28.4838C30.7484 28.4704 30.8316 28.446 30.9147 28.4494C30.947 28.4508 30.9764 28.5141 31.0086 28.549C30.9281 28.5841 30.8503 28.6193 30.7699 28.6541Z" fill="#8B5E3C"/>
<path d="M33.4526 28.5151C33.3909 28.5642 33.3345 28.6488 33.2808 28.645C33.2164 28.6404 33.1548 28.5637 33.093 28.5181C33.128 28.4854 33.1682 28.4213 33.195 28.4258C33.2808 28.4398 33.3586 28.4808 33.4526 28.5151Z" fill="#8B5E3C"/>
<path d="M24.4736 22.408C24.5326 22.3597 24.5916 22.2766 24.6426 22.28C24.707 22.2849 24.766 22.36 24.8277 22.4048C24.7955 22.437 24.7553 22.5003 24.7284 22.4955C24.6453 22.4821 24.5648 22.4418 24.4736 22.408Z" fill="#8B5E3C"/>
<path d="M2.14827 29.8844C2.11608 29.8281 2.0812 29.7715 2.04632 29.7151C2.12947 29.7017 2.21265 29.6776 2.2958 29.6811C2.32799 29.6824 2.35749 29.7454 2.387 29.7803C2.30919 29.8152 2.22873 29.8501 2.14827 29.8844Z" fill="#8B5E3C"/>
<path d="M29.5332 22.4993C29.4983 22.4424 29.4661 22.3858 29.4312 22.3289C29.5144 22.316 29.5975 22.2919 29.678 22.2954C29.7129 22.297 29.7424 22.36 29.7719 22.3948C29.6914 22.4297 29.6136 22.4646 29.5332 22.4993Z" fill="#8B5E3C"/>
<path d="M13.4397 41.1748C13.3968 41.1126 13.3243 41.0519 13.3217 40.987C13.3163 40.9406 13.4048 40.8882 13.4531 40.8383C13.4826 40.8722 13.539 40.9124 13.5309 40.9389C13.5148 41.0202 13.4746 41.0965 13.4397 41.1748Z" fill="#8B5E3C"/>
<path d="M18.459 41.0465C18.4027 41.08 18.3464 41.1136 18.29 41.1468C18.2793 41.065 18.2551 40.9827 18.2578 40.9014C18.2605 40.8695 18.3222 40.8397 18.3571 40.8094C18.3919 40.8882 18.4241 40.9674 18.459 41.0465Z" fill="#8B5E3C"/>
<path d="M20.9217 41.046C20.8654 41.0795 20.809 41.113 20.7527 41.1463C20.7393 41.0642 20.7152 40.9821 20.7205 40.9006C20.7205 40.8686 20.7822 40.8391 20.8171 40.8086C20.852 40.8877 20.8869 40.9668 20.9217 41.046Z" fill="#8B5E3C"/>
<path d="M25.7103 40.8284C25.7559 40.8872 25.8391 40.9438 25.8337 40.9948C25.831 41.0576 25.7559 41.1155 25.7129 41.1753C25.6808 41.142 25.6191 41.1037 25.6218 41.0766C25.6379 40.9948 25.6754 40.9175 25.7103 40.8284Z" fill="#8B5E3C"/>
<path d="M28.3045 41.0157C28.2562 41.0648 28.2106 41.1139 28.1623 41.1627C28.1355 41.0841 28.0979 41.0071 28.0845 40.9263C28.0791 40.9003 28.1435 40.8638 28.1757 40.8324C28.2186 40.8936 28.2615 40.9543 28.3045 41.0157Z" fill="#8B5E3C"/>
<path d="M4.91952 42.2733C4.86316 42.3074 4.8068 42.3412 4.75047 42.3753C4.73705 42.2924 4.71291 42.2097 4.7156 42.1276C4.71831 42.0955 4.77998 42.0657 4.81485 42.0345C4.84973 42.1142 4.88461 42.1937 4.91952 42.2733Z" fill="#8B5E3C"/>
<path d="M12.3076 42.2733C12.2513 42.3082 12.1923 42.3428 12.1359 42.3777C12.1225 42.2934 12.0957 42.2089 12.1011 42.1255C12.1011 42.0928 12.1654 42.0624 12.2003 42.0311C12.2352 42.1118 12.2728 42.1923 12.3076 42.2733Z" fill="#8B5E3C"/>
<path d="M19.5348 42.0611C19.5911 42.1099 19.6877 42.1612 19.685 42.1979C19.6716 42.2781 19.6099 42.3508 19.567 42.4267C19.5348 42.3911 19.4784 42.3546 19.4784 42.32C19.4811 42.2374 19.5106 42.1558 19.5348 42.0611Z" fill="#8B5E3C"/>
<path d="M27.0758 42.2744C27.0195 42.3082 26.9631 42.3418 26.9068 42.3753C26.8961 42.2932 26.8719 42.2111 26.8746 42.1298C26.8773 42.0979 26.939 42.0684 26.9739 42.0378C27.0087 42.1167 27.0409 42.1955 27.0758 42.2744Z" fill="#8B5E3C"/>
<path d="M34.3271 42.1035C34.3861 42.0563 34.4424 41.975 34.4934 41.9785C34.5552 41.9828 34.6142 42.0568 34.6759 42.1011C34.641 42.1328 34.6034 42.1947 34.5766 42.1904C34.4934 42.1768 34.4156 42.137 34.3271 42.1035Z" fill="#8B5E3C"/>
<path d="M5.99523 40.8365C6.04891 40.8845 6.14545 40.9349 6.14011 40.9714C6.12937 41.0503 6.06764 41.1219 6.02474 41.1962C5.99523 41.1613 5.93891 41.1254 5.93891 41.0913C5.94159 41.01 5.9711 40.9295 5.99523 40.8365Z" fill="#8B5E3C"/>
<path d="M13.5336 43.5251C13.4719 43.5462 13.4102 43.5675 13.3485 43.5886C13.3458 43.5052 13.3378 43.4207 13.3485 43.3386C13.3512 43.3166 13.4102 43.3013 13.4451 43.2828C13.4746 43.3636 13.5041 43.444 13.5336 43.5251Z" fill="#8B5E3C"/>
<path d="M33.4418 43.2922C33.3801 43.3356 33.3211 43.4081 33.2567 43.4124C33.2111 43.4153 33.1574 43.3276 33.1092 43.2801C33.1414 43.2522 33.1816 43.1961 33.2084 43.2018C33.2889 43.2189 33.364 43.26 33.4418 43.2922Z" fill="#8B5E3C"/>
<path d="M19.6904 44.6998C19.6421 44.7516 19.5938 44.8036 19.5455 44.8554C19.516 44.7744 19.4758 44.6953 19.4623 44.6118C19.457 44.5855 19.5241 44.548 19.5563 44.5155C19.6018 44.5767 19.6448 44.6384 19.6904 44.6998Z" fill="#8B5E3C"/>
<path d="M29.6056 44.4221C29.6485 44.471 29.6941 44.5222 29.7397 44.5732C29.6592 44.6016 29.5841 44.6397 29.501 44.6526C29.4768 44.6569 29.4393 44.5935 29.4097 44.5611C29.4688 44.5182 29.5304 44.4755 29.6056 44.4221Z" fill="#8B5E3C"/>
<path d="M34.6732 44.5233C34.6115 44.5665 34.5498 44.6381 34.4854 44.6424C34.4398 44.6456 34.3888 44.5579 34.3379 44.5107C34.3728 44.483 34.413 44.4272 34.4398 44.4329C34.5203 44.45 34.5954 44.4911 34.6732 44.5233Z" fill="#8B5E3C"/>
<path d="M3.53252 45.7605C3.58891 45.8083 3.68277 45.8579 3.6774 45.8941C3.66665 45.9716 3.60496 46.0425 3.56471 46.1157C3.53252 46.0811 3.47888 46.0454 3.47888 46.0119C3.48156 45.9317 3.5111 45.8523 3.53252 45.7605Z" fill="#8B5E3C"/>
<path d="M6.15084 45.9684C6.09451 46.0022 6.03818 46.0358 5.98183 46.0695C5.96843 45.9872 5.94426 45.904 5.94695 45.8228C5.94963 45.7903 6.01133 45.7608 6.04621 45.73C6.08108 45.8094 6.11596 45.8887 6.15084 45.9684Z" fill="#8B5E3C"/>
<path d="M10.9368 45.7493C10.985 45.808 11.0655 45.8649 11.0628 45.9156C11.0575 45.9795 10.985 46.0382 10.9394 46.0991C10.9072 46.0656 10.8455 46.0267 10.8509 45.9993C10.8643 45.917 10.9046 45.8391 10.9368 45.7493Z" fill="#8B5E3C"/>
<path d="M13.3994 45.7485C13.4478 45.8075 13.5282 45.8646 13.5255 45.9153C13.5202 45.9797 13.4451 46.0385 13.4021 46.0999C13.37 46.0661 13.3082 46.0272 13.3109 45.9996C13.3243 45.917 13.3646 45.8386 13.3994 45.7485Z" fill="#8B5E3C"/>
<path d="M18.3651 46.0964C18.3222 46.0342 18.2498 45.9735 18.2444 45.9086C18.2417 45.863 18.3302 45.8109 18.3785 45.7616C18.4053 45.7954 18.4617 45.8351 18.4563 45.8619C18.4375 45.9427 18.3973 46.0186 18.3651 46.0964Z" fill="#8B5E3C"/>
<path d="M20.7849 45.7493C20.8332 45.8083 20.9137 45.8649 20.911 45.9156C20.9056 45.9795 20.8305 46.0379 20.7876 46.0988C20.7554 46.0653 20.6937 46.0267 20.699 45.999C20.7125 45.9169 20.75 45.8391 20.7849 45.7493Z" fill="#8B5E3C"/>
<path d="M25.8445 45.9378C25.7961 45.9875 25.7479 46.0371 25.7023 46.0867C25.6727 46.0076 25.6352 45.9303 25.6218 45.8488C25.6164 45.823 25.6808 45.7863 25.713 45.7546C25.7559 45.8155 25.7988 45.8767 25.8445 45.9378Z" fill="#8B5E3C"/>
<path d="M4.82559 47.3326C4.77997 47.2714 4.70753 47.2113 4.70481 47.1477C4.70219 47.1 4.78803 47.0471 4.83633 46.9967C4.86315 47.0308 4.91951 47.0705 4.9141 47.0976C4.89802 47.1783 4.85778 47.2545 4.82559 47.3326Z" fill="#8B5E3C"/>
<path d="M12.211 47.3355C12.1654 47.2736 12.093 47.2126 12.0876 47.1483C12.0849 47.0994 12.1735 47.0458 12.2217 46.9945C12.2512 47.0289 12.3076 47.0691 12.3022 47.0968C12.2861 47.1789 12.2432 47.2561 12.211 47.3355Z" fill="#8B5E3C"/>
<path d="M19.5347 46.994C19.5911 47.0426 19.6877 47.093 19.6823 47.1301C19.6715 47.2092 19.6072 47.2811 19.5669 47.3557C19.5347 47.3208 19.4784 47.2846 19.4811 47.2505C19.4838 47.1687 19.5133 47.0879 19.5347 46.994Z" fill="#8B5E3C"/>
<path d="M13.5363 48.4384C13.48 48.4722 13.4236 48.5055 13.3673 48.539C13.3539 48.4561 13.3297 48.373 13.3324 48.2909C13.3351 48.2587 13.3968 48.2289 13.4316 48.1983C13.4665 48.2783 13.5014 48.3582 13.5363 48.4384Z" fill="#8B5E3C"/>
<path d="M33.4364 48.4991C33.3882 48.5538 33.3399 48.6493 33.3024 48.6442C33.2246 48.6335 33.1548 48.5715 33.0824 48.5302C33.1145 48.5001 33.1521 48.4443 33.1843 48.4454C33.2648 48.4481 33.3452 48.4776 33.4364 48.4991Z" fill="#8B5E3C"/>
<path d="M3.55131 40.8282C3.59958 40.8869 3.68008 40.9432 3.67471 40.9942C3.67202 41.057 3.5969 41.1152 3.554 41.175C3.52181 41.1418 3.46011 41.1034 3.46545 41.0763C3.47888 40.9947 3.51912 40.9172 3.55131 40.8282Z" fill="#8B5E3C"/>
<path d="M4.76389 49.4554C4.81753 49.504 4.91679 49.5547 4.91142 49.5914C4.90071 49.6706 4.83633 49.743 4.79611 49.8181C4.76389 49.7827 4.70753 49.7468 4.70753 49.7124C4.71022 49.6306 4.74241 49.5493 4.76389 49.4554Z" fill="#8B5E3C"/>
<path d="M12.1681 49.4431C12.2164 49.5039 12.2996 49.5627 12.2969 49.6161C12.2915 49.6799 12.2137 49.7392 12.1681 49.8007C12.1359 49.7666 12.0715 49.7266 12.0769 49.6993C12.093 49.6145 12.1332 49.5348 12.1681 49.4431Z" fill="#8B5E3C"/>
<path d="M19.5348 49.4543C19.5911 49.5032 19.6877 49.5541 19.6823 49.5912C19.6716 49.6714 19.6099 49.7443 19.567 49.82C19.5348 49.7846 19.4784 49.7481 19.4784 49.7135C19.4811 49.6311 19.5106 49.549 19.5348 49.4543Z" fill="#8B5E3C"/>
<path d="M27.0812 49.6464C27.0302 49.6918 26.9819 49.7384 26.9309 49.7854C26.9014 49.7055 26.8639 49.6274 26.8505 49.5453C26.8478 49.5187 26.9121 49.4817 26.9443 49.4495C26.9873 49.5123 27.0302 49.5753 27.0812 49.6464Z" fill="#8B5E3C"/>
<path d="M29.5331 49.8836C29.5009 49.8278 29.4688 49.7723 29.4366 49.7167C29.5171 49.7041 29.5975 49.6808 29.678 49.6845C29.7102 49.6861 29.737 49.7479 29.7692 49.7822C29.6914 49.8163 29.6109 49.8501 29.5331 49.8836Z" fill="#8B5E3C"/>
<path d="M6.15887 50.8791C6.10792 50.9231 6.05693 50.9687 6.00332 51.0143C5.97378 50.9341 5.93622 50.8553 5.92279 50.7726C5.91742 50.7463 5.9818 50.7088 6.01668 50.6766C6.05961 50.7391 6.10523 50.8013 6.15887 50.8791Z" fill="#8B5E3C"/>
<path d="M10.9797 51.0224C10.9368 50.9604 10.8643 50.8998 10.859 50.8351C10.8563 50.7884 10.9448 50.7361 10.9904 50.6862C11.0199 50.7203 11.0762 50.7603 11.0709 50.7868C11.0521 50.8681 11.0119 50.944 10.9797 51.0224Z" fill="#8B5E3C"/>
<path d="M13.3807 50.683C13.4343 50.7315 13.5309 50.7823 13.5282 50.819C13.5175 50.8981 13.4531 50.97 13.4129 51.0449C13.3807 51.0097 13.3243 50.9735 13.3243 50.9392C13.327 50.8576 13.3592 50.7766 13.3807 50.683Z" fill="#8B5E3C"/>
<path d="M18.3222 50.6741C18.3705 50.7337 18.4536 50.7911 18.451 50.8429C18.4456 50.9067 18.3705 50.9655 18.3249 51.0264C18.2927 50.9926 18.231 50.9537 18.2337 50.9261C18.2498 50.8429 18.29 50.7643 18.3222 50.6741Z" fill="#8B5E3C"/>
<path d="M20.919 50.8641C20.8707 50.914 20.8251 50.9641 20.7768 51.0138C20.7473 50.9338 20.7098 50.8555 20.6964 50.7731C20.691 50.7466 20.7554 50.7093 20.7876 50.6771C20.8332 50.7396 20.8761 50.8016 20.919 50.8641Z" fill="#8B5E3C"/>
<path d="M25.8445 50.8625C25.7961 50.9121 25.7479 50.962 25.7023 51.0114C25.6727 50.9322 25.6352 50.8544 25.6218 50.7729C25.6164 50.7468 25.6808 50.7098 25.713 50.6782C25.7559 50.7396 25.8015 50.801 25.8445 50.8625Z" fill="#8B5E3C"/>
<path d="M28.1542 50.686C28.2079 50.7334 28.3018 50.7836 28.2964 50.8198C28.2857 50.8976 28.224 50.9679 28.1837 51.0414C28.1542 51.0068 28.0979 50.9709 28.0979 50.9373C28.1006 50.8571 28.1301 50.7777 28.1542 50.686Z" fill="#8B5E3C"/>
<path d="M7.22657 51.9178C7.28025 51.9653 7.37413 52.015 7.36876 52.0506C7.35802 52.1279 7.29633 52.1979 7.25611 52.2709C7.22657 52.2363 7.17025 52.2009 7.17293 52.1673C7.17562 52.0879 7.20513 52.0093 7.22657 51.9178Z" fill="#8B5E3C"/>
<path d="M12.3076 52.1255C12.2486 52.1598 12.1923 52.1939 12.1359 52.2279C12.1225 52.1445 12.0984 52.0608 12.1011 51.9782C12.1037 51.9457 12.1654 51.9157 12.2003 51.8846C12.2352 51.9648 12.2728 52.045 12.3076 52.1255Z" fill="#8B5E3C"/>
<path d="M14.671 52.2505C14.6281 52.1891 14.5584 52.1298 14.553 52.0659C14.5503 52.0203 14.6362 51.9691 14.6845 51.9202C14.7113 51.9535 14.7649 51.993 14.7596 52.0192C14.7435 52.0989 14.7032 52.1735 14.671 52.2505Z" fill="#8B5E3C"/>
<path d="M19.693 52.1255C19.634 52.1595 19.5777 52.1936 19.5214 52.2274C19.5079 52.1443 19.4838 52.0608 19.4865 51.9785C19.4892 51.946 19.5509 51.9162 19.5858 51.8851C19.6233 51.9653 19.6582 52.0453 19.693 52.1255Z" fill="#8B5E3C"/>
<path d="M26.9202 51.9165C26.9765 51.9645 27.0704 52.0144 27.0651 52.0504C27.0544 52.1282 26.9926 52.199 26.9524 52.2728C26.9229 52.2379 26.8666 52.2019 26.8666 52.1684C26.8692 52.0879 26.8988 52.0085 26.9202 51.9165Z" fill="#8B5E3C"/>
<path d="M10.9368 53.139C10.985 53.1986 11.0655 53.2557 11.0628 53.3075C11.0575 53.37 10.9823 53.4282 10.9394 53.4883C10.9072 53.4547 10.8455 53.4159 10.8509 53.3888C10.8643 53.3064 10.9046 53.2286 10.9368 53.139Z" fill="#8B5E3C"/>
<path d="M13.4424 53.4872C13.3968 53.4255 13.3243 53.3657 13.3216 53.3016C13.319 53.2541 13.4048 53.201 13.4531 53.1508C13.4799 53.1846 13.5363 53.2243 13.5309 53.2514C13.5148 53.3327 13.4746 53.4089 13.4424 53.4872Z" fill="#8B5E3C"/>
<path d="M18.459 53.3595C18.4027 53.3928 18.3464 53.426 18.29 53.4593C18.2793 53.3775 18.2551 53.2949 18.2578 53.2136C18.2605 53.1817 18.3222 53.1524 18.3571 53.1221C18.3919 53.201 18.4241 53.2801 18.459 53.3595Z" fill="#8B5E3C"/>
<path d="M19.6904 39.8135C19.634 39.8476 19.5777 39.8814 19.5214 39.9152C19.5079 39.8326 19.4838 39.7497 19.4865 39.6676C19.4892 39.6354 19.5536 39.6059 19.5858 39.5751C19.6206 39.6542 19.6555 39.7339 19.6904 39.8135Z" fill="#8B5E3C"/>
<path d="M33.0985 53.4864C33.1574 53.4395 33.2138 53.359 33.2621 53.3627C33.3265 53.367 33.3828 53.4408 33.4418 53.4848C33.4096 53.5162 33.3721 53.5779 33.3452 53.5731C33.2621 53.5591 33.187 53.5197 33.0985 53.4864Z" fill="#8B5E3C"/>
<path d="M29.7478 54.6778C29.686 54.721 29.627 54.7921 29.5626 54.7964C29.5171 54.7994 29.4661 54.7122 29.4152 54.6652C29.45 54.6379 29.4902 54.5823 29.5144 54.5879C29.5948 54.6051 29.67 54.6456 29.7478 54.6778Z" fill="#8B5E3C"/>
<path d="M34.6732 54.6776C34.6115 54.721 34.5498 54.7924 34.4854 54.7969C34.4398 54.7999 34.3888 54.7119 34.3379 54.6649C34.3728 54.637 34.413 54.5812 34.4398 54.5871C34.5203 54.6043 34.5954 54.6451 34.6732 54.6776Z" fill="#8B5E3C"/>
<path d="M12.3023 39.783C12.2566 39.8337 12.2084 39.8846 12.1601 39.9351C12.1306 39.8546 12.0903 39.7757 12.0769 39.6926C12.0742 39.666 12.1386 39.6287 12.1708 39.5963C12.2164 39.6585 12.2593 39.7205 12.3023 39.783Z" fill="#8B5E3C"/>
<path d="M23.5964 55.9057C23.5374 55.9526 23.4783 56.0331 23.4274 56.0296C23.3657 56.0256 23.3067 55.9507 23.2476 55.9065C23.2798 55.8748 23.32 55.8126 23.3469 55.8171C23.4301 55.8314 23.5079 55.8719 23.5964 55.9057Z" fill="#8B5E3C"/>
<path d="M26.0564 55.9054C25.9974 55.9528 25.9383 56.0347 25.8847 56.0312C25.823 56.0277 25.764 55.9507 25.705 55.9054C25.7371 55.8729 25.7774 55.8088 25.8042 55.8139C25.8874 55.8289 25.9679 55.8702 26.0564 55.9054Z" fill="#8B5E3C"/>
<path d="M30.9872 55.9046C30.9281 55.9521 30.8718 56.0339 30.8208 56.0302C30.7564 56.0256 30.6974 55.9513 30.6357 55.9073C30.6706 55.8756 30.7082 55.8134 30.7376 55.8179C30.8182 55.8313 30.8959 55.8713 30.9872 55.9046Z" fill="#8B5E3C"/>
<path d="M33.4445 55.9081C33.3828 55.9521 33.3211 56.0253 33.2567 56.0294C33.2084 56.0326 33.1574 55.9438 33.1065 55.896C33.1414 55.8679 33.1816 55.8112 33.2084 55.8166C33.289 55.8341 33.3668 55.8756 33.4445 55.9081Z" fill="#8B5E3C"/>
<path d="M24.6641 57.0475C24.7151 57.0944 24.7633 57.1416 24.8143 57.1888C24.7365 57.2175 24.6587 57.2564 24.5755 57.2698C24.5487 57.2739 24.5139 57.2103 24.4817 57.1776C24.5407 57.1344 24.6024 57.0909 24.6641 57.0475Z" fill="#8B5E3C"/>
<path d="M29.5922 57.0472C29.6405 57.0946 29.6914 57.1418 29.7398 57.1893C29.662 57.2178 29.5841 57.2567 29.501 57.2698C29.4741 57.2739 29.4366 57.21 29.407 57.1776C29.4688 57.1341 29.5304 57.0906 29.5922 57.0472Z" fill="#8B5E3C"/>
<path d="M32.0682 57.0399C32.1139 57.0892 32.1595 57.1394 32.2051 57.1899C32.1273 57.2183 32.0495 57.2567 31.9663 57.2695C31.9395 57.2736 31.9019 57.2097 31.8698 57.1767C31.9341 57.1332 31.9959 57.0895 32.0682 57.0399Z" fill="#8B5E3C"/>
<path d="M34.6651 57.116C34.6196 57.171 34.5686 57.2668 34.531 57.2617C34.4532 57.251 34.3808 57.1888 34.3084 57.1472C34.3432 57.1169 34.3781 57.0603 34.413 57.0616C34.4934 57.0643 34.574 57.0941 34.6651 57.116Z" fill="#8B5E3C"/>
<path d="M33.0985 58.4103C33.1574 58.3636 33.2138 58.2831 33.2621 58.2866C33.3265 58.2909 33.3828 58.3652 33.4418 58.4089C33.4096 58.4403 33.3721 58.5017 33.3452 58.4974C33.2621 58.4835 33.187 58.4438 33.0985 58.4103Z" fill="#8B5E3C"/>
<path d="M12.3076 59.4948C12.2593 59.541 12.2083 59.5882 12.1574 59.6354C12.1305 59.555 12.093 59.4764 12.0796 59.3935C12.0742 59.3669 12.1386 59.3296 12.1735 59.2974C12.2164 59.3607 12.2593 59.4243 12.3076 59.4948Z" fill="#8B5E3C"/>
<path d="M19.693 59.4951C19.6447 59.541 19.5937 59.5879 19.5455 59.6352C19.516 59.5549 19.4784 59.4761 19.465 59.3934C19.4623 59.3669 19.524 59.3296 19.5589 59.2974C19.6018 59.3607 19.6447 59.424 19.693 59.4951Z" fill="#8B5E3C"/>
<path d="M33.4364 60.8096C33.3882 60.8641 33.3372 60.9591 33.3024 60.9542C33.2246 60.9435 33.1548 60.881 33.0796 60.8399C33.1145 60.8102 33.1494 60.7541 33.1843 60.7555C33.2648 60.7579 33.3452 60.7879 33.4364 60.8096Z" fill="#8B5E3C"/>
<path d="M4.7639 39.6038C4.82023 39.6521 4.91411 39.7025 4.90874 39.7387C4.89803 39.8173 4.83634 39.8887 4.79341 39.9633C4.7639 39.9281 4.70754 39.8922 4.71023 39.8578C4.71291 39.7768 4.74242 39.6968 4.7639 39.6038Z" fill="#8B5E3C"/>
<path d="M24.817 62.0407C24.7687 62.0957 24.7177 62.191 24.6829 62.1861C24.6024 62.1757 24.5326 62.1132 24.4575 62.0721C24.4924 62.0418 24.5272 61.9855 24.5621 61.9865C24.6426 61.9889 24.7231 62.019 24.817 62.0407Z" fill="#8B5E3C"/>
<path d="M32.0012 62.1963C31.9663 62.14 31.9315 62.0837 31.8993 62.0273C31.9825 62.0142 32.0629 61.99 32.1461 61.9935C32.1783 61.9948 32.2078 62.0576 32.24 62.0922C32.1596 62.1271 32.079 62.1617 32.0012 62.1963Z" fill="#8B5E3C"/>
<path d="M34.4559 62.1969C34.4237 62.1403 34.3888 62.0836 34.354 62.027C34.4371 62.0141 34.5203 61.99 34.6034 61.9938C34.6356 61.9954 34.6651 62.0579 34.6974 62.0928C34.6168 62.1277 34.5364 62.1622 34.4559 62.1969Z" fill="#8B5E3C"/>
<path d="M23.5883 63.271C23.54 63.3265 23.489 63.4234 23.4515 63.4183C23.3737 63.4075 23.3013 63.3448 23.2261 63.3032C23.261 63.2723 23.2959 63.2152 23.3308 63.2163C23.4139 63.219 23.4944 63.2493 23.5883 63.271Z" fill="#8B5E3C"/>
<path d="M25.831 63.4322C25.7962 63.3735 25.7613 63.315 25.7264 63.2562C25.8123 63.2426 25.8981 63.2179 25.9813 63.2216C26.0135 63.223 26.0457 63.2879 26.0752 63.3241C25.9947 63.3603 25.9115 63.3963 25.831 63.4322Z" fill="#8B5E3C"/>
<path d="M30.7699 63.4288C30.735 63.3719 30.7001 63.3147 30.6652 63.2576C30.7484 63.2442 30.8342 63.2198 30.9147 63.223C30.9496 63.2243 30.9791 63.2879 31.0086 63.323C30.9308 63.3584 30.8503 63.3939 30.7699 63.4288Z" fill="#8B5E3C"/>
<path d="M33.4499 63.293C33.3855 63.3383 33.3238 63.4137 33.2594 63.4174C33.2111 63.4207 33.1574 63.3303 33.1038 63.2817C33.1387 63.2525 33.1789 63.1942 33.2084 63.2001C33.2916 63.2176 33.3694 63.26 33.4499 63.293Z" fill="#8B5E3C"/>
<path d="M24.825 64.5254C24.7607 64.5689 24.7016 64.6405 24.6346 64.6453C24.5889 64.6483 24.538 64.5597 24.4897 64.5125C24.5219 64.4846 24.5621 64.4286 24.5889 64.4342C24.6694 64.4516 24.7473 64.4929 24.825 64.5254Z" fill="#8B5E3C"/>
<path d="M29.4017 64.567C29.4608 64.5195 29.5171 64.438 29.568 64.4417C29.6324 64.446 29.6914 64.5206 29.7504 64.5646C29.7183 64.5962 29.6807 64.6585 29.6512 64.6542C29.5707 64.6402 29.4929 64.6005 29.4017 64.567Z" fill="#8B5E3C"/>
<path d="M32.0682 64.4254C32.1139 64.4747 32.1595 64.5254 32.2078 64.5761C32.1273 64.6045 32.0495 64.6432 31.9663 64.6558C31.9395 64.6596 31.9019 64.5957 31.8698 64.563C31.9341 64.5195 31.9959 64.476 32.0682 64.4254Z" fill="#8B5E3C"/>
<path d="M34.4559 64.6582C34.421 64.6019 34.3888 64.5456 34.354 64.4892C34.4371 64.4763 34.5203 64.4524 34.6034 64.4562C34.6356 64.4573 34.6651 64.5201 34.6946 64.5549C34.6142 64.5893 34.5364 64.6239 34.4559 64.6582Z" fill="#8B5E3C"/>
<path d="M33.2272 65.8874C33.195 65.8316 33.1602 65.7761 33.128 65.7205C33.2084 65.7082 33.2916 65.6846 33.3721 65.6881C33.4016 65.6894 33.4311 65.7514 33.4633 65.7857C33.3828 65.8198 33.305 65.8536 33.2272 65.8874Z" fill="#8B5E3C"/>
<path d="M11.0709 41.0666C11.0092 41.0884 10.9502 41.1095 10.8885 41.131C10.8858 41.0489 10.8777 40.9658 10.8858 40.885C10.8885 40.8627 10.9475 40.8469 10.9797 40.8281C11.0119 40.9075 11.0414 40.987 11.0709 41.0666Z" fill="#8B5E3C"/>
<path d="M33.2272 68.3501C33.1923 68.2943 33.1602 68.2385 33.128 68.1827C33.2084 68.1701 33.2916 68.1465 33.3721 68.15C33.4043 68.1516 33.4311 68.2136 33.4633 68.2479C33.3828 68.282 33.305 68.316 33.2272 68.3501Z" fill="#8B5E3C"/>
<path d="M33.0958 38.41C33.1548 38.3628 33.2111 38.282 33.2621 38.2855C33.3265 38.2898 33.3828 38.3641 33.4445 38.4081C33.4096 38.4397 33.3721 38.502 33.3452 38.4974C33.2648 38.4835 33.187 38.4435 33.0958 38.41Z" fill="#8B5E3C"/>
<path d="M34.5149 69.3567C34.5658 69.4044 34.6142 69.4522 34.6651 69.4994C34.5846 69.5289 34.5069 69.5678 34.4236 69.5815C34.3969 69.5858 34.3593 69.5211 34.3271 69.4878C34.3888 69.4441 34.4532 69.4004 34.5149 69.3567Z" fill="#8B5E3C"/>
<path d="M34.5149 37.0445C34.5658 37.092 34.6142 37.1392 34.6651 37.1867C34.5846 37.2159 34.5069 37.2546 34.4236 37.268C34.3969 37.2723 34.3593 37.2079 34.3271 37.1752C34.3915 37.1314 34.4532 37.088 34.5149 37.0445Z" fill="#8B5E3C"/>
<path d="M31.8671 37.1776C31.9261 37.1303 31.9851 37.0496 32.0361 37.053C32.1005 37.0571 32.1568 37.1325 32.2186 37.177C32.1837 37.2087 32.1461 37.2717 32.1193 37.2669C32.0361 37.2524 31.9584 37.2119 31.8671 37.1776Z" fill="#8B5E3C"/>
<path d="M29.4017 37.1783C29.4608 37.1308 29.5171 37.0493 29.568 37.0531C29.6324 37.0576 29.6914 37.1319 29.7531 37.1762C29.7183 37.2079 29.6807 37.2703 29.6512 37.2658C29.5707 37.2518 29.4929 37.2118 29.4017 37.1783Z" fill="#8B5E3C"/>
<path d="M24.4763 37.1789C24.5353 37.1312 24.5916 37.0491 24.6426 37.0528C24.707 37.0574 24.766 37.1317 24.8277 37.1759C24.7928 37.2076 24.7553 37.2704 24.7258 37.2655C24.6453 37.2521 24.5675 37.2122 24.4763 37.1789Z" fill="#8B5E3C"/>
<path d="M2.36287 37.1365C2.30117 37.18 2.24216 37.2521 2.17778 37.2559C2.13217 37.2588 2.07852 37.1719 2.03019 37.1252C2.06241 37.0973 2.10269 37.0415 2.12948 37.0471C2.20997 37.0638 2.28509 37.1046 2.36287 37.1365Z" fill="#8B5E3C"/>
<path d="M33.4472 35.9051C33.3828 35.9497 33.3238 36.0237 33.2567 36.028C33.2084 36.0312 33.1548 35.9416 33.1038 35.8931C33.1387 35.8643 33.1789 35.8072 33.2084 35.8129C33.289 35.8303 33.3668 35.8722 33.4472 35.9051Z" fill="#8B5E3C"/>
<path d="M30.9845 35.9051C30.9228 35.9491 30.861 36.0224 30.7967 36.0264C30.7484 36.0293 30.6974 35.9413 30.6465 35.8939C30.6814 35.8654 30.7189 35.8088 30.7484 35.8147C30.8289 35.8316 30.9067 35.8729 30.9845 35.9051Z" fill="#8B5E3C"/>
<path d="M19.5321 14.6835C19.5911 14.7329 19.6877 14.7838 19.6823 14.8214C19.6743 14.9013 19.6099 14.9748 19.567 15.051C19.5348 15.0153 19.4784 14.9789 19.4784 14.9445C19.4811 14.8614 19.5106 14.779 19.5321 14.6835Z" fill="#8B5E3C"/>
<path d="M33.4364 13.7257C33.3882 13.7805 33.3372 13.876 33.3024 13.8709C33.2246 13.8602 33.1521 13.7979 33.0796 13.7566C33.1145 13.7263 33.1494 13.6702 33.1843 13.6713C33.2648 13.674 33.3425 13.704 33.4364 13.7257Z" fill="#8B5E3C"/>
<path d="M29.7478 19.9035C29.686 19.9464 29.627 20.0172 29.5627 20.0215C29.5171 20.0245 29.4661 19.9375 29.4178 19.8908C29.45 19.8635 29.4902 19.8082 29.5144 19.8139C29.5948 19.8308 29.67 19.8715 29.7478 19.9035Z" fill="#8B5E3C"/>
<path d="M24.8277 27.2862C24.7687 27.3331 24.7124 27.4134 24.6614 27.4099C24.597 27.4059 24.538 27.3313 24.479 27.2873C24.5139 27.2559 24.5514 27.1937 24.5782 27.1985C24.6614 27.2124 24.7392 27.2524 24.8277 27.2862Z" fill="#8B5E3C"/>
<path d="M34.3218 29.7937C34.3834 29.7452 34.4398 29.662 34.4934 29.6655C34.5578 29.6703 34.6168 29.746 34.6786 29.7908C34.6437 29.823 34.6061 29.8862 34.5766 29.882C34.4934 29.868 34.4156 29.8275 34.3218 29.7937Z" fill="#8B5E3C"/>
<path d="M32.2104 29.7277C32.1622 29.7835 32.1112 29.8812 32.0764 29.8761C31.9959 29.8648 31.9234 29.8015 31.8483 29.7594C31.8832 29.7285 31.9208 29.6716 31.9556 29.6724C32.0361 29.6754 32.1166 29.7057 32.2104 29.7277Z" fill="#8B5E3C"/>
<path d="M33.4392 33.4451C33.3801 33.488 33.3211 33.5591 33.2567 33.5631C33.2111 33.5663 33.1602 33.4797 33.1092 33.433C33.144 33.4054 33.1816 33.3501 33.2084 33.3558C33.2889 33.3727 33.364 33.4132 33.4392 33.4451Z" fill="#8B5E3C"/>
<path d="M34.3218 22.408C34.3808 22.3594 34.4398 22.2763 34.4908 22.2798C34.5552 22.2843 34.6168 22.36 34.6786 22.405C34.6437 22.4372 34.6061 22.5006 34.5766 22.496C34.4934 22.4823 34.413 22.4418 34.3218 22.408Z" fill="#8B5E3C"/>
<path d="M32.2158 22.3645C32.1542 22.4088 32.0952 22.4828 32.028 22.4866C31.9824 22.4893 31.9288 22.401 31.8778 22.3535C31.9127 22.3251 31.953 22.2682 31.9798 22.2738C32.0602 22.2907 32.138 22.3321 32.2158 22.3645Z" fill="#8B5E3C"/>
<path d="M29.5922 61.9718C29.6405 62.019 29.6914 62.0659 29.7398 62.1132C29.662 62.1421 29.5841 62.1805 29.501 62.1936C29.4741 62.1979 29.4366 62.1341 29.407 62.1014C29.4688 62.0582 29.5304 62.015 29.5922 61.9718Z" fill="#8B5E3C"/>
<path d="M13.429 26.006L13.4692 26.1101L13.37 26.0988L13.429 26.006Z" fill="#8B5E3C"/>
<path d="M15.8917 26.0125L15.9293 26.1085L15.8354 26.0967L15.8917 26.0125Z" fill="#8B5E3C"/>
<path d="M18.2766 26.0683L18.3785 26.0291L18.3678 26.1281L18.2766 26.0683Z" fill="#8B5E3C"/>
<path d="M20.8761 26.0849L20.7742 26.1238L20.7876 26.0256L20.8761 26.0849Z" fill="#8B5E3C"/>
<path d="M23.2074 26.0683L23.3013 26.0339L23.2905 26.1238L23.2074 26.0683Z" fill="#8B5E3C"/>
<path d="M25.6647 26.068L25.7667 26.0313L25.7533 26.126L25.6647 26.068Z" fill="#8B5E3C"/>
<path d="M28.1864 26.1434L28.1489 26.0447L28.2428 26.0562L28.1864 26.1434Z" fill="#8B5E3C"/>
<path d="M30.8959 26.0683L30.9925 26.0328L30.9818 26.1243L30.8959 26.0683Z" fill="#8B5E3C"/>
<path d="M33.4874 26.0854L33.3909 26.1203L33.4016 26.0294L33.4874 26.0854Z" fill="#8B5E3C"/>
<path d="M4.87924 27.3162L4.77193 27.3578L4.78264 27.2543L4.87924 27.3162Z" fill="#8B5E3C"/>
<path d="M7.27486 27.2392L7.31245 27.3409L7.21585 27.3294L7.27486 27.2392Z" fill="#8B5E3C"/>
<path d="M9.79663 27.3168L9.69469 27.3541L9.70808 27.2583L9.79663 27.3168Z" fill="#8B5E3C"/>
<path d="M12.1842 27.386L12.1386 27.2733L12.2486 27.2843L12.1842 27.386Z" fill="#8B5E3C"/>
<path d="M14.722 27.3165L14.6201 27.3554L14.6308 27.2572L14.722 27.3165Z" fill="#8B5E3C"/>
<path d="M17.123 27.2403L17.1633 27.3409L17.0667 27.3291L17.123 27.2403Z" fill="#8B5E3C"/>
<path d="M19.5696 27.3847L19.5267 27.2736L19.6313 27.2846L19.5696 27.3847Z" fill="#8B5E3C"/>
<path d="M22.0484 27.2411L22.086 27.3406L21.9894 27.3288L22.0484 27.2411Z" fill="#8B5E3C"/>
<path d="M26.9712 27.2385L27.0114 27.3412L26.9122 27.3297L26.9712 27.2385Z" fill="#8B5E3C"/>
<path d="M3.56471 28.6155L3.52181 28.5044L3.62913 28.5154L3.56471 28.6155Z" fill="#8B5E3C"/>
<path d="M6.04085 28.4521C6.06764 28.4827 6.09449 28.5133 6.12131 28.5438C6.06499 28.5387 6.00597 28.5336 5.94962 28.5283C5.98181 28.5031 6.01131 28.4776 6.04085 28.4521Z" fill="#8B5E3C"/>
<path d="M10.9502 28.62C10.926 28.5905 10.8778 28.5583 10.8831 28.5326C10.8858 28.5044 10.9368 28.4604 10.9636 28.4636C10.9931 28.4671 11.0145 28.517 11.0387 28.5468C11.0092 28.5712 10.9797 28.5956 10.9502 28.62Z" fill="#8B5E3C"/>
<path d="M13.5068 28.5495C13.4746 28.5753 13.4424 28.6233 13.4156 28.6201C13.3861 28.6168 13.3405 28.5624 13.3432 28.535C13.3458 28.5058 13.3995 28.4819 13.429 28.4556C13.4558 28.487 13.48 28.5184 13.5068 28.5495Z" fill="#8B5E3C"/>
<path d="M15.8756 28.6104L15.8354 28.5057L15.9373 28.5173L15.8756 28.6104Z" fill="#8B5E3C"/>
<path d="M18.3356 28.6192C18.3115 28.59 18.2873 28.561 18.2631 28.5318C18.2927 28.5076 18.3249 28.4612 18.3517 28.4644C18.3785 28.4679 18.4027 28.5173 18.4268 28.5468C18.3973 28.5707 18.3678 28.5951 18.3356 28.6192Z" fill="#8B5E3C"/>
<path d="M20.8895 28.5498C20.86 28.5744 20.8278 28.6208 20.8009 28.6174C20.7715 28.6139 20.7286 28.5613 20.7313 28.535C20.7339 28.5065 20.7849 28.484 20.8144 28.4588C20.8385 28.4891 20.8654 28.5194 20.8895 28.5498Z" fill="#8B5E3C"/>
<path d="M28.1194 28.531L28.2294 28.4886L28.2186 28.5938L28.1194 28.531Z" fill="#8B5E3C"/>
<path d="M4.79338 29.8514C4.76924 29.8219 4.7236 29.7894 4.72631 29.7634C4.73168 29.7352 4.78261 29.6907 4.80946 29.6939C4.83897 29.6971 4.86041 29.7478 4.88727 29.7776C4.85508 29.8023 4.82557 29.827 4.79338 29.8514Z" fill="#8B5E3C"/>
<path d="M7.2722 29.6961L7.31514 29.8039L7.21054 29.7926L7.2722 29.6961Z" fill="#8B5E3C"/>
<path d="M9.73757 29.6979L9.77782 29.8036L9.67587 29.7921L9.73757 29.6979Z" fill="#8B5E3C"/>
<path d="M12.1976 29.6805C12.2244 29.7119 12.2513 29.7433 12.2781 29.7746C12.2191 29.7698 12.1628 29.7647 12.1037 29.7602C12.1359 29.7333 12.1654 29.7068 12.1976 29.6805Z" fill="#8B5E3C"/>
<path d="M14.6442 29.8441L14.6013 29.736L14.7086 29.7473L14.6442 29.8441Z" fill="#8B5E3C"/>
<path d="M17.1069 29.8426L17.0667 29.7366L17.1686 29.7481L17.1069 29.8426Z" fill="#8B5E3C"/>
<path d="M19.567 29.8554C19.5401 29.8248 19.4918 29.7913 19.4945 29.7634C19.4972 29.7341 19.5536 29.6872 19.5804 29.6901C19.6099 29.6934 19.634 29.7462 19.6609 29.7773C19.6287 29.8033 19.5992 29.8294 19.567 29.8554Z" fill="#8B5E3C"/>
<path d="M21.9653 29.7618L22.0753 29.7213L22.0619 29.8229L21.9653 29.7618Z" fill="#8B5E3C"/>
<path d="M26.8853 29.7621L26.998 29.7189L26.9873 29.8257L26.8853 29.7621Z" fill="#8B5E3C"/>
<path d="M3.58082 30.9312L3.62107 31.0339L3.52181 31.0224L3.58082 30.9312Z" fill="#8B5E3C"/>
<path d="M6.04354 30.9269L6.08644 31.0345L5.98182 31.0235L6.04354 30.9269Z" fill="#8B5E3C"/>
<path d="M8.50623 30.9347L8.5438 31.0331L8.44722 31.0213L8.50623 30.9347Z" fill="#8B5E3C"/>
<path d="M10.9529 31.0726L10.9126 30.9677L11.0119 30.9789L10.9529 31.0726Z" fill="#8B5E3C"/>
<path d="M13.429 30.9263L13.4719 31.035L13.3673 31.0237L13.429 30.9263Z" fill="#8B5E3C"/>
<path d="M15.8917 30.9347L15.9293 31.0334L15.8354 31.0216L15.8917 30.9347Z" fill="#8B5E3C"/>
<path d="M18.3383 31.0731L18.298 30.9674L18.4 30.9786L18.3383 31.0731Z" fill="#8B5E3C"/>
<path d="M20.7339 30.9929L20.8412 30.9521L20.8305 31.054L20.7339 30.9929Z" fill="#8B5E3C"/>
<path d="M23.2637 31.0664L23.2261 30.969L23.32 30.9811L23.2637 31.0664Z" fill="#8B5E3C"/>
<path d="M25.8042 31.0092L25.6996 31.0476L25.7103 30.9505L25.8042 31.0092Z" fill="#8B5E3C"/>
<path d="M28.1247 30.9923L28.2267 30.955L28.2159 31.0511L28.1247 30.9923Z" fill="#8B5E3C"/>
<path d="M31.0274 31.0098L30.9281 31.0457L30.9416 30.9524L31.0274 31.0098Z" fill="#8B5E3C"/>
<path d="M2.27972 32.2237L2.37361 32.1891L2.36287 32.2792L2.27972 32.2237Z" fill="#8B5E3C"/>
<path d="M4.79611 32.3023L4.75852 32.2001L4.85509 32.2113L4.79611 32.3023Z" fill="#8B5E3C"/>
<path d="M7.25879 32.298L7.22122 32.2009L7.31515 32.2124L7.25879 32.298Z" fill="#8B5E3C"/>
<path d="M9.79394 32.2411L9.69737 32.2765L9.70807 32.1845L9.79394 32.2411Z" fill="#8B5E3C"/>
<path d="M12.1842 32.3069L12.1413 32.1993L12.2432 32.21L12.1842 32.3069Z" fill="#8B5E3C"/>
<path d="M14.5879 32.2243L14.6845 32.188L14.6737 32.2811L14.5879 32.2243Z" fill="#8B5E3C"/>
<path d="M17.123 32.1676L17.1606 32.2647L17.0667 32.2529L17.123 32.1676Z" fill="#8B5E3C"/>
<path d="M19.6474 32.2409L19.5428 32.2816L19.5536 32.1797L19.6474 32.2409Z" fill="#8B5E3C"/>
<path d="M22.0484 32.1679L22.0833 32.2648L21.9921 32.2527L22.0484 32.1679Z" fill="#8B5E3C"/>
<path d="M24.4924 32.2966L24.4575 32.2012L24.5487 32.2129L24.4924 32.2966Z" fill="#8B5E3C"/>
<path d="M26.9551 32.2999L26.9175 32.2001L27.0114 32.2113L26.9551 32.2999Z" fill="#8B5E3C"/>
<path d="M32.1273 32.224L32.2239 32.1882L32.2132 32.2803L32.1273 32.224Z" fill="#8B5E3C"/>
<path d="M34.4156 32.2409L34.319 32.276L34.3298 32.1851L34.4156 32.2409Z" fill="#8B5E3C"/>
<path d="M3.56472 33.5315L3.52719 33.4317L3.62376 33.4432L3.56472 33.5315Z" fill="#8B5E3C"/>
<path d="M6.04354 33.3939L6.08375 33.4977L5.98449 33.4862L6.04354 33.3939Z" fill="#8B5E3C"/>
<path d="M8.48748 33.528L8.4526 33.4322L8.54381 33.4438L8.48748 33.528Z" fill="#8B5E3C"/>
<path d="M11.028 33.4725L10.9287 33.5111L10.9395 33.4137L11.028 33.4725Z" fill="#8B5E3C"/>
<path d="M13.4129 33.5353L13.3753 33.4315L13.4719 33.4427L13.4129 33.5353Z" fill="#8B5E3C"/>
<path d="M15.8193 33.455L15.9158 33.4196L15.9051 33.5111L15.8193 33.455Z" fill="#8B5E3C"/>
<path d="M18.3544 33.395L18.3919 33.4971L18.2954 33.4856L18.3544 33.395Z" fill="#8B5E3C"/>
<path d="M20.8171 33.3947L20.8547 33.4971L20.7581 33.4856L20.8171 33.3947Z" fill="#8B5E3C"/>
<path d="M23.2798 33.4006L23.3147 33.495L23.2235 33.4832L23.2798 33.4006Z" fill="#8B5E3C"/>
<path d="M25.7238 33.5318L25.6862 33.4317L25.7828 33.4432L25.7238 33.5318Z" fill="#8B5E3C"/>
<path d="M28.1864 33.5299L28.1489 33.432L28.2428 33.4435L28.1864 33.5299Z" fill="#8B5E3C"/>
<path d="M30.8986 33.4551L30.9925 33.4202L30.9818 33.5106L30.8986 33.4551Z" fill="#8B5E3C"/>
<path d="M2.27435 34.6861L2.3736 34.6494L2.36286 34.7433L2.27435 34.6861Z" fill="#8B5E3C"/>
<path d="M4.7317 34.6872L4.83898 34.6451L4.82827 34.7492L4.7317 34.6872Z" fill="#8B5E3C"/>
<path d="M7.25877 34.7634L7.21852 34.662L7.31781 34.6736L7.25877 34.7634Z" fill="#8B5E3C"/>
<path d="M9.73759 34.626L9.77515 34.7272L9.67858 34.7156L9.73759 34.626Z" fill="#8B5E3C"/>
<path d="M12.1842 34.7736L12.1386 34.6604L12.2459 34.6711L12.1842 34.7736Z" fill="#8B5E3C"/>
<path d="M14.6603 34.6255L14.6979 34.7274L14.6013 34.7159L14.6603 34.6255Z" fill="#8B5E3C"/>
<path d="M17.123 34.6255L17.1633 34.7277L17.064 34.7159L17.123 34.6255Z" fill="#8B5E3C"/>
<path d="M19.5858 34.6169L19.6287 34.7304L19.5214 34.7194L19.5858 34.6169Z" fill="#8B5E3C"/>
<path d="M22.0324 34.7632L21.9921 34.6623L22.0914 34.6738L22.0324 34.7632Z" fill="#8B5E3C"/>
<path d="M24.4951 34.7605L24.4575 34.6625L24.5514 34.6743L24.4951 34.7605Z" fill="#8B5E3C"/>
<path d="M26.9551 34.7658L26.9148 34.6617L27.0141 34.673L26.9551 34.7658Z" fill="#8B5E3C"/>
<path d="M3.56471 36.0004L3.52181 35.8907L3.62913 35.9017L3.56471 36.0004Z" fill="#8B5E3C"/>
<path d="M6.04355 35.8405C6.06765 35.87 6.09182 35.8998 6.11864 35.9299C6.06232 35.9245 6.00865 35.9197 5.95232 35.9143C5.98182 35.8896 6.01401 35.8649 6.04355 35.8405Z" fill="#8B5E3C"/>
<path d="M8.48747 35.9942L8.44722 35.8918L8.54917 35.9032L8.48747 35.9942Z" fill="#8B5E3C"/>
<path d="M10.969 35.8472L11.0119 35.9599L10.9046 35.9491L10.969 35.8472Z" fill="#8B5E3C"/>
<path d="M13.429 35.8402C13.4531 35.8703 13.4799 35.9 13.5041 35.9301C13.4504 35.925 13.3941 35.9199 13.3404 35.9148C13.37 35.8898 13.3994 35.8649 13.429 35.8402Z" fill="#8B5E3C"/>
<path d="M15.8139 35.9164L15.9185 35.8778L15.9051 35.9759L15.8139 35.9164Z" fill="#8B5E3C"/>
<path d="M18.3544 35.8469L18.4 35.9601L18.29 35.9491L18.3544 35.8469Z" fill="#8B5E3C"/>
<path d="M20.801 36.0041L20.7554 35.8898L20.8654 35.9005L20.801 36.0041Z" fill="#8B5E3C"/>
<path d="M22.1021 12.544L22.0082 12.5794L22.0189 12.4877L22.1021 12.544Z" fill="#8B5E3C"/>
<path d="M4.88193 37.1633L4.77193 37.207L4.78264 37.1L4.88193 37.1633Z" fill="#8B5E3C"/>
<path d="M7.27486 37.0837L7.31514 37.1891L7.21319 37.1776L7.27486 37.0837Z" fill="#8B5E3C"/>
<path d="M9.79932 37.1639L9.69469 37.203L9.7054 37.1046L9.79932 37.1639Z" fill="#8B5E3C"/>
<path d="M12.2727 37.1663C12.2432 37.1912 12.211 37.2382 12.1842 37.2347C12.1547 37.2312 12.1118 37.1784 12.1144 37.1515C12.1171 37.1231 12.1681 37.1 12.1976 37.0746C12.2244 37.1049 12.2486 37.1357 12.2727 37.1663Z" fill="#8B5E3C"/>
<path d="M14.6603 37.0839L14.7006 37.1891L14.6013 37.1778L14.6603 37.0839Z" fill="#8B5E3C"/>
<path d="M17.0452 37.1475L17.1499 37.1086L17.1365 37.2068L17.0452 37.1475Z" fill="#8B5E3C"/>
<path d="M19.6609 37.1631C19.6313 37.1877 19.6018 37.2124 19.5723 37.2371C19.5777 37.1832 19.5831 37.129 19.5884 37.0748C19.6126 37.1043 19.6367 37.1338 19.6609 37.1631Z" fill="#8B5E3C"/>
<path d="M22.0484 37.0863L22.0887 37.1888L21.9894 37.1773L22.0484 37.0863Z" fill="#8B5E3C"/>
<path d="M26.9712 37.0826L27.0141 37.1896L26.9095 37.1783L26.9712 37.0826Z" fill="#8B5E3C"/>
<path d="M25.8042 3.6214L25.6996 3.66083L25.7103 3.56239L25.8042 3.6214Z" fill="#8B5E3C"/>
<path d="M3.58081 38.3185L3.62106 38.4207L3.52449 38.4089L3.58081 38.3185Z" fill="#8B5E3C"/>
<path d="M6.02744 38.4604L5.98719 38.3547L6.08914 38.3657L6.02744 38.4604Z" fill="#8B5E3C"/>
<path d="M8.43111 38.3791L8.52765 38.3432L8.51698 38.4352L8.43111 38.3791Z" fill="#8B5E3C"/>
<path d="M11.0306 38.396L10.926 38.4354L10.9394 38.3362L11.0306 38.396Z" fill="#8B5E3C"/>
<path d="M13.429 38.3156L13.4692 38.4218L13.37 38.4105L13.429 38.3156Z" fill="#8B5E3C"/>
<path d="M15.8193 38.3791L15.9158 38.3426L15.9051 38.436L15.8193 38.3791Z" fill="#8B5E3C"/>
<path d="M18.3383 38.4588L18.298 38.355L18.3973 38.3663L18.3383 38.4588Z" fill="#8B5E3C"/>
<path d="M20.7983 38.4585L20.7608 38.355L20.86 38.3663L20.7983 38.4585Z" fill="#8B5E3C"/>
<path d="M23.2637 38.4518L23.2261 38.3558L23.32 38.3676L23.2637 38.4518Z" fill="#8B5E3C"/>
<path d="M25.8015 38.396L25.6996 38.4349L25.7103 38.337L25.8015 38.396Z" fill="#8B5E3C"/>
<path d="M28.2025 38.3198L28.2401 38.4204L28.1435 38.4086L28.2025 38.3198Z" fill="#8B5E3C"/>
<path d="M30.8959 38.3791L30.9925 38.3432L30.9818 38.4352L30.8959 38.3791Z" fill="#8B5E3C"/>
<path d="M28.1247 3.60505L28.2267 3.56667L28.2159 3.66432L28.1247 3.60505Z" fill="#8B5E3C"/>
<path d="M30.9523 3.67935L30.9147 3.58091L31.0113 3.59244L30.9523 3.67935Z" fill="#8B5E3C"/>
<path d="M7.27485 39.5536L7.30976 39.6515L7.21852 39.6395L7.27485 39.5536Z" fill="#8B5E3C"/>
<path d="M9.72151 39.6832L9.68663 39.5877L9.77515 39.5992L9.72151 39.6832Z" fill="#8B5E3C"/>
<path d="M21.976 4.83639L22.0699 4.80099L22.0592 4.89272L21.976 4.83639Z" fill="#8B5E3C"/>
<path d="M14.5879 39.6107L14.6845 39.5751L14.671 39.6676L14.5879 39.6107Z" fill="#8B5E3C"/>
<path d="M17.1793 39.6276L17.0828 39.6633L17.0962 39.5713L17.1793 39.6276Z" fill="#8B5E3C"/>
<path d="M32.2561 4.85358L32.1622 4.88925L32.1729 4.79696L32.2561 4.85358Z" fill="#8B5E3C"/>
<path d="M22.1021 39.6277L22.0082 39.6636L22.0189 39.5716L22.1021 39.6277Z" fill="#8B5E3C"/>
<path d="M26.9551 39.6867L26.9175 39.5874L27.0114 39.5987L26.9551 39.6867Z" fill="#8B5E3C"/>
<path d="M32.1273 39.6105L32.2239 39.5751L32.2132 39.6665L32.1273 39.6105Z" fill="#8B5E3C"/>
<path d="M30.9711 6.31673L31.0059 6.41196L30.9147 6.40014L30.9711 6.31673Z" fill="#8B5E3C"/>
<path d="M32.1273 7.29887L32.2239 7.26291L32.2132 7.35519L32.1273 7.29887Z" fill="#8B5E3C"/>
<path d="M15.8193 8.52936L15.9158 8.49341L15.9051 8.58624L15.8193 8.52936Z" fill="#8B5E3C"/>
<path d="M23.2798 8.47307L23.3147 8.56938L23.2235 8.55756L23.2798 8.47307Z" fill="#8B5E3C"/>
<path d="M25.7425 8.47012L25.7801 8.57125L25.6835 8.55942L25.7425 8.47012Z" fill="#8B5E3C"/>
<path d="M28.2616 8.54655L28.1623 8.58438L28.173 8.48859L28.2616 8.54655Z" fill="#8B5E3C"/>
<path d="M30.9523 8.60291L30.9174 8.50608L31.0086 8.51761L30.9523 8.60291Z" fill="#8B5E3C"/>
<path d="M14.6442 9.83614L14.6067 9.73633L14.7006 9.74789L14.6442 9.83614Z" fill="#8B5E3C"/>
<path d="M2.4058 42.0893L2.3092 42.1249L2.32262 42.0327L2.4058 42.0893Z" fill="#8B5E3C"/>
<path d="M17.123 9.70199L17.1606 9.80069L17.0667 9.78887L17.123 9.70199Z" fill="#8B5E3C"/>
<path d="M7.19976 42.0729L7.29902 42.0351L7.28828 42.1314L7.19976 42.0729Z" fill="#8B5E3C"/>
<path d="M9.79394 42.0895L9.69737 42.126L9.70807 42.0321L9.79394 42.0895Z" fill="#8B5E3C"/>
<path d="M22.0484 9.70224L22.086 9.80045L21.9894 9.78862L22.0484 9.70224Z" fill="#8B5E3C"/>
<path d="M14.5852 42.0729L14.6845 42.0354L14.6737 42.1308L14.5852 42.0729Z" fill="#8B5E3C"/>
<path d="M17.107 42.1485L17.0694 42.0485L17.166 42.06L17.107 42.1485Z" fill="#8B5E3C"/>
<path d="M24.4361 9.7594L24.5353 9.724L24.5219 9.81628L24.4361 9.7594Z" fill="#8B5E3C"/>
<path d="M22.0484 42.0147L22.0833 42.1134L21.9921 42.1016L22.0484 42.0147Z" fill="#8B5E3C"/>
<path d="M24.5675 42.0893L24.4709 42.126L24.4817 42.0321L24.5675 42.0893Z" fill="#8B5E3C"/>
<path d="M26.8961 9.76044L26.9953 9.72262L26.9846 9.81923L26.8961 9.76044Z" fill="#8B5E3C"/>
<path d="M32.1837 42.147L32.1461 42.0488L32.24 42.0603L32.1837 42.147Z" fill="#8B5E3C"/>
<path d="M29.3615 9.75938L29.458 9.72454L29.4446 9.81548L29.3615 9.75938Z" fill="#8B5E3C"/>
<path d="M32.2588 9.7771L32.1595 9.81358L32.1702 9.71943L32.2588 9.7771Z" fill="#8B5E3C"/>
<path d="M3.58082 43.2415L3.62107 43.345L3.52181 43.3332L3.58082 43.2415Z" fill="#8B5E3C"/>
<path d="M5.96305 43.3043L6.07036 43.2632L6.05694 43.3657L5.96305 43.3043Z" fill="#8B5E3C"/>
<path d="M8.56256 43.3198L8.46334 43.356L8.47673 43.2624L8.56256 43.3198Z" fill="#8B5E3C"/>
<path d="M10.9529 43.3842L10.9126 43.279L11.0119 43.2901L10.9529 43.3842Z" fill="#8B5E3C"/>
<path d="M15.8756 11.064L15.8407 10.9682L15.9319 10.9798L15.8756 11.064Z" fill="#8B5E3C"/>
<path d="M15.8756 43.378L15.838 43.279L15.9346 43.2906L15.8756 43.378Z" fill="#8B5E3C"/>
<path d="M18.3383 43.3845L18.298 43.2788L18.3973 43.2901L18.3383 43.3845Z" fill="#8B5E3C"/>
<path d="M20.7983 43.3845L20.7581 43.2783L20.86 43.2893L20.7983 43.3845Z" fill="#8B5E3C"/>
<path d="M23.2798 43.2461L23.3173 43.3434L23.2235 43.3316L23.2798 43.2461Z" fill="#8B5E3C"/>
<path d="M25.8042 43.3201L25.6996 43.3598L25.7103 43.2608L25.8042 43.3201Z" fill="#8B5E3C"/>
<path d="M28.2025 43.2428L28.2401 43.3446L28.1435 43.333L28.2025 43.2428Z" fill="#8B5E3C"/>
<path d="M30.9523 43.3778L30.9147 43.279L31.0113 43.2906L30.9523 43.3778Z" fill="#8B5E3C"/>
<path d="M25.7988 11.0085L25.6996 11.0455L25.713 10.9511L25.7988 11.0085Z" fill="#8B5E3C"/>
<path d="M4.7344 44.5351L4.839 44.4941L4.82829 44.5963L4.7344 44.5351Z" fill="#8B5E3C"/>
<path d="M7.33393 44.5509L7.23463 44.5884L7.24538 44.4927L7.33393 44.5509Z" fill="#8B5E3C"/>
<path d="M9.71881 44.6094L9.68393 44.5099L9.77782 44.5214L9.71881 44.6094Z" fill="#8B5E3C"/>
<path d="M12.1144 44.5354L12.2244 44.4916L12.2137 44.5989L12.1144 44.5354Z" fill="#8B5E3C"/>
<path d="M14.5852 44.534L14.6845 44.4962L14.6737 44.5925L14.5852 44.534Z" fill="#8B5E3C"/>
<path d="M17.107 44.6091L17.0694 44.5101L17.166 44.5217L17.107 44.6091Z" fill="#8B5E3C"/>
<path d="M28.2589 11.0085L28.1623 11.0452L28.173 10.9511L28.2589 11.0085Z" fill="#8B5E3C"/>
<path d="M22.0484 44.4758L22.086 44.5745L21.9894 44.5627L22.0484 44.4758Z" fill="#8B5E3C"/>
<path d="M24.4361 44.5332L24.5353 44.4978L24.5219 44.5901L24.4361 44.5332Z" fill="#8B5E3C"/>
<path d="M26.8934 44.534L26.9953 44.4959L26.9846 44.593L26.8934 44.534Z" fill="#8B5E3C"/>
<path d="M30.9711 10.9355L31.0059 11.031L30.9147 11.0189L30.9711 10.9355Z" fill="#8B5E3C"/>
<path d="M32.1246 44.534L32.2239 44.4967L32.2132 44.5917L32.1246 44.534Z" fill="#8B5E3C"/>
<path d="M14.6603 12.4689L14.6979 12.5671L14.604 12.5559L14.6603 12.4689Z" fill="#8B5E3C"/>
<path d="M17.1793 12.544L17.0828 12.5794L17.0962 12.4877L17.1793 12.544Z" fill="#8B5E3C"/>
<path d="M24.4924 12.5998L24.4575 12.5038L24.5487 12.5159L24.4924 12.5998Z" fill="#8B5E3C"/>
<path d="M26.8961 12.5266L26.9953 12.489L26.9846 12.5848L26.8961 12.5266Z" fill="#8B5E3C"/>
<path d="M32.2561 12.5443L32.1622 12.5791L32.1729 12.488L32.2561 12.5443Z" fill="#8B5E3C"/>
<path d="M15.8756 45.8378L15.8407 45.7426L15.9319 45.7541L15.8756 45.8378Z" fill="#8B5E3C"/>
<path d="M34.3405 12.5996L34.3057 12.5043L34.3969 12.5164L34.3405 12.5996Z" fill="#8B5E3C"/>
<path d="M11.0306 13.7748L10.926 13.8145L10.9394 13.7147L11.0306 13.7748Z" fill="#8B5E3C"/>
<path d="M13.429 13.693L13.4719 13.8001L13.37 13.789L13.429 13.693Z" fill="#8B5E3C"/>
<path d="M28.1864 45.8405L28.1489 45.7426L28.2428 45.7538L28.1864 45.8405Z" fill="#8B5E3C"/>
<path d="M30.9711 45.7098L31.0059 45.8051L30.9147 45.7933L30.9711 45.7098Z" fill="#8B5E3C"/>
<path d="M15.8917 13.7008L15.9293 13.7992L15.8354 13.7877L15.8917 13.7008Z" fill="#8B5E3C"/>
<path d="M18.3544 13.6938L18.3946 13.8001L18.2927 13.789L18.3544 13.6938Z" fill="#8B5E3C"/>
<path d="M20.8171 13.6933L20.8574 13.8003L20.7554 13.7894L20.8171 13.6933Z" fill="#8B5E3C"/>
<path d="M7.25879 47.3758L7.22122 47.2771L7.31515 47.2889L7.25879 47.3758Z" fill="#8B5E3C"/>
<path d="M9.71881 47.3756L9.68393 47.2771L9.77782 47.2889L9.71881 47.3756Z" fill="#8B5E3C"/>
<path d="M14.6442 47.3763L14.6093 47.2768L14.7006 47.2886L14.6442 47.3763Z" fill="#8B5E3C"/>
<path d="M17.123 47.2441L17.1606 47.3415L17.0667 47.3299L17.123 47.2441Z" fill="#8B5E3C"/>
<path d="M22.0297 47.3752L21.9948 47.2779L22.0887 47.2897L22.0297 47.3752Z" fill="#8B5E3C"/>
<path d="M24.5112 47.2459L24.546 47.3414L24.4548 47.3296L24.5112 47.2459Z" fill="#8B5E3C"/>
<path d="M26.9551 47.3774L26.9175 47.2768L27.0114 47.2886L26.9551 47.3774Z" fill="#8B5E3C"/>
<path d="M32.1836 47.3742L32.1488 47.2773L32.24 47.2892L32.1836 47.3742Z" fill="#8B5E3C"/>
<path d="M23.2798 13.7027L23.3147 13.7992L23.2235 13.7875L23.2798 13.7027Z" fill="#8B5E3C"/>
<path d="M5.96573 48.5318L6.07036 48.491L6.05693 48.593L5.96573 48.5318Z" fill="#8B5E3C"/>
<path d="M8.43111 48.5325L8.53037 48.4958L8.51698 48.5894L8.43111 48.5325Z" fill="#8B5E3C"/>
<path d="M10.8911 48.5318L10.9931 48.4924L10.9823 48.5919L10.8911 48.5318Z" fill="#8B5E3C"/>
<path d="M15.9507 48.5495L15.8514 48.5857L15.8649 48.4924L15.9507 48.5495Z" fill="#8B5E3C"/>
<path d="M18.2766 48.5317L18.3785 48.4921L18.3678 48.5921L18.2766 48.5317Z" fill="#8B5E3C"/>
<path d="M20.8171 48.4685L20.8547 48.5734L20.7554 48.5624L20.8171 48.4685Z" fill="#8B5E3C"/>
<path d="M23.2074 48.5323L23.3039 48.4969L23.2905 48.5886L23.2074 48.5323Z" fill="#8B5E3C"/>
<path d="M25.7398 48.4728L25.7801 48.5731L25.6835 48.5618L25.7398 48.4728Z" fill="#8B5E3C"/>
<path d="M28.2025 48.4728L28.2401 48.5734L28.1435 48.5618L28.2025 48.4728Z" fill="#8B5E3C"/>
<path d="M31.0274 48.5497L30.9281 48.5849L30.9416 48.4928L31.0274 48.5497Z" fill="#8B5E3C"/>
<path d="M25.7398 13.6968L25.7801 13.7995L25.6808 13.788L25.7398 13.6968Z" fill="#8B5E3C"/>
<path d="M28.2642 13.7751L28.1623 13.8135L28.173 13.7158L28.2642 13.7751Z" fill="#8B5E3C"/>
<path d="M30.9684 13.7014L31.0059 13.799L30.9121 13.7872L30.9684 13.7014Z" fill="#8B5E3C"/>
<path d="M9.65981 14.9893L9.76175 14.9512L9.74836 15.0478L9.65981 14.9893Z" fill="#8B5E3C"/>
<path d="M12.1976 14.919L12.2432 15.0317L12.1359 15.0212L12.1976 14.919Z" fill="#8B5E3C"/>
<path d="M14.5825 14.9893L14.6845 14.9507L14.6737 15.048L14.5825 14.9893Z" fill="#8B5E3C"/>
<path d="M7.33393 49.7797L7.23463 49.8165L7.24538 49.7218L7.33393 49.7797Z" fill="#8B5E3C"/>
<path d="M9.71881 49.8371L9.68393 49.7387L9.77782 49.7505L9.71881 49.8371Z" fill="#8B5E3C"/>
<path d="M14.5852 49.7628L14.6845 49.7248L14.6737 49.8213L14.5852 49.7628Z" fill="#8B5E3C"/>
<path d="M17.123 49.7046L17.1606 49.8034L17.0667 49.7918L17.123 49.7046Z" fill="#8B5E3C"/>
<path d="M21.9733 49.7626L22.0726 49.7253L22.0592 49.8203L21.9733 49.7626Z" fill="#8B5E3C"/>
<path d="M24.4361 49.7628L24.5353 49.7269L24.5219 49.8195L24.4361 49.7628Z" fill="#8B5E3C"/>
<path d="M17.0479 14.989L17.1472 14.9518L17.1365 15.0467L17.0479 14.989Z" fill="#8B5E3C"/>
<path d="M32.2561 49.78L32.1595 49.8152L32.1729 49.7234L32.2561 49.78Z" fill="#8B5E3C"/>
<path d="M34.2842 49.7623L34.3807 49.7269L34.37 49.8189L34.2842 49.7623Z" fill="#8B5E3C"/>
<path d="M22.0484 14.93L22.086 15.0301L21.9894 15.0185L22.0484 14.93Z" fill="#8B5E3C"/>
<path d="M27.0329 15.0054L26.931 15.0445L26.9417 14.9458L27.0329 15.0054Z" fill="#8B5E3C"/>
<path d="M32.2588 15.0062L32.1595 15.0427L32.1702 14.9485L32.2588 15.0062Z" fill="#8B5E3C"/>
<path d="M8.50623 16.1624L8.54114 16.2601L8.44722 16.2486L8.50623 16.1624Z" fill="#8B5E3C"/>
<path d="M15.9507 16.2367L15.8541 16.273L15.8649 16.1799L15.9507 16.2367Z" fill="#8B5E3C"/>
<path d="M23.261 16.2923L23.2261 16.1968L23.3173 16.2088L23.261 16.2923Z" fill="#8B5E3C"/>
<path d="M25.8015 16.2359L25.6996 16.2746L25.713 16.1769L25.8015 16.2359Z" fill="#8B5E3C"/>
<path d="M28.2025 16.1595L28.2401 16.2606L28.1435 16.2494L28.2025 16.1595Z" fill="#8B5E3C"/>
<path d="M30.8959 16.2199L30.9925 16.1834L30.9818 16.2765L30.8959 16.2199Z" fill="#8B5E3C"/>
<path d="M33.4874 16.237L33.3909 16.2727L33.4016 16.1799L33.4874 16.237Z" fill="#8B5E3C"/>
<path d="M9.73758 17.3943L9.77246 17.4901L9.68125 17.4785L9.73758 17.3943Z" fill="#8B5E3C"/>
<path d="M14.6442 17.5247L14.6093 17.4265L14.7006 17.4384L14.6442 17.5247Z" fill="#8B5E3C"/>
<path d="M22.1021 17.4673L22.0082 17.5027L22.0189 17.411L22.1021 17.4673Z" fill="#8B5E3C"/>
<path d="M18.4134 18.6978L18.3142 18.7354L18.3249 18.6396L18.4134 18.6978Z" fill="#8B5E3C"/>
<path d="M25.7238 18.7566L25.6862 18.6573L25.7801 18.6691L25.7238 18.7566Z" fill="#8B5E3C"/>
<path d="M28.1864 18.7563L28.1489 18.6576L28.2428 18.6694L28.1864 18.7563Z" fill="#8B5E3C"/>
<path d="M8.48748 53.5285L8.4526 53.4327L8.54381 53.4446L8.48748 53.5285Z" fill="#8B5E3C"/>
<path d="M15.8756 53.5285L15.8407 53.4327L15.9319 53.4446L15.8756 53.5285Z" fill="#8B5E3C"/>
<path d="M25.7398 53.3963L25.7774 53.4961L25.6835 53.4848L25.7398 53.3963Z" fill="#8B5E3C"/>
<path d="M28.1274 53.4556L28.2267 53.4188L28.2132 53.513L28.1274 53.4556Z" fill="#8B5E3C"/>
<path d="M30.9711 53.4L31.0059 53.4958L30.9147 53.4843L30.9711 53.4Z" fill="#8B5E3C"/>
<path d="M30.8986 18.682L30.9925 18.6466L30.9818 18.7376L30.8986 18.682Z" fill="#8B5E3C"/>
<path d="M9.71882 54.7642L9.68125 54.6638L9.77783 54.6754L9.71882 54.7642Z" fill="#8B5E3C"/>
<path d="M12.1842 54.7733L12.1386 54.6606L12.2459 54.6716L12.1842 54.7733Z" fill="#8B5E3C"/>
<path d="M14.6603 54.6271L14.6979 54.7288L14.6013 54.7172L14.6603 54.6271Z" fill="#8B5E3C"/>
<path d="M17.123 54.6279L17.1633 54.729L17.064 54.7175L17.123 54.6279Z" fill="#8B5E3C"/>
<path d="M19.4999 54.6877L19.6126 54.6432L19.6018 54.7524L19.4999 54.6877Z" fill="#8B5E3C"/>
<path d="M22.0484 54.6284L22.086 54.7287L21.9894 54.7172L22.0484 54.6284Z" fill="#8B5E3C"/>
<path d="M24.5112 54.6303L24.5487 54.7288L24.4522 54.717L24.5112 54.6303Z" fill="#8B5E3C"/>
<path d="M26.8934 54.6877L26.9953 54.648L26.9846 54.7475L26.8934 54.6877Z" fill="#8B5E3C"/>
<path d="M7.25877 19.9898L7.21852 19.889L7.31513 19.9005L7.25877 19.9898Z" fill="#8B5E3C"/>
<path d="M32.1998 54.6284L32.2373 54.7285L32.1408 54.717L32.1998 54.6284Z" fill="#8B5E3C"/>
<path d="M9.66249 19.9133L9.76175 19.8763L9.74835 19.9708L9.66249 19.9133Z" fill="#8B5E3C"/>
<path d="M12.1976 19.8439L12.2432 19.9555L12.1359 19.945L12.1976 19.8439Z" fill="#8B5E3C"/>
<path d="M8.56525 55.936L8.46334 55.9738L8.47673 55.8772L8.56525 55.936Z" fill="#8B5E3C"/>
<path d="M11.036 55.9354L10.926 55.9775L10.9368 55.8732L11.036 55.9354Z" fill="#8B5E3C"/>
<path d="M13.4129 56.0044L13.37 55.892L13.4773 55.903L13.4129 56.0044Z" fill="#8B5E3C"/>
<path d="M15.9534 55.936L15.8514 55.9741L15.8622 55.8772L15.9534 55.936Z" fill="#8B5E3C"/>
<path d="M18.3383 56.0028L18.2954 55.8928L18.4027 55.9041L18.3383 56.0028Z" fill="#8B5E3C"/>
<path d="M20.8009 56.0033L20.7581 55.8933L20.8627 55.9043L20.8009 56.0033Z" fill="#8B5E3C"/>
<path d="M14.7193 19.9303L14.6201 19.9681L14.6308 19.8715L14.7193 19.9303Z" fill="#8B5E3C"/>
<path d="M17.182 19.93L17.0828 19.9673L17.0935 19.8724L17.182 19.93Z" fill="#8B5E3C"/>
<path d="M28.2025 55.8565L28.2428 55.9612L28.1408 55.9496L28.2025 55.8565Z" fill="#8B5E3C"/>
<path d="M19.5858 19.8452L19.626 19.9555L19.5214 19.9448L19.5858 19.8452Z" fill="#8B5E3C"/>
<path d="M22.0324 19.989L21.9948 19.8895L22.0887 19.9011L22.0324 19.989Z" fill="#8B5E3C"/>
<path d="M9.79931 57.166L9.69737 57.2043L9.70807 57.1067L9.79931 57.166Z" fill="#8B5E3C"/>
<path d="M12.2727 57.1671C12.2432 57.192 12.2137 57.2172 12.1842 57.2427C12.1601 57.2127 12.1118 57.1799 12.1144 57.1528C12.1171 57.1241 12.1681 57.1005 12.1976 57.0745C12.2244 57.1054 12.2486 57.1359 12.2727 57.1671Z" fill="#8B5E3C"/>
<path d="M14.6603 57.0861L14.7006 57.191L14.6013 57.1797L14.6603 57.0861Z" fill="#8B5E3C"/>
<path d="M17.0452 57.1491L17.1499 57.1096L17.1391 57.2092L17.0452 57.1491Z" fill="#8B5E3C"/>
<path d="M19.5831 57.0729C19.6099 57.1027 19.634 57.1324 19.6582 57.1619C19.6045 57.1568 19.5509 57.1515 19.4972 57.1464C19.5267 57.122 19.5562 57.0976 19.5831 57.0729Z" fill="#8B5E3C"/>
<path d="M21.9707 57.1494L22.0726 57.1113L22.0619 57.2084L21.9707 57.1494Z" fill="#8B5E3C"/>
<path d="M24.4951 19.9879L24.4575 19.89L24.5514 19.9021L24.4951 19.9879Z" fill="#8B5E3C"/>
<path d="M27.0356 57.1654L26.931 57.2059L26.9417 57.1048L27.0356 57.1654Z" fill="#8B5E3C"/>
<path d="M27.0329 19.93L26.931 19.9686L26.9417 19.8707L27.0329 19.93Z" fill="#8B5E3C"/>
<path d="M32.1837 19.9882L32.1461 19.8895L32.2427 19.9013L32.1837 19.9882Z" fill="#8B5E3C"/>
<path d="M6.11864 21.1606C6.08914 21.185 6.05963 21.2094 6.03013 21.2335C6.0355 21.1804 6.04087 21.127 6.04621 21.0739C6.07037 21.1029 6.09451 21.1316 6.11864 21.1606Z" fill="#8B5E3C"/>
<path d="M10.8911 58.3794L10.9931 58.3405L10.9823 58.4389L10.8911 58.3794Z" fill="#8B5E3C"/>
<path d="M13.3512 58.3794L13.4558 58.3391L13.4424 58.4398L13.3512 58.3794Z" fill="#8B5E3C"/>
<path d="M15.9507 58.3971L15.8541 58.4327L15.8649 58.3407L15.9507 58.3971Z" fill="#8B5E3C"/>
<path d="M18.4161 58.396L18.3142 58.4349L18.3249 58.3364L18.4161 58.396Z" fill="#8B5E3C"/>
<path d="M20.8171 58.3177L20.8547 58.421L20.7581 58.4097L20.8171 58.3177Z" fill="#8B5E3C"/>
<path d="M23.3361 58.3971L23.2396 58.4322L23.2503 58.341L23.3361 58.3971Z" fill="#8B5E3C"/>
<path d="M25.8015 58.3963L25.6996 58.4344L25.713 58.3375L25.8015 58.3963Z" fill="#8B5E3C"/>
<path d="M28.1274 58.3799L28.2267 58.3426L28.2159 58.4378L28.1274 58.3799Z" fill="#8B5E3C"/>
<path d="M30.9711 58.3236L31.0059 58.4202L30.9121 58.4084L30.9711 58.3236Z" fill="#8B5E3C"/>
<path d="M8.48746 21.2226L8.4499 21.1206L8.54916 21.1321L8.48746 21.2226Z" fill="#8B5E3C"/>
<path d="M11.036 21.1614L10.926 21.2046L10.9368 21.0981L11.036 21.1614Z" fill="#8B5E3C"/>
<path d="M13.4102 21.2346C13.3861 21.2051 13.3405 21.1729 13.3432 21.1469C13.3485 21.1187 13.3995 21.0744 13.4263 21.0774C13.4532 21.0809 13.4773 21.1313 13.5014 21.1611C13.4719 21.1855 13.4424 21.2102 13.4102 21.2346Z" fill="#8B5E3C"/>
<path d="M14.7167 59.6276L14.6201 59.6638L14.6335 59.5705L14.7167 59.6276Z" fill="#8B5E3C"/>
<path d="M17.1793 59.6279L17.0828 59.663L17.0962 59.5718L17.1793 59.6279Z" fill="#8B5E3C"/>
<path d="M22.0484 59.5552L22.0833 59.651L21.9921 59.6395L22.0484 59.5552Z" fill="#8B5E3C"/>
<path d="M24.4924 59.6834L24.4575 59.5879L24.5487 59.6L24.4924 59.6834Z" fill="#8B5E3C"/>
<path d="M27.0302 59.6274L26.931 59.6647L26.9417 59.5691L27.0302 59.6274Z" fill="#8B5E3C"/>
<path d="M32.1836 59.6829L32.1488 59.5877L32.24 59.5997L32.1836 59.6829Z" fill="#8B5E3C"/>
<path d="M34.413 59.6282L34.319 59.6628L34.3298 59.5724L34.413 59.6282Z" fill="#8B5E3C"/>
<path d="M13.3512 60.8421L13.4558 60.8013L13.4451 60.903L13.3512 60.8421Z" fill="#8B5E3C"/>
<path d="M15.8193 60.8424L15.9158 60.8059L15.9051 60.8992L15.8193 60.8424Z" fill="#8B5E3C"/>
<path d="M18.3383 60.9204L18.3007 60.8174L18.3973 60.8292L18.3383 60.9204Z" fill="#8B5E3C"/>
<path d="M20.8171 60.7796L20.8547 60.8834L20.7554 60.8721L20.8171 60.7796Z" fill="#8B5E3C"/>
<path d="M23.2074 60.8424L23.3039 60.8075L23.2905 60.8984L23.2074 60.8424Z" fill="#8B5E3C"/>
<path d="M25.7398 60.782L25.7801 60.8831L25.6835 60.8719L25.7398 60.782Z" fill="#8B5E3C"/>
<path d="M28.1864 60.9185L28.1489 60.8179L28.2454 60.8297L28.1864 60.9185Z" fill="#8B5E3C"/>
<path d="M30.9523 60.9156L30.9174 60.819L31.0114 60.8308L30.9523 60.9156Z" fill="#8B5E3C"/>
<path d="M15.8756 21.2226L15.838 21.1206L15.9373 21.1321L15.8756 21.2226Z" fill="#8B5E3C"/>
<path d="M18.2686 21.1455L18.3812 21.1024L18.3705 21.2091L18.2686 21.1455Z" fill="#8B5E3C"/>
<path d="M14.6603 62.0118L14.7006 62.1153L14.6013 62.104L14.6603 62.0118Z" fill="#8B5E3C"/>
<path d="M17.0452 62.074L17.1499 62.0348L17.1391 62.1338L17.0452 62.074Z" fill="#8B5E3C"/>
<path d="M19.6609 62.0895C19.6313 62.1145 19.6018 62.1394 19.5723 62.1641C19.5777 62.1097 19.5831 62.0555 19.5884 62.001C19.6126 62.0308 19.6367 62.06 19.6609 62.0895Z" fill="#8B5E3C"/>
<path d="M21.968 62.074L22.0726 62.035L22.0619 62.1335L21.968 62.074Z" fill="#8B5E3C"/>
<path d="M20.8145 21.0769L20.86 21.1879L20.7527 21.1769L20.8145 21.0769Z" fill="#8B5E3C"/>
<path d="M26.9551 62.1547L26.9148 62.0488L27.0168 62.06L26.9551 62.1547Z" fill="#8B5E3C"/>
<path d="M28.1864 35.9972L28.1462 35.8915L28.2481 35.9027L28.1864 35.9972Z" fill="#8B5E3C"/>
<path d="M25.8096 21.1614L25.6996 21.2032L25.7103 21.0999L25.8096 21.1614Z" fill="#8B5E3C"/>
<path d="M28.2025 21.0812L28.2454 21.1874L28.1408 21.1759L28.2025 21.0812Z" fill="#8B5E3C"/>
<path d="M15.7334 63.4698C15.7763 63.3936 15.8219 63.3171 15.8675 63.2407C15.8192 63.3158 15.7736 63.3904 15.728 63.465L15.7334 63.4698Z" fill="#8B5E3C"/>
<path d="M18.4349 63.3206C18.4027 63.3461 18.3732 63.3716 18.341 63.3968C18.3464 63.3413 18.3517 63.2857 18.3571 63.2302C18.3839 63.2605 18.4081 63.2906 18.4349 63.3206Z" fill="#8B5E3C"/>
<path d="M20.8922 63.3203C20.8627 63.3458 20.8332 63.3713 20.8037 63.3965C20.809 63.341 20.8144 63.2857 20.8171 63.2305C20.8439 63.2605 20.868 63.2906 20.8922 63.3203Z" fill="#8B5E3C"/>
<path d="M4.81217 22.2999C4.83634 22.3297 4.86315 22.3592 4.88729 22.389C4.83365 22.3836 4.77998 22.3782 4.72362 22.3731C4.75316 22.3487 4.78263 22.3243 4.81217 22.2999Z" fill="#8B5E3C"/>
<path d="M7.2722 22.3117L7.31514 22.4176L7.21319 22.4064L7.2722 22.3117Z" fill="#8B5E3C"/>
<path d="M28.1167 63.3053L28.2294 63.2619L28.2186 63.3689L28.1167 63.3053Z" fill="#8B5E3C"/>
<path d="M9.80197 22.3927L9.69469 22.433L9.7054 22.3316L9.80197 22.3927Z" fill="#8B5E3C"/>
<path d="M12.2781 22.3935C12.2459 22.4203 12.2164 22.4471 12.1842 22.4742C12.1574 22.4426 12.1064 22.4083 12.1091 22.3798C12.1118 22.3492 12.1654 22.324 12.1976 22.2966C12.2245 22.3288 12.2513 22.3613 12.2781 22.3935Z" fill="#8B5E3C"/>
<path d="M19.6609 64.5512C19.6313 64.5764 19.6018 64.6019 19.5723 64.6268C19.5777 64.5718 19.5831 64.5168 19.5884 64.4618C19.6126 64.4916 19.6367 64.5214 19.6609 64.5512Z" fill="#8B5E3C"/>
<path d="M22.0484 64.4755L22.086 64.5772L21.9894 64.5654L22.0484 64.4755Z" fill="#8B5E3C"/>
<path d="M14.6603 22.3106L14.7032 22.4182L14.5986 22.4069L14.6603 22.3106Z" fill="#8B5E3C"/>
<path d="M27.0382 64.5523L26.931 64.5933L26.9417 64.4908L27.0382 64.5523Z" fill="#8B5E3C"/>
<path d="M17.1901 22.3925L17.0828 22.433L17.0935 22.3318L17.1901 22.3925Z" fill="#8B5E3C"/>
<path d="M19.5831 22.2962C19.6099 22.327 19.6367 22.3578 19.6608 22.3887C19.6045 22.3836 19.5481 22.3782 19.4918 22.3731C19.524 22.3477 19.5536 22.3219 19.5831 22.2962Z" fill="#8B5E3C"/>
<path d="M22.1128 22.3924L22.0055 22.4327L22.0189 22.3324L22.1128 22.3924Z" fill="#8B5E3C"/>
<path d="M20.7983 65.8445L20.7608 65.7412L20.86 65.7527L20.7983 65.8445Z" fill="#8B5E3C"/>
<path d="M23.2074 65.7662L23.3013 65.7318L23.2905 65.822L23.2074 65.7662Z" fill="#8B5E3C"/>
<path d="M25.7425 65.7069L25.7801 65.8072L25.6835 65.7957L25.7425 65.7069Z" fill="#8B5E3C"/>
<path d="M28.1864 65.8423L28.1489 65.7425L28.2454 65.7538L28.1864 65.8423Z" fill="#8B5E3C"/>
<path d="M31.0274 65.7838L30.9281 65.819L30.9416 65.7275L31.0274 65.7838Z" fill="#8B5E3C"/>
<path d="M27.0409 22.3922L26.9283 22.4353L26.939 22.3294L27.0409 22.3922Z" fill="#8B5E3C"/>
<path d="M24.4387 66.9975L24.5326 66.9626L24.5219 67.0536L24.4387 66.9975Z" fill="#8B5E3C"/>
<path d="M26.8961 66.9981L26.9953 66.9608L26.9846 67.056L26.8961 66.9981Z" fill="#8B5E3C"/>
<path d="M32.2588 67.0152L32.1595 67.0504L32.1729 66.9586L32.2588 67.0152Z" fill="#8B5E3C"/>
<path d="M34.413 67.0147L34.319 67.0501L34.3298 66.9589L34.413 67.0147Z" fill="#8B5E3C"/>
<path d="M6.02742 23.6887L5.98449 23.5798L6.08912 23.5911L6.02742 23.6887Z" fill="#8B5E3C"/>
<path d="M28.2025 68.1696L28.2401 68.2704L28.1435 68.2589L28.2025 68.1696Z" fill="#8B5E3C"/>
<path d="M30.9523 68.3021L30.9174 68.2053L31.0114 68.2171L30.9523 68.3021Z" fill="#8B5E3C"/>
<path d="M8.50623 23.5479L8.54114 23.6466L8.44722 23.6351L8.50623 23.5479Z" fill="#8B5E3C"/>
<path d="M10.969 23.5423L11.0092 23.6474L10.9072 23.6364L10.969 23.5423Z" fill="#8B5E3C"/>
<path d="M13.4129 23.6882L13.3726 23.5798L13.4746 23.5911L13.4129 23.6882Z" fill="#8B5E3C"/>
<path d="M15.8917 23.5482L15.9293 23.6466L15.8354 23.6351L15.8917 23.5482Z" fill="#8B5E3C"/>
<path d="M18.4188 23.6224L18.3142 23.6635L18.3249 23.5613L18.4188 23.6224Z" fill="#8B5E3C"/>
<path d="M20.7983 23.6866L20.7608 23.5803L20.86 23.5916L20.7983 23.6866Z" fill="#8B5E3C"/>
<path d="M23.2047 23.6064L23.304 23.5707L23.2905 23.6633L23.2047 23.6064Z" fill="#8B5E3C"/>
<path d="M25.7425 23.5435L25.7801 23.6476L25.6808 23.6361L25.7425 23.5435Z" fill="#8B5E3C"/>
<path d="M28.1247 23.6061L28.2267 23.5675L28.2159 23.6654L28.1247 23.6061Z" fill="#8B5E3C"/>
<path d="M30.9684 23.5479L31.0059 23.6466L30.9121 23.6351L30.9684 23.5479Z" fill="#8B5E3C"/>
<path d="M4.79611 24.9158L4.75852 24.8117L4.85509 24.823L4.79611 24.9158Z" fill="#8B5E3C"/>
<path d="M7.25879 24.9117L7.22122 24.813L7.31515 24.8248L7.25879 24.9117Z" fill="#8B5E3C"/>
<path d="M9.79394 24.8538L9.69737 24.89L9.70807 24.7969L9.79394 24.8538Z" fill="#8B5E3C"/>
<path d="M12.2003 24.7717L12.2406 24.8782L12.1386 24.8672L12.2003 24.7717Z" fill="#8B5E3C"/>
<path d="M14.6442 24.912L14.6067 24.813L14.7006 24.8248L14.6442 24.912Z" fill="#8B5E3C"/>
<path d="M17.182 24.8538L17.0828 24.89L17.0962 24.7975L17.182 24.8538Z" fill="#8B5E3C"/>
<path d="M19.5857 24.7723L19.6233 24.878L19.524 24.867L19.5857 24.7723Z" fill="#8B5E3C"/>
<path d="M21.9733 24.8369L22.0726 24.801L22.0592 24.8935L21.9733 24.8369Z" fill="#8B5E3C"/>
<path d="M24.4387 24.8372L24.5326 24.8023L24.5219 24.893L24.4387 24.8372Z" fill="#8B5E3C"/>
<path d="M26.9551 24.9128L26.9175 24.8127L27.0114 24.8246L26.9551 24.9128Z" fill="#8B5E3C"/>
<path d="M32.1836 24.9102L32.1488 24.8133L32.24 24.8251L32.1836 24.9102Z" fill="#8B5E3C"/>
<path d="M34.3405 24.9098L34.3057 24.8138L34.3969 24.8259L34.3405 24.9098Z" fill="#8B5E3C"/>
<path d="M3.5835 26.0092L3.61838 26.1093L3.52449 26.0978L3.5835 26.0092Z" fill="#8B5E3C"/>
<path d="M5.96573 26.0685L6.07036 26.028L6.05693 26.1291L5.96573 26.0685Z" fill="#8B5E3C"/>
<path d="M8.50623 26.0127L8.54114 26.1082L8.4499 26.0964L8.50623 26.0127Z" fill="#8B5E3C"/>
<path d="M10.9689 26.0076L11.0065 26.1096L10.9099 26.098L10.9689 26.0076Z" fill="#8B5E3C"/>
</svg>
