<svg width="23" height="31" viewBox="0 0 23 31" fill="none" xmlns="http://www.w3.org/2000/svg">
<path d="M10.4327 18.6498H10.4135C3.8315 17.1616 3.54884 13.904 3.54884 13.904C2.67201 10.0707 3.65459 1.68603 6.32545 1.38953C8.9963 1.09304 8.8867 5.64829 8.8867 5.64829C8.8867 5.64829 11.3557 0.286341 13.4323 0.70028C15.509 1.11422 16.7012 3.53432 16.5397 6.47617C16.5397 6.47617 17.8261 1.85546 20.7008 2.77575C23.5754 3.69604 22.8659 12.8431 19.2317 16.2817C19.2317 16.2817 17.2088 19.7473 11.3653 18.8193C10.5444 21.4304 10.7841 24.2603 12.0325 26.6957C12.4171 21.9748 17.0992 18.7268 19.1009 21.6186C21.3488 24.8647 14.6187 27.1038 12.5882 27.6949C13.1378 28.5679 13.8027 29.3626 14.5649 30.0572C15.0206 30.4712 14.4207 31.224 13.9611 30.8042C11.3518 28.4323 9.85774 25.346 9.94042 21.7977C9.96613 20.7314 10.1316 19.673 10.4327 18.6498Z" fill="#D9AD99"/>
<path d="M1.91628 17.3907C5.28898 14.8282 10.5692 25.7966 10.5692 25.7966C4.20256 26.5032 -1.45642 19.9552 1.91628 17.3907Z" fill="#D9AD99"/>
</svg>
