<svg width="25" height="29" viewBox="0 0 25 29" fill="none" xmlns="http://www.w3.org/2000/svg">
   <path
      d="M15.6574 13.1599C12.8454 14.4321 10.0647 17.2855 8.59318 18.9568C9.99235 15.0172 12.2298 11.3418 15.4835 8.74672C20.2458 8.48447 27.013 3.16314 23.6402 0.932063C20.6581 -1.04264 16.4098 5.82478 15.124 8.06565C14.1837 8.76526 13.3109 9.55153 12.5171 10.4142C13.0317 8.73646 13.2996 6.99267 13.3125 5.23766C13.3125 2.43706 10.6665 1.34305 9.20873 4.66423C8.01083 7.40415 9.01331 12.9094 9.39437 14.7745C8.56704 16.2763 7.87324 17.848 7.32102 19.4716C7.00835 14.1463 4.65165 8.92677 2.50012 9.5413C-0.691015 10.4553 0.676893 16.1308 1.58362 19.7182C2.31057 22.5892 4.75325 25.2919 5.70102 26.2587C5.60526 27.0142 5.54078 27.7716 5.5056 28.5231C5.48801 29.0358 6.62729 28.8166 6.64292 28.3978C6.65269 28.1375 6.66833 27.8772 6.68787 27.615C10.8932 28.5935 19.6654 26.294 20.7304 24.2977C21.8384 22.2213 20.5839 21.458 15.9369 22.0667C11.9582 22.5892 8.12026 25.744 6.74063 26.9829C6.98266 24.7379 7.44477 22.5222 8.12026 20.3679C12.8962 21.0548 24.5019 16.4537 24.3652 13.7138C24.2342 10.8486 19.7612 11.3046 15.6574 13.1599Z"
      fill="#d0a793" />
</svg>