<svg width="25" height="23" viewBox="0 0 25 23" fill="none" xmlns="http://www.w3.org/2000/svg">
<path d="M6.27364 11.0081C6.34165 10.8789 6.37634 10.7348 6.37456 10.5888C6.37278 10.4428 6.33458 10.2996 6.26343 10.1721C6.1105 9.8351 5.93176 9.51038 5.72879 9.20091C5.41873 8.74018 5.07676 8.30754 4.74501 7.85447C4.32343 7.27843 4.04325 6.61128 3.9271 5.90692C3.7959 5.1293 3.97236 4.33112 4.41913 3.68132C4.8659 3.03152 5.54792 2.58108 6.32085 2.42534C7.34164 2.21859 8.23483 2.48149 8.94555 3.22171C9.27942 3.56231 9.56261 3.94914 9.78642 4.37033C10.1539 5.0812 10.4461 5.83163 10.7728 6.56419C10.9093 6.86794 10.9807 7.21252 11.3508 7.46904C11.4056 7.17934 11.4592 6.9343 11.4962 6.68671C11.5958 6.03072 11.643 5.36197 11.7935 4.71874C12.281 2.63464 13.5008 1.16824 15.5819 0.547982C17.1221 0.0885345 18.5843 0.301664 19.859 1.35074C20.9156 2.22241 21.2626 3.51014 20.7318 4.77362C20.5291 5.24262 20.2661 5.68322 19.9496 6.08432C19.1037 7.18572 18.0357 8.04846 16.8873 8.81421C16.4636 9.09626 16.0617 9.41149 15.6636 9.72672C15.4347 9.91224 15.2587 10.1548 15.1532 10.4299C15.3999 10.3892 15.644 10.3342 15.8843 10.2653C16.4798 10.0526 17.0714 9.82882 17.6592 9.59399C18.6941 9.18304 19.7391 8.81166 20.8492 8.67255C21.8789 8.54492 22.8168 8.7504 23.6143 9.44595C24.3161 10.0573 24.57 10.9864 24.2676 11.7955C24.0716 12.2895 23.7004 12.6939 23.2251 12.9314C22.5829 13.2718 21.8922 13.5111 21.1771 13.641C19.8552 13.9077 18.5129 13.9779 17.1693 14.0098C16.567 14.0238 15.9635 14.02 15.3625 14.0391C15.1307 14.042 14.9003 14.0755 14.6773 14.1387C14.3187 14.2497 14.2383 14.5586 14.5127 14.8113C14.7097 14.9829 14.9351 15.1189 15.1787 15.2133C15.55 15.3639 15.9443 15.4494 16.3182 15.5962C16.9118 15.8137 17.4925 16.0651 18.0574 16.3491C19.1483 16.9362 19.9267 17.8041 20.238 19.0369C20.5583 20.3029 20.0517 21.5281 18.9123 22.1612C17.8915 22.7304 16.8043 22.8184 15.6853 22.4943C14.3238 22.0999 13.2099 21.3214 12.2899 20.2583C11.8854 19.7912 11.5243 19.2871 11.1058 18.8327C10.6873 18.3784 10.2394 17.9559 9.78004 17.5463C9.59765 17.4038 9.39163 17.2945 9.1714 17.2234C9.00674 17.1549 8.82675 17.1318 8.65014 17.1565C8.47353 17.1812 8.30677 17.2527 8.1672 17.3638C7.55672 17.8138 7.02545 18.3625 6.59518 18.9871C6.13923 19.6482 5.67563 20.3042 5.20436 20.9551C4.93927 21.3381 4.58614 21.652 4.17464 21.8702C3.33249 22.2952 2.58094 21.9136 2.41634 20.9832C2.34324 20.6157 2.39488 20.2344 2.56307 19.8997C2.81827 19.4057 3.09261 18.9246 3.38481 18.4524C3.62724 18.0593 3.91689 17.6956 4.16443 17.3038C4.23742 17.1722 4.27562 17.0242 4.27545 16.8737C4.27974 16.6021 4.2275 16.3327 4.12206 16.0824C4.01662 15.8322 3.86028 15.6066 3.66297 15.42C3.13216 14.8802 2.57966 14.362 2.0514 13.8209C1.65737 13.4303 1.28466 13.0188 0.934917 12.5881C0.605017 12.1714 0.432841 11.6516 0.448768 11.1204C0.476839 9.92326 1.51422 9.06308 2.68047 9.32598C3.07995 9.43799 3.46334 9.60099 3.82119 9.81095C4.38135 10.1058 4.91471 10.4491 5.47998 10.7426C5.7369 10.8525 6.00233 10.9412 6.27364 11.0081Z" fill="#BBBEA0"/>
</svg>
