<svg width="276" height="97" viewBox="0 0 276 97" fill="none" xmlns="http://www.w3.org/2000/svg">
<path d="M235.515 56.9437C236.189 57.6021 236.951 58.3418 237.352 58.7296C224.592 71.493 212.526 83.5724 200.187 95.9137C199.864 95.6304 199.171 95.0227 198.497 94.4375C200.46 90.8393 228.373 62.4744 235.515 56.9437Z" fill="#E5951A"/>
<path d="M161.133 40.1531C160.116 39.3715 159.526 38.9182 158.982 38.501C159.075 38.032 159.032 37.6081 159.223 37.3815C161.455 34.724 163.58 31.9572 166.007 29.4883C174.329 21.0256 182.754 12.6637 191.16 4.2821C192.254 3.18787 193.367 2.07213 194.647 1.22508C195.097 0.927046 196.289 1.16932 196.728 1.59335C197.158 2.01637 197.314 3.04327 197.148 3.68221C196.963 4.36606 196.269 4.92981 195.761 5.50333C195.243 6.08169 194.657 6.6053 194.11 7.15629C183.246 18.0263 172.383 28.8963 161.133 40.1531Z" fill="#E5951A"/>
<path d="M38.8004 60.0329C38.5815 60.3524 38.3256 60.879 37.9338 61.2718C26.9212 72.3098 15.8929 83.3331 4.87248 94.3633C3.58482 95.6519 2.34313 97.1701 0.532801 94.4512C2.44963 91.4235 4.61058 88.6196 7.7741 86.2241C11.3509 83.5159 14.0513 79.6537 17.1504 76.3105C18.0765 75.311 18.9216 74.1308 20.0549 73.4509C21.9268 72.3273 23.0845 70.6723 24.4854 69.0984C27.7857 65.3907 31.4515 61.9889 35.166 58.6847C36.1058 57.8483 38.0343 56.3731 38.8004 60.0329Z" fill="#E5951A"/>
<path d="M195.693 57.4947C196.328 58.2314 196.816 58.8039 197.275 59.3461C194.589 63.2766 170.087 88.1877 161.011 96.2157C160.329 95.7565 159.574 95.2485 158.662 94.6359C160.739 91.6904 162.658 89.1159 165.528 86.9313C169.251 84.1001 172.062 80.0758 175.305 76.6016C176.224 75.6169 177.268 74.7453 178.278 73.8494C179.424 72.8335 180.636 71.8896 181.748 70.8394C183.249 69.4218 184.672 67.9259 186.147 66.478C186.841 65.7962 187.877 65.2774 188.219 64.4587C189.684 60.9972 192.908 59.6099 195.693 57.4947Z" fill="#E5951A"/>
<path d="M121.301 40.2685C120.596 38.6056 119.742 37.5505 119.994 37.0044C120.705 35.4608 121.589 33.7276 122.916 32.7916C125.475 30.9851 127.231 28.488 129.415 26.4343C132.065 23.9431 134.472 21.2612 137.048 18.7464C141.523 14.3783 146.118 10.1616 150.252 5.43982C151.84 3.62657 154.13 2.42979 156.715 0.490479C156.923 2.10933 157.27 3.11172 157.095 4.01441C156.967 4.67297 156.182 5.22789 155.636 5.77589C144.397 17.0767 133.149 28.3697 121.301 40.2685Z" fill="#E5951A"/>
<path d="M37.58 1.04531C37.8946 1.40196 38.5051 2.09475 39.3766 3.08444C26.8047 15.4052 14.5104 27.4543 1.7461 39.9646C1.11396 39.2573 0.532689 38.6057 0.282532 38.3262C12.7255 25.8882 24.7815 13.837 37.58 1.04531Z" fill="#E5951A"/>
<path d="M156.592 57.3873C158.11 59.4126 157.179 60.5909 156.002 61.7583C152.406 65.3243 148.829 68.9079 145.248 72.4886C137.949 79.7867 130.646 87.0808 123.362 94.3956C122.032 95.7301 120.778 97.0295 119.2 94.7199C121.989 90.5785 152.033 60.5175 156.592 57.3873Z" fill="#E5951A"/>
<path d="M41.0297 39.6735C40.8372 38.4083 40.4524 37.3844 40.6194 36.4602C40.7347 35.8193 41.5943 35.3016 42.1453 34.7515C53.028 23.8728 63.9127 12.9949 74.8071 2.12781C75.2057 1.73122 75.7138 1.44499 76.4572 0.896921C77.1567 1.43914 77.8768 1.99603 78.3458 2.35751C66.0211 14.6823 53.8008 26.9023 41.0297 39.6735Z" fill="#E5951A"/>
<path d="M234.85 0.803092C235.691 1.50363 236.267 1.98133 236.482 2.16505C224.221 14.3959 212.018 26.5702 199.278 39.2729C199.317 39.3218 198.809 38.6154 198.341 37.9608C201.154 33.8458 225.364 9.22079 234.85 0.803092Z" fill="#E5951A"/>
<path d="M80.9828 39.0248C80.9056 38.9388 80.4043 38.379 79.9314 37.8504C82.6054 33.7891 104.779 11.1806 116.087 0.971071C116.78 1.39898 117.551 1.87382 117.885 2.07996C105.66 14.3187 93.4892 26.5038 80.9828 39.0248Z" fill="#E5951A"/>
<path d="M77.1919 57.7399C77.3482 57.8707 77.9237 58.3554 78.1553 58.5518C65.897 70.8061 53.6963 83.0038 40.9818 95.7134C40.9223 95.647 40.3418 94.9984 40.1689 94.8059C52.6479 82.3131 64.7041 70.2424 77.1919 57.7399Z" fill="#E5951A"/>
<path d="M117.013 56.8626C117.111 58.5224 117.449 59.6108 117.149 60.4785C116.857 61.3225 115.937 61.9664 115.25 62.6541C104.479 73.4294 93.7041 84.1997 82.9202 94.9612C82.5137 95.3676 82.0047 95.6704 81.0502 96.3973C80.6515 95.2904 79.9638 94.3291 80.1104 93.5201C80.2618 92.6868 81.1666 91.9413 81.8466 91.2613C92.7478 80.3415 103.662 69.4344 114.592 58.543C115.098 58.0378 115.78 57.7087 117.013 56.8626Z" fill="#E5951A"/>
<path d="M239.804 39.7614C239.257 39.2065 238.709 38.6623 238.221 38.1758C240.497 34.3059 269.719 4.84584 274.829 1.17134C276.46 2.05548 276.147 3.29926 275.337 4.52544C274.916 5.16629 274.282 5.66843 273.734 6.2205C262.958 16.9858 252.182 27.7503 241.406 38.5059C241.005 38.9085 240.507 39.2163 239.804 39.7614Z" fill="#E5951A"/>
<path d="M275.454 56.3175C275.62 58.4523 275.903 59.4009 275.689 60.2226C275.513 60.9006 274.799 61.4701 274.252 62.0182C262.949 73.3435 251.635 84.6599 240.341 95.9646C238.602 94.9896 237.566 94.0117 239.178 92.3127C239.989 91.4636 240.82 90.6419 241.65 89.8134C251.313 80.1511 260.975 70.4857 270.647 60.8331C271.859 59.6236 273.138 58.4835 275.454 56.3175Z" fill="#E5951A"/>
</svg>
