<svg width="138" height="275" viewBox="0 0 138 275" fill="none" xmlns="http://www.w3.org/2000/svg">
<path d="M119.153 123.399C119.037 123.489 118.921 123.578 118.807 123.668C118.903 123.774 118.99 123.953 119.099 123.969C119.196 123.985 119.317 123.806 119.427 123.717C119.336 123.611 119.244 123.505 119.153 123.399ZM115.664 151.21C115.546 151.3 115.427 151.389 115.309 151.479C115.41 151.593 115.502 151.772 115.614 151.788C115.714 151.796 115.837 151.625 115.951 151.536C115.855 151.422 115.76 151.316 115.664 151.21ZM111.026 148.866C110.906 148.963 110.786 149.053 110.667 149.142C110.89 149.167 111.114 149.183 111.338 149.207C111.234 149.094 111.13 148.98 111.026 148.866ZM112.437 144.893C112.42 144.657 112.401 144.42 112.382 144.184C111.509 144.249 110.637 144.314 109.765 144.388C109.782 144.624 109.799 144.868 109.817 145.112C110.69 145.039 111.564 144.966 112.437 144.893ZM122.022 114.997C121.725 114.81 121.426 114.623 121.129 114.444C121.424 114.631 121.717 114.818 122.01 115.005C122.303 115.193 122.596 115.372 122.888 115.551C122.6 115.364 122.311 115.185 122.022 114.997ZM128.972 169.488C127.56 172.696 125.929 175.838 124.786 179.143C122.941 184.484 121.476 189.955 119.746 195.337C115.535 208.436 111.273 221.52 107.016 234.603C103.519 245.358 100.01 256.104 96.4697 266.843C96.2434 267.535 95.7158 268.121 95.2493 268.894C93.0902 268.178 92.6285 266.892 93.3214 264.987C94.2218 262.504 95.1272 260.02 95.9576 257.513C98.8625 248.744 101.785 239.968 104.61 231.167C108.123 220.225 111.487 209.234 115.02 198.292C118.267 188.237 121.668 178.24 124.953 168.201C125.301 167.143 125.32 165.971 125.491 164.847C125.846 164.269 126.201 163.691 126.556 163.113C126.311 163.007 126.068 162.901 125.824 162.796C125.715 163.479 125.605 164.163 125.496 164.847C123.218 168.959 120.825 173.013 118.688 177.198C115.069 184.289 111.737 191.519 108.057 198.577C102.182 209.837 96.0292 220.958 90.1796 232.234C87.3147 237.754 84.97 243.542 82.197 249.111C80.178 253.165 77.843 257.065 75.648 261.03C73.905 260.094 72.8889 259.418 73.7829 257.7C76.3344 252.799 78.8216 247.857 81.3064 242.915C82.9151 239.724 84.4123 236.467 86.065 233.292C89.736 226.242 93.5632 219.264 97.1618 212.181C103.184 200.327 109.086 188.408 115.019 176.506C117.116 172.297 120.331 168.6 120.852 163.683C121.034 163.382 121.217 163.081 121.399 162.779C121.22 163.089 121.04 163.39 120.861 163.691C117.652 167.876 114.399 172.028 111.246 176.253C106.93 182.034 102.696 187.887 98.4156 193.7C96.1612 196.762 93.8384 199.774 91.6272 202.86C87.4304 208.737 83.3335 214.681 79.118 220.535C74.4545 227.015 69.6894 233.414 65.0007 239.87C63.4424 242.02 62.0299 244.267 60.4643 246.408C59.4808 247.751 58.5315 249.249 56.6981 249.461C54.7824 247.181 56.65 245.545 57.5032 244.12C59.3497 241.026 61.6392 238.201 63.7706 235.287C71.1687 225.159 78.5871 215.047 85.977 204.919C92.1344 196.477 98.2404 188.001 104.411 179.567C108.902 173.436 113.478 167.363 117.959 161.216C118.37 160.654 118.362 159.783 118.548 159.059C118.94 158.676 119.331 158.293 119.722 157.911C119.899 157.609 120.076 157.316 120.252 157.015C120.06 157.3 119.866 157.577 119.673 157.862C119.291 158.253 118.91 158.643 118.528 159.042C117.1 160.304 115.603 161.501 114.256 162.844C91.2063 185.86 68.1783 208.9 45.134 231.924C43.8118 233.243 42.3961 234.473 41.0747 235.694C39.1199 234.554 39.4138 233.284 40.3021 232.16C41.2514 230.956 42.4278 229.93 43.5187 228.839C65.7326 206.621 87.9538 184.411 110.152 162.185C111.491 160.842 112.652 159.319 113.896 157.886C114.284 157.504 114.672 157.121 115.059 156.73C115.243 156.437 115.425 156.144 115.609 155.851C115.427 156.144 115.245 156.437 115.061 156.73C114.676 157.121 114.29 157.512 113.905 157.894C113.034 158.204 112.03 158.326 111.314 158.847C105.021 163.439 98.7803 168.096 92.5244 172.728C88.255 175.895 84.0223 179.111 79.709 182.213C73.7079 186.536 67.606 190.712 61.6212 195.06C52.2496 201.858 42.9423 208.746 33.6009 215.593C31.9131 216.83 30.2686 218.157 28.4417 219.151C27.8669 219.46 26.7605 218.784 25.8983 218.564C26.1246 217.701 26.0652 216.464 26.6221 216.049C33.311 211.042 40.1059 206.181 46.8445 201.248C55.5721 194.857 64.2362 188.376 73.0046 182.042C77.4546 178.826 82.1335 175.92 86.6031 172.728C94.0191 167.436 101.364 162.038 108.696 156.624C109.42 156.095 109.852 155.159 110.418 154.41C111.193 154.027 111.967 153.637 113.03 152.806C113.147 152.488 113.007 152.602 112.866 152.716C113.003 152.855 113.139 152.985 113.276 153.115C113.398 152.985 113.587 152.863 113.62 152.708C113.64 152.619 113.424 152.472 113.03 152.806C111.97 153.645 111.199 154.027 110.427 154.418C109.693 154.589 108.886 154.613 108.237 154.955C99.2607 159.596 90.3539 164.367 81.3292 168.91C75.0823 172.061 68.6008 174.739 62.3637 177.906C51.5112 183.401 40.7767 189.133 29.9747 194.734C25.4293 197.087 20.8376 199.351 15.6328 201.98C15.3202 201.557 14.7706 200.816 14.2821 200.157C14.4368 199.595 14.4246 199.049 14.6493 198.919C23.2271 194.083 32.0679 189.776 40.942 185.494C52.4288 179.949 63.5011 173.542 74.7956 167.599C76.9629 166.459 79.4143 165.857 81.5929 164.733C84.974 162.983 88.172 160.882 91.5581 159.148C97.2872 156.217 103.104 153.449 110.09 150.022C107.647 150.022 106.287 149.631 105.323 150.087C96.7148 154.133 87.4213 156.103 78.465 159.091C67.7265 162.665 57.0351 166.418 46.1745 169.585C37.3028 172.174 28.9513 176.319 19.719 177.874C16.0692 178.492 12.6994 180.658 9.11642 181.863C8.34133 182.123 7.19991 181.285 5.78979 180.812C9.40868 177.458 13.5511 176.563 17.4077 175.293C29.5937 171.271 41.8791 167.558 54.0944 163.634C65.0569 160.109 75.9802 156.461 86.9142 152.847C93.8865 150.543 100.847 148.198 107.746 145.479C95.9145 146.309 84.3488 149.02 72.582 150.315C60.7786 151.609 49.1258 154.239 37.3826 156.144C25.6581 158.041 13.9052 159.767 1.75655 161.623C1.64335 160.264 1.57173 159.392 1.46347 158.098C37.0284 152.472 72.3768 146.879 107.725 141.286C107.711 141.034 107.695 140.773 107.68 140.521L0.519831 140.521L0.51983 136.995L112.315 136.995C112.321 136.8 112.327 136.596 112.332 136.401C108.291 135.847 104.239 135.351 100.211 134.716C92.5578 133.503 84.9219 132.184 77.2747 130.946C72.9841 130.246 68.6823 129.619 64.3909 128.927C56.1884 127.608 47.9884 126.257 39.7884 124.913C36.2436 124.335 32.7184 123.44 29.1533 123.228C24.2041 122.935 19.408 121.991 14.5809 121.006C11.2454 120.322 7.81868 120.078 4.43098 119.646C2.73188 119.434 1.5555 118.718 1.62223 116.438C2.92237 116.333 4.25269 115.974 5.50237 116.162C9.41839 116.748 13.2905 117.619 17.2057 118.221C20.9556 118.791 24.7609 119.019 28.5011 119.638C36.6914 121.006 44.8458 122.585 53.0353 123.953C56.7738 124.58 60.562 124.913 64.325 125.402C70.3358 126.192 76.3702 126.827 82.3444 127.836C87.3538 128.675 92.2573 130.148 97.2692 130.971C101.479 131.655 105.777 131.809 110.037 131.85C75.968 120.77 41.897 109.689 7.83736 98.5679C7.33663 98.4051 6.96787 97.8433 6.39224 97.3304C6.83922 95.5067 8.25994 94.7334 9.72533 95.4173C16.092 98.397 23.1302 99.1948 29.601 102.012C35.9627 104.78 42.931 106.115 49.5622 108.305C59.239 111.488 68.6986 115.461 78.5358 117.993C87.1503 120.208 95.1174 124.368 103.98 125.752C106.119 126.086 107.948 128.064 110.423 127.755C111.004 128.097 111.584 128.447 112.165 128.797C112.266 128.561 112.367 128.317 112.468 128.081C111.787 127.966 111.105 127.861 110.423 127.755C109.371 127.014 108.39 126.143 107.255 125.565C99.8061 121.804 92.2973 118.156 84.86 114.37C77.7771 110.764 70.7957 106.954 63.7029 103.363C49.1119 95.9789 34.4655 88.7087 19.8728 81.3326C17.8766 80.3229 16.0619 78.9553 13.8108 77.5306C14.769 76.5536 15.3014 76.0162 16.1368 75.1613C24.8554 79.7532 33.4128 84.2797 41.9874 88.7656C43.325 89.4658 44.7611 89.9786 46.1167 90.6463C48.4907 91.8105 50.8501 93.0155 53.1907 94.2447C54.368 94.8716 55.4516 95.6696 56.6427 96.264C68.5504 102.183 80.4775 108.069 92.3884 113.98C97.1332 116.341 101.842 118.767 106.593 121.111C107.42 121.518 108.37 121.681 109.265 121.958C109.831 123.432 110.68 124.401 113.772 123.66C111.504 122.805 110.385 122.382 109.265 121.958C108.139 120.672 107.2 119.133 105.855 118.148C100.64 114.346 95.2681 110.756 90.0063 107.01C83.3604 102.28 76.7504 97.4933 70.1526 92.6979C64.0017 88.2283 57.9046 83.6853 51.7522 79.2157C43.7671 73.411 35.7242 67.6875 27.7692 61.8421C26.2679 60.743 24.6934 59.3182 26.7809 56.9491C31.1634 59.9531 35.5678 62.8515 39.8462 65.9291C45.861 70.2521 51.7693 74.7216 57.745 79.1016C66.3261 85.387 74.939 91.6314 83.5151 97.9247C92.4014 104.438 101.249 111.016 110.151 117.513C110.868 118.034 111.872 118.164 112.744 118.474C113.13 118.864 113.517 119.247 113.903 119.638C114.202 119.809 114.502 119.988 114.801 120.159C114.501 119.988 114.2 119.809 113.899 119.638C113.513 119.255 113.125 118.864 112.74 118.482C112.929 116.927 111.977 116.072 110.91 115.136C109.086 113.548 107.457 111.733 105.669 110.088C104.143 108.688 102.179 107.654 100.995 106.025C98.7257 102.907 95.6206 100.734 92.9559 98.0795C76.1609 81.3407 59.4019 64.5613 42.6534 47.7737C41.5852 46.7072 40.5797 45.5265 39.8087 44.2402C39.5531 43.8087 39.9707 42.7747 40.3737 42.2375C40.6057 41.9199 41.5583 41.8141 41.9539 42.0339C42.9358 42.5712 43.8908 43.2551 44.67 44.0611C50.4455 50.0287 56.1119 56.1104 61.9461 62.0209C64.9812 65.0986 68.3672 67.8259 71.4495 70.8626C75.2361 74.5914 78.8265 78.5156 82.5862 82.2687C86.4468 86.1278 90.4434 89.8485 94.3203 93.6912C100.483 99.7972 106.581 105.968 112.742 112.074C113.813 113.141 115.057 114.029 116.222 114.997C116.609 115.38 116.996 115.771 117.383 116.153C117.768 116.544 118.155 116.927 118.543 117.318C118.835 117.505 119.128 117.692 119.421 117.879C119.125 117.692 118.829 117.505 118.534 117.326C118.147 116.935 117.761 116.552 117.375 116.162C116.989 115.779 116.603 115.388 116.216 115.005C115.178 113.019 114.363 110.878 113.061 109.078C107.355 101.23 101.513 93.4714 95.7109 85.6883C92.2981 81.1128 88.4626 76.7977 85.548 71.921C82.3012 66.4907 78.1866 61.7687 74.5946 56.6314C68.8199 48.3679 62.9051 40.2102 56.9692 32.0688C55.9597 30.6846 55.4818 29.545 56.9626 27.6074C58.4819 29.0483 60.2632 30.0903 61.0936 31.6373C64.4626 37.9143 69.7203 42.7829 73.5597 48.6691C81.1525 60.3032 89.9135 71.0906 97.7691 82.5293C103.47 90.8335 109.68 98.7959 115.678 106.897C117.098 108.818 118.578 110.69 120.503 112.294C117.118 104.088 112.805 96.394 108.818 88.5457C104.757 80.5429 100.691 72.5479 96.6789 64.5286C92.6855 56.5419 88.9804 48.4005 84.7371 40.5521C80.5736 32.8504 76.4092 25.1893 72.7733 16.2746C76.2561 16.9666 77.3097 18.5786 78.2354 20.5325C80.1169 24.4974 82.0944 28.4215 84.1355 32.305C87.7487 39.1844 91.5507 45.9745 95.071 52.8946C100.846 64.26 106.412 75.7313 112.158 87.113C115.401 93.5285 118.872 99.8381 122.155 106.237C123.547 108.956 124.725 111.781 126.724 114.297C126.188 112.343 125.824 110.332 125.088 108.46C120.098 95.7917 116.428 82.7084 112.574 69.674C111.344 65.5138 109.414 61.5652 108.098 57.4211C104.5 46.0965 101.118 34.6986 97.5216 23.3657C96.3794 19.7672 94.8984 16.2663 93.4435 12.7737C92.7401 11.0803 92.9339 9.81838 94.8317 8.53207C95.3967 9.33816 96.1929 10.079 96.5006 10.9826C100.023 21.3466 103.502 31.7269 106.932 42.1236C110.181 51.9665 113.353 61.8338 116.568 71.693C120.836 84.7764 125.115 97.8596 129.662 111.773C129.839 110.08 130.184 109.087 129.996 108.216C128.443 101.002 127.189 93.7562 126.529 86.3883C126.043 80.9417 124.859 75.5522 123.922 70.1463C123.342 66.8083 122.626 63.4865 122.003 60.1486C121.24 56.0779 120.375 52.0151 119.807 47.912C119.339 44.5334 119.411 41.1464 118.673 37.7108C116.726 28.6737 115.403 19.4985 113.975 10.3555C113.657 8.32028 113.928 6.19549 113.928 4.02984C116.292 3.66361 117.094 4.77879 117.354 6.42337C118.561 14.0844 119.633 21.7699 120.931 29.4147C121.907 35.1707 123.518 40.8371 124.154 46.6174C124.611 50.7778 124.694 54.9624 125.5 59.1064C126.546 64.488 127.299 69.9183 128.27 75.3159C128.768 78.084 129.638 80.7952 130.028 83.5796C130.607 87.7237 130.867 91.9082 131.343 96.0603C131.731 99.447 132.159 102.842 132.716 106.204C133.051 108.232 133.665 110.21 134.471 113.516C134.597 110.674 134.727 109.07 134.728 107.475C134.74 74.4448 134.737 41.407 134.74 8.37723C134.74 6.83024 134.479 5.20216 134.894 3.77721C135.184 2.77603 136.425 2.05948 137.96 0.480094L137.96 274.765C137.099 274.822 136.235 274.87 134.875 274.96L134.875 164.277C134.571 164.253 134.266 164.229 133.962 164.204C133.075 170.579 132.212 176.945 131.295 183.312C130.487 188.93 129.693 194.547 128.753 200.14C128.223 203.291 127.243 206.368 126.758 209.527C125.583 217.188 124.35 224.858 123.349 232.535C122.198 241.36 120.611 250.063 118.723 258.742C117.92 262.438 117.726 266.281 117.438 270.067C117.292 271.98 116.899 273.429 114.458 273.706C113.353 271.541 113.69 269.163 113.978 267.014C114.654 261.966 115.728 256.975 116.686 251.977C117.218 249.201 117.987 246.465 118.384 243.672C118.947 239.716 119.141 235.71 119.718 231.762C120.616 225.599 121.68 219.46 122.717 213.321C123.597 208.103 124.479 202.884 125.465 197.69C126.874 190.257 126.89 182.628 128.816 175.26C129.29 173.444 128.941 171.417 128.971 169.488C130.691 168.723 130.256 167.55 129.289 165.71C129.151 167.355 129.061 168.421 128.972 169.488Z" fill="#E5951A"/>
</svg>
