<svg width="276" height="175" viewBox="0 0 276 175" fill="none" xmlns="http://www.w3.org/2000/svg">
<path d="M1.19547 1.86832C2.0029 1.29177 2.58404 0.617785 3.2912 0.435956C4.22033 0.197281 5.24893 0.330817 6.23486 0.330817C67.8287 0.331179 129.423 0.259164 191.016 0.403865C202.722 0.431591 213.912 3.43026 224.587 8.30583C235.6 13.3351 245.1 20.4061 253.23 29.3265C257.198 33.6801 260.633 38.471 263.615 43.5385C269.057 52.7855 272.626 62.8097 274.475 73.3251C275.662 80.0768 276.003 87.0091 275.446 93.8853C274.502 105.538 271.628 116.717 266.194 127.109C262.687 133.816 258.471 140.047 253.385 145.749C249.367 150.253 245.011 154.296 240.206 157.868C231.248 164.526 221.372 169.27 210.557 172.187C203.179 174.178 195.741 174.716 188.147 174.706C127.681 174.638 67.2145 174.668 6.74814 174.668H1.91595C1.20213 172.98 2.09365 172.318 3.01468 172.153C4.38403 171.909 5.82117 172.018 7.22891 172.018C67.9769 172.013 128.726 172.133 189.474 171.928C204.525 171.877 218.609 167.683 231.645 159.837C240.212 154.681 247.447 148.064 253.777 140.567C261.228 131.744 266.255 121.42 269.382 110.267C270.242 107.201 270.66 104.006 271.205 100.858C271.774 97.5724 272.315 94.2784 272.738 90.9712C272.934 89.4433 272.992 87.8571 272.819 86.3299C271.346 73.2588 269.437 60.2893 262.739 48.6155C259.534 43.0281 256.033 37.7108 251.827 32.7296C246.957 26.9609 241.342 22.257 235.264 17.9911C226.577 11.8938 216.993 7.77651 206.613 5.54522C200.998 4.33757 195.332 3.72728 189.562 3.73191C128.673 3.78088 67.7845 3.76899 6.89557 3.72619C5.05944 3.72516 2.86416 4.59321 1.19547 1.86832Z" fill="#E5951A"/>
<path d="M0.706573 16.5097C1.68733 15.0806 1.97564 14.1736 2.50803 13.9944C3.4025 13.6943 4.45253 13.8299 5.43622 13.8299C68.1716 13.8285 130.907 13.8042 193.642 13.8831C199.362 13.8904 204.869 15.3991 210.397 17.0325C217.093 19.0109 223.192 22.0483 228.926 25.7929C237.09 31.125 243.863 37.943 249.349 46.0884C254.078 53.1099 257.514 60.6411 259.794 68.768C262.295 77.6817 262.547 86.8137 261.795 95.8801C261.186 103.223 259.157 110.353 256.116 117.212C253.483 123.151 250.36 128.809 246.282 133.725C240.084 141.199 232.955 147.803 224.284 152.481C218.843 155.417 213.209 157.95 207.199 159.411C202.07 160.657 196.918 161.962 191.566 161.963C129.676 161.965 67.7875 161.976 5.89792 161.962C4.30515 161.962 2.40559 162.562 1.48087 160.366C1.71464 159.069 2.60834 158.57 3.86563 158.553C5.13394 158.534 6.40381 158.541 7.67212 158.541C69.7025 158.527 131.732 158.519 193.762 158.493C199.558 158.49 205.031 156.798 210.485 155.074C217.084 152.988 223.16 149.831 228.8 145.863C238.016 139.377 245.23 131.128 250.618 121.201C254.327 114.368 256.791 107.101 258.244 99.5568C259.136 94.9215 259.53 90.0487 259.202 85.3493C258.448 74.5662 255.966 64.1275 250.855 54.48C248.292 49.6434 245.011 45.3348 241.492 41.1029C234.784 33.0341 226.37 27.4277 217.139 22.9118C212.125 20.4592 206.668 19.2749 201.201 18.0044C192.557 15.9957 183.89 16.551 175.222 16.5421C119.113 16.4795 63.0039 16.5097 6.89484 16.5097L0.706573 16.5097Z" fill="#E5951A"/>
<path d="M1.23605 147.562C1.98156 146.943 2.57369 146.088 3.32144 145.916C4.53003 145.638 5.8419 145.796 7.11026 145.796C67.025 145.793 126.94 145.837 186.855 145.755C198.097 145.74 208.578 142.873 218.292 136.874C231.944 128.442 240.214 116.299 244.025 100.999C245.127 96.5754 245.696 91.8988 245.658 87.3446C245.617 82.2277 244.808 77.1264 243.431 72.0929C241.523 65.1126 238.422 58.8122 234.065 53.1239C229.686 47.4068 224.494 42.5569 218.403 38.6132C211.226 33.9677 203.205 31.8284 195.006 30.153C193.241 29.7924 191.352 30.0144 189.52 30.0137C128.759 30.0071 67.9984 30.0056 7.23709 30.0034C6.10956 30.0034 4.95628 30.1413 3.86197 29.9495C2.99405 29.7976 2.19841 29.2387 1.43814 28.8921C1.66156 27.1467 2.53316 26.6209 3.80075 26.584C4.64657 26.5604 5.49237 26.5715 6.3382 26.5715C67.0995 26.5723 127.861 26.5936 188.621 26.545C195.44 26.539 201.895 28.2771 208.262 30.2681C216.685 32.9013 223.915 37.8287 230.302 43.7729C234.172 47.3751 237.207 51.8195 240.072 56.3383C244.34 63.07 246.502 70.5657 248.234 78.1853C248.939 81.2883 248.959 84.6103 248.86 87.8187C248.652 94.5158 247.897 101.181 245.568 107.52C242.342 116.301 237.701 124.171 230.981 130.86C223.75 138.058 215.365 143.169 205.656 146.055C200.999 147.439 196.305 148.551 191.294 148.542C129.405 148.438 67.5161 148.481 5.62653 148.458C4.28076 148.458 2.80745 148.93 1.23605 147.562Z" fill="#E5951A"/>
<path d="M1.07977 40.7475C2.0207 40.4215 2.50148 40.1472 3.0007 40.1052C3.98142 40.0219 4.97248 40.0609 5.95914 40.0609C66.9977 40.0602 128.037 40.089 189.076 40.0351C199.745 40.0256 208.896 43.8313 217.385 49.9982C225.291 55.7411 230.119 63.6431 233.553 72.4521C234.893 75.8899 235.407 79.7584 235.678 83.4764C236.055 88.6404 236.178 93.9157 234.776 98.9559C233.275 104.351 231.14 109.552 227.988 114.244C226.664 116.213 225.333 118.225 223.702 119.927C221.58 122.141 219.273 124.222 216.837 126.086C211.201 130.395 204.833 133.268 197.896 134.693C194.768 135.335 191.525 135.707 188.335 135.71C127.577 135.768 66.82 135.757 6.06317 135.732C4.38412 135.731 2.28617 136.444 1.48242 133.962C2.47052 132.703 3.73957 132.301 5.20407 132.318C6.33155 132.332 7.45983 132.32 8.58731 132.32C68.2167 132.319 127.845 132.278 187.475 132.37C195.074 132.381 202.178 130.767 208.888 127.418C214.892 124.422 219.686 119.861 223.776 114.616C228.613 108.415 231.061 101.257 232.369 93.5116C234.447 81.2117 230.51 70.6308 223.719 60.8233C218.089 52.692 209.952 47.87 200.765 44.767C198.424 43.9765 195.845 43.6661 193.361 43.5857C189.618 43.4641 185.866 43.4198 182.114 43.453C179.424 43.4766 176.529 42.3307 174.091 43.0106C171.14 43.8327 168.417 42.5194 165.503 43.2635C163.273 43.8335 160.697 43.0467 158.222 43.1831C155.151 43.3527 152.045 43.0216 148.956 43.3188C148.54 43.3594 148.082 43.5791 147.72 43.4663C143.244 42.0777 138.572 44.8887 134.14 42.8129C131.419 44.5222 128.524 42.4383 125.596 43.2686C123.543 43.8512 121.055 43.1809 118.718 43.2716C115.378 43.4006 112.026 43.1359 108.65 43.3438C106.384 43.484 104.069 43.1713 101.736 43.2679C98.3912 43.4058 94.9136 43.672 91.6933 43.2613C86.9821 42.661 82.259 44.8282 77.6731 42.8358C74.9292 44.3209 71.9487 42.1714 69.1657 43.3874C68.6909 43.5953 67.9239 43.6521 67.5161 43.4065C65.8496 42.4022 64.2501 43.4191 62.6809 43.3328C61.0432 43.2421 59.5404 43.102 57.837 43.3181C55.06 43.6698 52.1207 43.4087 49.348 42.8859C47.5207 42.5408 46.0415 43.6447 44.049 43.1197C41.4327 42.4302 38.4359 43.1838 35.6028 43.3225C35.4679 43.3298 35.3189 43.4552 35.2031 43.4243C30.5744 42.1884 25.8381 44.6373 21.1689 42.9707C20.1483 42.6065 18.7479 43.4898 17.5349 43.4486C14.6981 43.3527 11.8488 42.7385 9.04367 42.9228C6.96643 43.0599 4.93642 43.5245 2.9808 42.6219C2.33337 42.3225 1.89314 41.5733 1.07977 40.7475Z" fill="#E5951A"/>
<path d="M1.51105 67.2894C2.24768 66.9193 2.81558 66.4591 3.44016 66.3596C4.40395 66.2047 5.40684 66.2865 6.39273 66.2865C66.7116 66.2851 127.03 66.2984 187.349 66.2696C195.714 66.2659 201.788 70.1432 206.159 76.9848C210.235 83.3641 209.414 94.7909 204.839 100.388C199.862 106.476 193.7 109.508 185.978 109.511C126.224 109.531 66.4689 109.529 6.71347 109.487C4.90759 109.487 2.67169 110.372 1.3031 107.588C2.03974 107.095 2.71813 106.339 3.51602 106.179C4.73717 105.932 6.04017 106.088 7.30853 106.088C67.2041 106.086 127.1 106.071 186.996 106.112C192.351 106.116 196.703 104.183 200.553 100.551C209.649 91.9681 206.083 76.2755 195.974 71.3592C193.135 69.9787 190.373 69.7317 187.427 69.7317C144.162 69.7273 100.895 69.7288 57.6297 69.7288C40.7181 69.7288 23.8065 69.7295 6.89484 69.7273C4.94443 69.7266 2.85312 70.0842 1.51105 67.2894Z" fill="#E5951A"/>
<path d="M1.55319 120.662C2.24487 120.305 2.91288 119.736 3.64587 119.632C4.8906 119.458 6.17668 119.573 7.44504 119.573C67.0781 119.572 126.71 119.589 186.343 119.557C197.433 119.551 206.47 114.946 213.001 106.127C217.045 100.666 218.974 94.3019 218.828 87.2516C218.655 78.7981 215.693 71.559 209.905 65.7232C203.923 59.6919 196.517 56.2387 187.769 56.2401C127.572 56.2504 67.376 56.2453 7.1796 56.2438C6.05135 56.2438 4.89576 56.3898 3.80591 56.1848C2.95346 56.0248 2.18363 55.4268 1.23239 54.9504C2.08407 53.334 3.29124 53 4.52197 52.8436C5.49315 52.7205 6.49232 52.8098 7.47897 52.8098C66.5479 52.8098 125.617 52.778 184.685 52.8525C191.42 52.8614 198.081 53.8215 204.09 57.2659C213.079 62.4174 218.881 70.0915 221.227 80.1188C222.74 86.5858 222.168 93.1258 220.011 99.4571C217.979 105.426 214.332 110.183 209.552 114.311C205.051 118.199 199.959 120.554 194.255 121.725C192.219 122.143 190.087 122.235 187.998 122.236C141.899 122.264 95.8007 122.258 49.7012 122.258C35.0401 122.259 20.3784 122.272 5.71729 122.238C4.26976 122.234 2.51698 122.842 1.55319 120.662Z" fill="#E5951A"/>
</svg>
