<svg width="275" height="271" viewBox="0 0 275 271" fill="none" xmlns="http://www.w3.org/2000/svg">
<path d="M118.12 200.187C128.066 201.205 222.604 200.847 226.826 199.825C227.887 186.685 227.418 142.504 226.21 138.54H118.12V200.187ZM184.856 71.4405C174.864 70.39 80.3163 70.7658 76.1447 71.8184C75.0827 84.9493 75.5508 129.151 76.7574 133.103H184.856V71.4405ZM113.996 138.56C112.756 138.411 111.995 138.239 111.233 138.24C75.7959 138.28 40.3574 138.335 4.91885 138.401C4.75648 138.401 4.58685 138.579 4.43496 138.695C4.27575 138.814 4.13334 138.959 4.0579 139.025V200.338C5.11782 200.46 5.88136 200.624 6.64491 200.624C42.0834 200.589 77.522 200.54 112.962 200.48C113.125 200.48 113.298 200.311 113.451 200.198C113.612 200.081 113.753 199.936 113.996 199.72V138.56ZM162.567 267.462C172.936 268.449 267.007 268.09 271.319 267.087V204.679H162.567V267.462ZM157.229 204.776C145.367 203.724 52.7278 204.145 48.4755 205.218V267.576H157.229V204.776ZM3.87251 67.2416C5.60484 67.2416 6.77686 67.2425 7.94779 67.2404C42.9716 67.1912 77.9954 67.1409 113.019 67.0781C113.179 67.0781 113.347 66.8886 113.494 66.7681C113.648 66.6414 113.782 66.4895 113.921 66.346C114.703 51.3698 114.366 8.98404 113.376 3.88653C112.269 3.83635 111.1 3.73466 109.931 3.73681C74.9067 3.78185 39.884 3.83734 4.86017 3.90545C4.70205 3.90545 4.53344 4.10033 4.38887 4.22802C4.24012 4.36003 4.11552 4.51923 3.87251 4.78417V67.2416ZM0.308307 70.9775V0.267936C1.93283 0.170541 3.27869 0.0197753 4.62452 0.0197753C40.26 0.00728027 75.8954 0.00925643 111.532 0.0103143C112.533 0.0103143 113.537 -0.0251726 114.534 0.0355011C116.689 0.167511 117.782 1.3688 117.829 3.5086C117.86 4.90893 117.846 6.31126 117.846 7.71262V66.9085C119.908 67.0321 121.641 67.2248 123.375 67.2269C142.996 67.2489 162.615 67.2405 182.235 67.2416C183.637 67.2416 185.038 67.2437 186.439 67.2573C188.621 67.2793 189.756 68.4545 189.893 70.567C189.984 71.9621 189.925 73.3686 189.925 74.77C189.926 92.1866 189.925 109.604 189.925 127.022V133.422H195.766C204.575 133.422 213.385 133.48 222.193 133.407C231.238 133.33 230.883 133.252 230.859 141.785C230.809 159.203 230.844 176.621 230.843 194.038V200.622C245.73 200.668 260.222 200.617 275 200.654V269.567C274.887 269.681 274.754 269.834 274.601 269.962C274.454 270.084 274.29 270.272 274.128 270.278C272.13 270.359 270.133 270.461 268.136 270.461C193.883 270.471 119.631 270.47 45.1019 270.47C43.8242 264.877 44.6537 259.503 44.5102 254.192C44.3583 248.591 44.4756 242.981 44.4756 237.376V204.586H1.46882C0.886516 203.978 0.741968 203.837 0.610021 203.687C0.482232 203.541 0.259103 203.384 0.258077 203.232C0.161709 182.219 0.0821184 161.206 0.00355578 140.191C-0.0037967 138.217 0.00253297 136.242 0.00253297 133.656C6.29719 133.208 12.2399 133.483 18.1638 133.433C24.1694 133.382 30.176 133.422 36.1816 133.422H71.7898V71.5285C67.2411 70.3983 62.4724 71.1283 57.7677 71.0048C52.9655 70.8791 48.1582 70.9775 43.3539 70.9775H0.308307Z" fill="#E5951A"/>
</svg>
