<svg width="30" height="36" viewBox="0 0 30 36" fill="none" xmlns="http://www.w3.org/2000/svg">
   <path
      d="M23.7448 20.5375C23.3719 20.3286 22.9989 20.1384 22.626 19.963C22.9989 19.8548 23.3719 19.7392 23.7448 19.59C29.581 16.199 22.4021 9.17455 17.2633 8.80524C18.0464 8.11884 18.3822 6.99597 17.9347 5.14193C17.4611 -1.38637 10.7261 0.00508079 7.27663 3.42964C1.52249 8.13747 5.87825 10.1818 10.7933 10.0214C7.57876 11.2972 4.82661 13.6697 3.60717 17.001C2.65249 19.493 3.96128 20.5785 5.86689 21.0374C5.46787 21.2239 5.07261 21.4104 4.68477 21.6231C-0.353361 24.1262 -2.19182 31.1134 3.9688 33.4747C7.07956 34.6047 10.3557 35.2123 13.6647 35.2728C18.796 34.814 25.1618 34.1537 28.4547 29.7331C30.6176 25.8012 27.2055 22.1267 23.7448 20.5375Z"
      fill="#adb18b" />
</svg>