<svg width="267" height="13" viewBox="0 0 267 13" fill="none" xmlns="http://www.w3.org/2000/svg">
<path fill-rule="evenodd" clip-rule="evenodd" d="M249.083 7.33077C248.948 7.35848 248.78 7.38098 248.588 7.40074C247.533 7.50912 246.439 7.45219 245.422 7.3993C245.039 7.37938 244.667 7.36003 244.312 7.3503C239.121 7.20797 233.931 7.03721 228.743 6.86624L228.586 6.86105C223.45 6.6918 218.317 6.52262 213.183 6.38073C209.816 6.28766 206.07 6.19867 202.009 6.1133C218.27 7.40297 234.544 8.88876 250.85 10.5381C251.165 10.5699 251.512 10.6002 251.885 10.6291C258.18 10.7615 261.907 10.8647 263.825 10.9371C264.366 10.9575 264.767 10.9755 265.043 10.9913C265.181 10.9992 265.293 11.0067 265.378 11.0142C265.42 11.0179 265.462 11.0221 265.5 11.027L265.502 11.0273C265.525 11.0303 265.601 11.0401 265.68 11.0647C265.704 11.0722 265.754 11.0886 265.812 11.1183L265.814 11.1191C265.849 11.1371 266.011 11.2196 266.13 11.4078C266.183 11.5087 266.249 11.7504 266.252 11.8875C266.232 12.0198 266.144 12.2422 266.084 12.3306C265.959 12.4924 265.807 12.5594 265.773 12.5746L265.771 12.5752C265.676 12.6174 265.591 12.6316 265.577 12.6342C265.559 12.6374 265.542 12.6399 265.527 12.6419C265.516 12.6434 265.506 12.6445 265.498 12.6454C265.428 12.6529 265.34 12.6567 265.255 12.6593C265.074 12.6649 264.803 12.6675 264.466 12.6674C262.034 12.6671 255.646 12.5295 251.808 12.2358C251.024 12.2193 250.2 12.2024 249.335 12.185C219.314 11.5822 189.269 11.2905 159.219 10.9988C106.454 10.4865 53.6702 9.97408 0.961251 7.77648C0.517596 7.75798 0.172938 7.38333 0.191436 6.93968C0.209933 6.49602 0.584581 6.15136 1.02824 6.16986C53.7161 8.36658 106.449 8.87838 159.193 9.39028C183.205 9.62333 207.22 9.85641 231.233 10.2485C211.683 8.43092 192.171 6.86813 172.662 5.61644C152.081 5.32576 128.575 5.0782 106.323 4.84385C96.6474 4.74196 87.2093 4.64256 78.352 4.5432C55.8798 4.29112 37.1404 4.03923 27.7645 3.74719C25.4225 3.67425 23.6517 3.59843 22.5505 3.51858C22.0156 3.47979 21.5893 3.43701 21.3338 3.38316C21.2695 3.3696 21.1797 3.34816 21.0902 3.31251C21.047 3.29529 20.9708 3.26199 20.8897 3.20404C20.8232 3.15644 20.6473 3.01801 20.572 2.75833C20.479 2.43761 20.5994 2.16512 20.7251 2.01085C20.8297 1.88237 20.9479 1.81626 20.9979 1.79016C21.1074 1.73299 21.2169 1.7042 21.2757 1.68988C21.5246 1.62926 21.9557 1.58223 22.5105 1.5385C23.0892 1.4929 23.8664 1.44676 24.8501 1.39982C26.8184 1.30589 29.6335 1.20779 33.3806 1.10481C75.1775 -0.0438705 116.614 0.809218 158.018 3.12561C157.969 3.0192 157.942 2.90037 157.945 2.77539C157.952 2.33142 158.319 1.97796 158.763 1.98592C163.803 2.07625 168.843 2.14635 173.882 2.21645C195.866 2.52226 217.842 2.82794 239.814 4.81167C240.583 4.88114 241.73 4.95976 242.968 5.04469C244.102 5.12247 245.314 5.20554 246.383 5.29169C247.466 5.37901 248.425 5.4712 248.931 5.56683C249.05 5.58942 249.202 5.62213 249.332 5.67431L249.334 5.67511C249.38 5.69318 249.545 5.75946 249.685 5.91378C249.767 6.0055 249.886 6.17992 249.898 6.4298C249.91 6.69015 249.8 6.88738 249.702 7.00268C249.55 7.1823 249.359 7.25122 249.311 7.26825L249.308 7.26943C249.229 7.29814 249.149 7.31724 249.083 7.33077ZM168.624 3.75071C169.991 3.83532 171.358 3.92148 172.726 4.00917C188.608 4.23359 202.75 4.48373 213.228 4.77333C214.221 4.80079 215.215 4.82927 216.208 4.85858C202.118 4.21772 188.018 4.02147 173.884 3.82476C172.131 3.80037 170.378 3.77596 168.624 3.75071ZM133.104 3.52238C103.28 2.29174 73.4097 1.87612 43.3681 2.47636C52.909 2.63485 64.972 2.785 78.37 2.93529C87.2226 3.0346 96.6572 3.13396 106.33 3.23582C115.143 3.32864 124.155 3.42354 133.104 3.52238ZM21.6474 3.25458C21.6474 3.25453 21.6496 3.25387 21.6543 3.2527C21.6498 3.25405 21.6474 3.25464 21.6474 3.25458Z" fill="black"/>
</svg>
