<svg width="46" height="45" viewBox="0 0 46 45" fill="none" xmlns="http://www.w3.org/2000/svg">
<path id="symbol-img" d="M44.0311 43.929C42.813 42.7067 41.7183 41.607 40.6224 40.5089C39.6334 39.5178 38.6514 38.5198 37.6511 37.5403C36.6416 36.5517 35.6933 35.5034 34.6669 34.5298C33.936 33.8364 33.3041 33.0393 32.6011 32.3145C31.6266 31.3095 30.6273 30.3287 29.638 29.3379C28.6705 28.3692 27.7145 27.3889 26.7317 26.4361C25.7341 25.4688 24.7418 24.4884 23.8234 23.455C23.3586 22.9318 22.9376 22.8234 22.3306 22.8246C15.9215 22.8353 9.51249 22.8313 3.10335 22.8313H2.12214C2.22752 22.9872 2.26856 23.0717 2.33038 23.1362C3.83495 24.7034 5.33651 26.2733 6.84896 27.833C10.5274 31.6257 14.3995 35.2267 17.9723 39.1254C19.3164 40.5921 20.7917 41.9377 22.1719 43.3724C22.5754 43.7916 22.9821 43.943 23.5577 43.9413C30.06 43.9217 36.5625 43.929 43.0649 43.929L44.0311 43.929ZM2.12499 1.18691C4.29901 3.44722 6.36145 5.62826 8.46477 7.76911C10.9082 10.2561 13.3814 12.7139 15.8555 15.1704C16.378 15.689 16.7931 16.2945 17.3919 16.7625C18.0321 17.263 18.5012 17.9773 19.0759 18.5682C20.0959 19.6171 21.1572 20.6261 22.1634 21.6875C22.5599 22.1059 22.9644 22.2687 23.5464 22.2667C30.0523 22.2451 36.5584 22.2531 43.0646 22.2531H43.9619C40.4459 18.6494 37.0314 15.1251 33.589 11.628C30.1443 8.12862 26.6721 4.65644 23.2264 1.18691H2.12499ZM21.8195 22.2531C20.9064 21.3441 20.1512 20.6053 19.4102 19.8526C15.7007 16.0854 11.9914 12.3175 8.29071 8.54159C7.69179 7.9306 7.17899 7.23017 6.54841 6.65672C5.65482 5.84437 4.89239 4.90991 4.01589 4.08332C3.15563 3.27198 2.33356 2.41943 1.50614 1.57407C1.27964 1.34256 0.934033 1.16564 0.997526 0.730911C1.29254 0.459168 1.6524 0.584989 1.97372 0.58415C5.98988 0.573936 10.006 0.577453 14.0222 0.577453C16.9801 0.577453 19.9378 0.588342 22.8953 0.567391C23.4301 0.563711 23.8236 0.702934 24.2062 1.09394C28.0988 5.07408 32.0754 8.97447 35.892 13.0256C38.645 15.9475 41.5476 18.7156 44.3264 21.6078C44.5965 21.8889 44.8268 22.2082 45.157 22.6088C44.8332 22.7103 44.6454 22.7957 44.4496 22.8236C44.236 22.854 44.0146 22.8311 43.7967 22.8311C37.6012 22.8313 31.4055 22.8313 25.2099 22.8313H24.1332C24.7715 23.4278 25.3237 23.9158 25.8415 24.4377C26.1883 24.7872 26.4635 25.2076 26.8101 25.5573C28.9587 27.7234 31.1245 29.8725 33.2707 32.0413C33.9162 32.6935 34.4412 33.4887 35.1584 34.0404C36.0349 34.7147 36.5876 35.6604 37.4075 36.3732C38.2043 37.0661 38.9137 37.8596 39.6617 38.6084C41.158 40.1061 42.648 41.6104 44.1555 43.0967C44.5338 43.4696 44.8119 43.8938 45.1424 44.4129C44.8337 44.4516 44.6295 44.4995 44.4249 44.4997C37.2643 44.5036 30.1036 44.4997 22.9427 44.5111C22.5325 44.5118 22.2426 44.3841 21.9644 44.0945C20.5645 42.6378 19.1569 41.1885 17.737 39.7516C17.1783 39.1862 16.5301 38.7036 16.0086 38.108C13.5466 35.296 10.7708 32.7937 8.17562 30.1137C7.49529 29.4113 6.81445 28.7088 6.11787 28.021C4.46922 26.3924 2.88759 24.696 1.28032 23.0256C1.10693 22.8455 1.11128 22.8413 1.00624 22.2844C2.15917 22.2196 3.30121 22.2623 4.44108 22.2548C5.593 22.2471 6.74509 22.2531 7.89702 22.2531H21.8195Z" fill="#326B8E"/>
</svg>
