<svg width="66" height="23" viewBox="0 0 66 23" fill="none" xmlns="http://www.w3.org/2000/svg">
<g id="wave-img">
<path d="M65.8404 16.911C66.0614 17.5667 66.069 17.8546 65.6429 18.1045C63.5352 19.3407 61.3874 20.5227 59.3722 21.8976C58.1203 22.7517 57.2091 22.6403 55.9975 21.819C53.9808 20.4522 51.8177 19.3011 49.5787 17.9778C46.9238 19.5517 44.2013 21.1661 41.4303 22.8088C39.9544 21.9494 38.5425 21.1437 37.1473 20.3096C36.0291 19.6414 34.9249 18.949 33.8284 18.2456C33.4335 17.9922 33.0988 17.9919 32.6993 18.2408C30.7647 19.4459 28.8224 20.639 26.8725 21.8192C26.3489 22.136 25.7889 22.3923 25.1741 22.7139C22.2828 21.4685 19.8025 19.4154 16.902 17.993C15.5088 18.8245 14.1167 19.6564 12.7233 20.4866C11.6038 21.1535 10.476 21.8073 9.36542 22.4889C8.92105 22.7615 8.52351 22.713 8.10724 22.4587C5.84861 21.0783 3.58629 19.7037 1.33071 18.3181C1.02764 18.1319 0.75593 17.8942 0.489441 17.6952C0.672325 17.0666 0.95862 16.9785 1.4241 17.2637C2.81207 18.1145 4.21071 18.9482 5.60346 19.7918C6.6803 20.4441 7.75431 21.1014 8.84138 21.7637C10.9805 20.4391 13.0083 19.0716 15.1415 17.8953C17.1073 16.8112 16.7215 16.6308 18.7533 17.8977C20.8264 19.1905 22.9366 20.4245 25.1351 21.7472C27.8031 20.1291 30.5093 18.4879 33.2617 16.8184C35.9551 18.4413 38.6674 20.0759 41.4284 21.7396C44.1518 20.1008 46.8705 18.4648 49.6068 16.8184C52.2958 18.4531 54.9381 20.0592 57.6613 21.7145C60.4166 20.3074 62.9556 18.3934 65.8404 16.911Z" fill="#CAB469"/>
<path d="M57.7247 14.8716C57.0726 14.5032 56.3596 14.1224 55.6688 13.7052C53.8917 12.6319 52.126 11.54 50.3529 10.4601C49.8317 10.1427 49.3838 10.0918 48.784 10.4752C46.6917 11.8124 44.5413 13.0584 42.4079 14.3308C42.0944 14.5176 41.7537 14.6589 41.3783 14.8446C40.1545 14.1409 38.9135 13.4449 37.6899 12.7192C36.3945 11.9509 35.1069 11.1684 33.8339 10.3635C33.3801 10.0765 33.0436 10.159 32.606 10.4255C30.2757 11.8435 27.9224 13.2241 25.5758 14.6149C25.4377 14.6965 25.286 14.7551 25.0831 14.852C23.6866 14.0436 22.2749 13.2361 20.873 12.4116C19.821 11.7926 18.7694 11.171 17.7413 10.5137C17.1544 10.1384 16.6499 10.1442 16.0527 10.5181C13.8794 11.8792 11.6837 13.2045 9.49041 14.5335C9.25266 14.6776 8.97597 14.7575 8.70774 14.8714C6.20135 13.3715 3.72173 11.8919 1.24887 10.4009C1.00894 10.2562 0.759005 10.0739 0.613788 9.84552C0.516463 9.69203 0.595263 9.42642 0.595263 9.00969C3.60589 10.4051 6.05046 12.4094 8.87015 13.8341C11.5755 12.1904 14.2811 10.5464 16.9928 8.89866C19.7213 10.5581 22.3953 12.1847 25.1586 13.8653C27.8316 12.2252 30.5298 10.5694 33.277 8.88363C35.9721 10.5309 38.6429 12.1634 41.4268 13.8651C44.0789 12.2463 46.7808 10.5973 49.5826 8.88713C52.222 10.5043 54.8908 12.1394 57.6602 13.8363C60.3898 12.4066 62.9748 10.5758 65.7677 9.02885C65.9917 9.84944 65.9395 10.0027 65.3841 10.3559C64.7316 10.7708 64.0819 11.1908 63.4146 11.5805C61.5531 12.6676 59.6833 13.7401 57.7247 14.8716Z" fill="#CAB469"/>
<path d="M25.1336 5.9429C27.8446 4.29453 30.5212 2.6673 33.2675 0.997614C35.979 2.6501 38.6838 4.29846 41.4236 5.96837C44.1098 4.32698 46.7821 2.69386 49.5591 0.996948C52.2453 2.62222 54.959 4.26383 57.7147 5.93113C59.0954 5.11229 60.4436 4.28451 61.8187 3.5053C63.1439 2.75417 64.3168 1.71521 65.8193 1.21598C66.2173 1.9545 65.7385 2.23424 65.3501 2.48529C64.6327 2.94904 63.8796 3.35747 63.1426 3.79073C61.562 4.7204 59.9833 5.65355 58.4005 6.57928C58.157 6.72168 57.896 6.83402 57.6646 6.94941C55.1708 5.4602 52.725 3.99843 50.2778 2.53906C49.7855 2.24557 49.3664 2.23034 48.8145 2.57084C46.3885 4.0681 43.9169 5.49199 41.4066 6.97488C39.0077 5.53119 36.6009 4.08922 34.2023 2.6342C33.5898 2.26278 33.1062 2.22468 32.4215 2.66012C30.1886 4.08074 27.8786 5.38074 25.5964 6.72408C25.4577 6.80572 25.3039 6.86145 25.1236 6.94463C23.8961 6.24335 22.6522 5.55143 21.4273 4.82752C20.1306 4.06092 18.8386 3.28453 17.5722 2.4694C17.0534 2.13541 16.631 2.31589 16.204 2.56367C15.4647 2.99301 14.7501 3.46458 14.0148 3.90156C12.3332 4.9011 10.6454 5.88998 8.8771 6.9322C8.54965 6.7748 8.13358 6.61107 7.75366 6.38639C5.61435 5.12012 3.47983 3.84581 1.35445 2.55626C1.05051 2.37186 0.784665 2.10907 0.54648 1.84214C0.484867 1.77291 0.561502 1.53146 0.637055 1.40693C0.681903 1.33267 0.870682 1.27498 0.956246 1.30851C1.33486 1.45656 1.7213 1.60505 2.06573 1.81689C3.90525 2.94751 5.73128 4.10033 7.566 5.23835C7.94701 5.47458 8.34609 5.6814 8.79046 5.93222C10.0084 5.2044 11.2339 4.47895 12.4525 3.74196C13.707 2.98343 14.9676 2.23382 16.1999 1.44044C16.7956 1.05704 17.2634 1.11975 17.8543 1.49619C20.1208 2.94053 22.4234 4.32828 24.7142 5.73432C24.8499 5.81749 24.9999 5.87693 25.1336 5.9429Z" fill="#CAB469"/>
</g>
</svg>
