<svg width="61" height="62" viewBox="0 0 61 62" fill="none" xmlns="http://www.w3.org/2000/svg">
<path d="M8.89981 31.738C19.649 35.3685 26.7382 42.4669 29.9665 53.5835C30.1933 50.308 30.1045 32.7323 29.869 31.738H8.89981ZM59.7696 1.98958C57.9599 1.79124 56.287 2.07636 54.6288 2.36876C53.5144 2.56539 52.4303 2.93771 51.3367 3.24593C48.5758 4.02456 46.0768 5.37066 43.7084 6.94034C41.5798 8.35078 39.7637 10.1464 38.0575 12.0392C37.4936 12.6648 37.0052 13.3638 36.5284 14.0608C35.8605 15.0369 35.1915 16.0173 34.602 17.0413C33.522 18.9175 32.6743 20.9086 32.1274 23.0005C31.7454 24.4611 31.6037 25.9836 31.2527 27.4541C31.0003 28.5114 31.0956 29.5384 31.1224 30.5723C32.8051 30.7578 58.7712 30.708 59.7696 30.5193V1.98958ZM29.9432 30.6216C30.1484 28.4298 30.0729 2.91932 29.8679 1.99642C13.558 1.52619 0.590303 16.5497 1.18416 30.6216H29.9432ZM31.1181 60.6017C33.1067 60.8037 58.814 60.7355 59.739 60.5363C59.9205 58.4838 59.7611 56.8158 59.2998 54.6178C58.6577 51.5581 57.464 48.7092 55.9048 46.0331C54.9283 44.3567 53.788 42.7717 52.4363 41.336C51.6806 40.5336 50.8724 39.7984 50.0775 39.0458C49.3699 38.3757 48.6367 37.7194 47.8481 37.1498C45.0071 35.0977 41.8577 33.6578 38.5219 32.6205C37.8824 32.4215 37.2068 32.3315 36.5429 32.221C35.795 32.0966 35.0209 32.0821 34.2959 31.8822C33.2418 31.5918 32.2103 31.7313 31.1181 31.7472V60.6017ZM30.8242 24.3594C32.3635 18.2166 35.3793 12.9711 40.045 8.8088C45.8781 3.60476 52.7849 0.947207 60.6527 0.961941C60.6882 0.997633 60.7224 1.02476 60.7474 1.05874C60.7712 1.09101 60.8015 1.13055 60.8015 1.16688C60.8146 10.8271 60.8252 20.4875 60.8359 30.148C60.8364 30.5284 60.8359 30.9087 60.8359 31.2118C60.2939 31.7811 59.6805 31.6982 59.0891 31.6982C52.7623 31.6989 46.4355 31.6987 40.1089 31.6987H38.8784C54.5327 36.7633 61.1467 50.4899 60.7366 61.3342C59.7771 61.5231 1.88485 61.5701 0.318671 61.3724C0.299768 61.0606 0.262509 60.7314 0.262419 60.4023C0.260318 50.2283 0.264298 40.054 0.259889 29.88C0.25938 28.5193 0.492514 27.1957 0.717834 25.8585C0.928557 24.6082 1.12558 23.3706 1.53312 22.1624C2.4439 19.4631 3.63082 16.9135 5.20712 14.5267C6.00781 13.3142 6.98091 12.2579 7.83606 11.1071C8.87353 9.71078 10.2397 8.70216 11.4999 7.5792C12.5017 6.68642 13.7084 6.01743 14.8492 5.28837C17.6254 3.5135 20.6903 2.44139 23.8712 1.67665C25.2275 1.35028 26.5991 1.1171 28.0087 1.13357C28.5922 1.14018 29.1752 0.951023 29.7621 0.920457C30.6472 0.874497 30.7926 1.03715 30.8227 1.93612C30.8315 2.19218 30.8242 2.44888 30.8242 2.70536V24.3594Z" fill="#CAB469"/>
</svg>
